<svg width="24" height="24" viewBox="0 0 24 24" fill="none" xmlns="http://www.w3.org/2000/svg">
  <mask
    id="mask0_1825_34759"
    style="mask-type: luminance"
    maskUnits="userSpaceOnUse"
    x="1"
    y="0"
    width="22"
    height="24"
  >
    <path d="M22.875 0H1.125V24H22.875V0Z" fill="white" />
  </mask>
  <g mask="url(#mask0_1825_34759)">
    <path
      d="M13.8227 13.8237L12.6328 17.0096C12.5977 17.098 12.5977 17.1961 12.6328 17.2845L14.6762 22.7679L17.041 21.4326L14.2043 13.8237C14.139 13.647 13.888 13.647 13.8227 13.8237Z"
      fill="#0D0D12"
    />
    <path
      d="M16.2023 8.46309C16.1371 8.28639 15.8861 8.28639 15.8208 8.46309L14.6309 11.649C14.5957 11.7374 14.5957 11.8356 14.6309 11.924L17.9797 20.9025L20.3445 19.5672L16.2023 8.46309Z"
      fill="#0D0D12"
    />
    <path
      d="M12 1.48742C12.0602 1.48742 12.1155 1.50215 12.1707 1.53161L21.188 6.62222C21.2935 6.68112 21.3587 6.78912 21.3587 6.90694V17.0882C21.3587 17.206 21.2935 17.314 21.188 17.3728L12.1707 22.4684C12.1205 22.4978 12.0602 22.5126 12 22.5126C11.9398 22.5126 11.8845 22.4978 11.8293 22.4684L2.817 17.3778C2.71157 17.3188 2.64629 17.2108 2.64629 17.0931V6.90694C2.64629 6.78912 2.71157 6.68112 2.817 6.62222L11.8343 1.53161C11.8845 1.50215 11.9448 1.48742 12 1.48742ZM12 0C11.6787 0 11.3573 0.0834525 11.0711 0.245449L2.05384 5.33606C1.48147 5.66006 1.125 6.25895 1.125 6.90694V17.0882C1.125 17.7362 1.48147 18.34 2.05384 18.664L11.0711 23.7545C11.3573 23.9165 11.6787 24 12 24C12.3213 24 12.6427 23.9165 12.9289 23.7545L21.9461 18.664C22.5236 18.34 22.875 17.741 22.875 17.0882V6.90694C22.875 6.25895 22.5185 5.65514 21.9461 5.33115L12.9339 0.245449C12.6427 0.0834525 12.3213 0 12 0Z"
      fill="#0D0D12"
    />
    <path d="M6.04102 20.9123L6.86944 18.6935L8.53634 20.0484L6.9799 21.4425L6.04102 20.9123Z" fill="#0D0D12" />
    <path
      d="M11.2411 6.18036H8.95669C8.78599 6.18036 8.63029 6.28345 8.57508 6.44053L3.6748 19.5769L6.03959 20.9122L11.4369 6.44545C11.4821 6.31781 11.3867 6.18036 11.2411 6.18036Z"
      fill="#0D0D12"
    />
    <path
      d="M15.2427 6.18036H12.9583C12.7876 6.18036 12.6319 6.28345 12.5767 6.44053L6.97852 21.4423L9.34327 22.7776L15.4335 6.45035C15.4837 6.31781 15.3833 6.18036 15.2427 6.18036Z"
      fill="#0D0D12"
    />
  </g>
</svg>
