<svg xmlns="http://www.w3.org/2000/svg" width="17" height="17" fill="none">
  <g clip-path="url(#a)">
    <path fill="#9096B2"
      d="M7.951 12.472a.47.47 0 1 1-.001.939.47.47 0 0 1 .001-.94Zm7.35-2.898a.469.469 0 1 1 0-.937.469.469 0 0 1 0 .937Zm0-1.917a1.45 1.45 0 0 0-1.373 1.91L9.14 12.115a1.443 1.443 0 0 0-1.189-.624c-.553 0-1.056.316-1.3.81l-4.3-2.268c-.455-.238-.795-.986-.76-1.668.02-.355.142-.631.33-.738.118-.066.26-.061.413.018l.028.016c1.14.6 4.87 2.564 5.026 2.637.242.113.377.158.79-.038l7.71-4.01c.113-.042.245-.15.245-.315 0-.228-.236-.318-.237-.318-.438-.21-1.112-.526-1.77-.834-1.405-.658-2.998-1.403-3.697-1.77a1.195 1.195 0 0 0-1.177.004l-.168.084c-3.148 1.556-7.36 3.643-7.6 3.789-.43.261-.696.782-.73 1.428-.054 1.025.468 2.093 1.216 2.485l4.548 2.345a1.45 1.45 0 0 0 2.449.824c.27-.267.426-.63.433-1.01l5.01-2.715a1.447 1.447 0 0 0 2.34-1.142 1.45 1.45 0 0 0-1.45-1.45" />
  </g>
  <defs>
    <clipPath id="a">
      <path fill="#fff" d="M0 0H16V16H0z" transform="translate(.75 .625)" />
    </clipPath>
  </defs>
</svg>