<?xml version="1.0" encoding="UTF-8"?>
<!DOCTYPE svg PUBLIC "-//W3C//DTD SVG 1.1//EN" "http://www.w3.org/Graphics/SVG/1.1/DTD/svg11.dtd">
<svg
  xmlns="http://www.w3.org/2000/svg"
  version="1.1"
  width="200px"
  height="200px"
  style="
    shape-rendering: geometricPrecision;
    text-rendering: geometricPrecision;
    image-rendering: optimizeQuality;
    fill-rule: evenodd;
    clip-rule: evenodd;
  "
  xmlns:xlink="http://www.w3.org/1999/xlink"
>
  <g>
    <path
      style="opacity: 1"
      fill="#676455"
      d="M -0.5,-0.5 C 66.1667,-0.5 132.833,-0.5 199.5,-0.5C 199.5,66.1667 199.5,132.833 199.5,199.5C 132.833,199.5 66.1667,199.5 -0.5,199.5C -0.5,132.833 -0.5,66.1667 -0.5,-0.5 Z"
    />
  </g>
  <g>
    <path
      style="opacity: 1"
      fill="#646153"
      d="M 58.5,47.5 C 65.5079,47.3337 72.5079,47.5004 79.5,48C 85.7987,49.9633 90.632,53.7966 94,59.5C 97.4806,67.619 101.147,75.619 105,83.5C 110.114,75.6071 114.447,67.2738 118,58.5C 120.552,54.2811 124.052,51.1145 128.5,49C 135.753,47.443 143.086,47.1097 150.5,48C 157.869,50.0352 162.535,54.7019 164.5,62C 153.942,90.9591 142.109,119.459 129,147.5C 123.598,155.702 115.931,159.702 106,159.5C 98.0748,159.867 91.4082,157.201 86,151.5C 84.1624,148.963 83.3291,146.129 83.5,143C 84.8678,136.401 86.5345,129.901 88.5,123.5C 81.5836,126.917 75.4169,125.917 70,120.5C 61.2716,104.373 53.6049,87.7064 47,70.5C 43.4071,59.019 47.2404,51.3523 58.5,47.5 Z"
    />
  </g>
  <g>
    <path
      style="opacity: 1"
      fill="#a4af63"
      d="M 80.5,60.5 C 83.081,68.1628 86.081,75.6628 89.5,83C 85.2066,92.0497 81.2066,101.216 77.5,110.5C 75.3095,112.939 73.8095,112.272 73,108.5C 65.5974,90.7925 58.0974,73.1258 50.5,55.5C 59.4815,54.3347 68.4815,54.168 77.5,55C 78.2291,57.0581 79.2291,58.8914 80.5,60.5 Z"
    />
  </g>
  <g>
    <path
      style="opacity: 1"
      fill="#a5af63"
      d="M 148.5,60.5 C 136.848,87.8075 125.182,115.141 113.5,142.5C 107.872,143.495 102.206,143.829 96.5,143.5C 93.7531,143.813 91.0865,143.48 88.5,142.5C 101.404,113.365 113.737,84.0315 125.5,54.5C 133.833,54.5 142.167,54.5 150.5,54.5C 150.396,56.7028 149.73,58.7028 148.5,60.5 Z"
    />
  </g>
  <g>
    <path
      style="opacity: 1"
      fill="#555246"
      d="M 80.5,60.5 C 82.0174,60.5106 83.1841,61.1772 84,62.5C 89.9559,71.6892 92.6226,81.6892 92,92.5C 89.6559,97.0274 87.6559,101.694 86,106.5C 84.6365,109.363 82.4698,111.363 79.5,112.5C 78.4777,112.145 77.811,111.478 77.5,110.5C 81.2066,101.216 85.2066,92.0497 89.5,83C 86.081,75.6628 83.081,68.1628 80.5,60.5 Z"
    />
  </g>
  <g>
    <path
      style="opacity: 1"
      fill="#535045"
      d="M 96.5,143.5 C 102.206,143.829 107.872,143.495 113.5,142.5C 125.182,115.141 136.848,87.8075 148.5,60.5C 149.847,59.8288 151.014,59.8288 152,60.5C 152.738,64.2613 152.405,67.9279 151,71.5C 139.876,94.4086 129.876,117.742 121,141.5C 114.222,147.404 106.389,149.071 97.5,146.5C 96.8728,145.583 96.5394,144.583 96.5,143.5 Z"
    />
  </g>
</svg>
