<svg xmlns="http://www.w3.org/2000/svg" width="32" height="32" fill="none">
  <path
    fill="#BCBCC6"
    fill-rule="evenodd"
    d="M25.926 6.38A4.002 4.002 0 0 0 22.266 4H9.735a4.002 4.002 0 0 0-3.66 2.38L1.462 16.766a1.329 1.329 0 0 0-.127.567V24a4 4 0 0 0 4 4h21.333a4 4 0 0 0 4-4v-6.712a1.327 1.327 0 0 0-.126-.523L25.926 6.38ZM27.283 16l-3.795-8.54a1.332 1.332 0 0 0-1.22-.793H9.733c-.528 0-1.007.31-1.22.793L4.718 16h5.948c.446 0 .862.223 1.11.594L14.047 20h3.907l2.27-3.406c.248-.371.664-.594 1.11-.594h5.949ZM4 18.667V24c0 .736.597 1.333 1.333 1.333h21.333c.737 0 1.334-.597 1.334-1.333v-5.333h-5.953l-2.271 3.406a1.333 1.333 0 0 1-1.11.594h-5.333c-.446 0-.862-.223-1.11-.594l-2.27-3.406H4Z"
    clip-rule="evenodd"
  />
</svg>
