<svg width="16" height="16" viewBox="0 0 16 16" fill="none" xmlns="http://www.w3.org/2000/svg">
  <path
    d="M7.20108 11.8469C7.26262 11.847 7.32355 11.8592 7.38038 11.8828C7.43721 11.9064 7.48882 11.941 7.53228 11.9846C7.57574 12.0282 7.61019 12.0799 7.63366 12.1368C7.65713 12.1937 7.66916 12.2547 7.66908 12.3162C7.66899 12.3778 7.65678 12.4387 7.63315 12.4955C7.60951 12.5523 7.57492 12.604 7.53134 12.6474C7.48775 12.6909 7.43604 12.7253 7.37915 12.7488C7.32225 12.7723 7.26129 12.7843 7.19974 12.7842C7.07545 12.784 6.95631 12.7345 6.86854 12.6465C6.78078 12.5584 6.73157 12.4392 6.73174 12.3149C6.73192 12.1906 6.78147 12.0714 6.86948 11.9837C6.9575 11.8959 7.07678 11.8467 7.20108 11.8469ZM14.5504 8.94887C14.4889 8.94883 14.4279 8.93666 14.3711 8.91307C14.3142 8.88948 14.2626 8.85492 14.2191 8.81137C14.1756 8.76782 14.1411 8.71613 14.1176 8.65925C14.0941 8.60237 14.082 8.54142 14.0821 8.47987C14.0821 8.41833 14.0943 8.35739 14.1179 8.30055C14.1415 8.2437 14.176 8.19206 14.2196 8.14857C14.2631 8.10508 14.3148 8.0706 14.3717 8.04709C14.4286 8.02357 14.4895 8.0115 14.5511 8.01154C14.6754 8.01163 14.7945 8.06109 14.8824 8.14904C14.9702 8.237 15.0195 8.35624 15.0194 8.48054C15.0193 8.60484 14.9699 8.72401 14.8819 8.81184C14.794 8.89967 14.6747 8.94896 14.5504 8.94887ZM14.5504 7.03154C14.1661 7.03189 13.7977 7.1847 13.526 7.45643C13.2542 7.72816 13.1014 8.09659 13.1011 8.48087C13.1011 8.63621 13.1271 8.79087 13.1777 8.94154L8.39041 11.4902C8.25767 11.2975 8.08004 11.1399 7.87285 11.0311C7.66566 10.9222 7.43511 10.8654 7.20108 10.8655C6.64841 10.8655 6.14508 11.1822 5.90108 11.6762L1.60041 9.40821C1.14574 9.16954 0.805744 8.42154 0.841744 7.74021C0.86041 7.38487 0.983077 7.10887 1.17041 7.00221C1.28908 6.93554 1.43174 6.94087 1.58374 7.02021L1.61174 7.03554C2.75174 7.63554 6.48108 9.60021 6.63841 9.67287C6.88041 9.78554 7.01508 9.83087 7.42841 9.63487L15.1377 5.62554C15.2511 5.58287 15.3831 5.47421 15.3831 5.30954C15.3831 5.08154 15.1471 4.99154 15.1464 4.99154C14.7077 4.78154 14.0337 4.46621 13.3764 4.15821C11.9711 3.50021 10.3784 2.75487 9.67908 2.38821C9.07508 2.07221 8.58908 2.33887 8.50241 2.39221L8.33441 2.47554C5.18641 4.03221 0.973077 6.11887 0.733077 6.26487C0.30441 6.52621 0.0384103 7.04687 0.0037436 7.69287C-0.0495897 8.71754 0.47241 9.78621 1.21974 10.1775L5.76774 12.5229C5.81784 12.8674 5.99022 13.1824 6.25339 13.4103C6.51656 13.6382 6.85294 13.7638 7.20108 13.7642C7.5813 13.7636 7.94608 13.6137 8.21699 13.3469C8.48789 13.0802 8.64328 12.7177 8.64974 12.3375L13.6591 9.62221C13.9124 9.82087 14.2277 9.92954 14.5504 9.92954C14.9347 9.92919 15.3031 9.77638 15.5749 9.50465C15.8466 9.23292 15.9994 8.86449 15.9997 8.48021C15.9994 8.09593 15.8466 7.72749 15.5749 7.45576C15.3031 7.18404 14.9347 7.03123 14.5504 7.03087"
    fill="#9096B2"
  />
</svg>
