<svg width="354" height="226" viewBox="0 0 354 226" fill="none" xmlns="http://www.w3.org/2000/svg">
<path fill-rule="evenodd" clip-rule="evenodd" d="M180.925 2.0869C178.186 0.507488 174.814 0.507491 172.075 2.08691L116.449 34.1545C113.696 35.7411 112 38.68 112 41.8614V105.943C112 109.125 113.696 112.064 116.449 113.65L172.075 145.718C174.814 147.297 178.186 147.297 180.925 145.718L236.551 113.65C239.304 112.064 241 109.125 241 105.943V41.8614C241 38.68 239.304 35.7411 236.551 34.1545L180.925 2.0869ZM176.5 17.4874L127.529 45.7183V102.086L131.524 104.389L169.583 40.8324C172.643 35.7237 180.031 35.7248 183.09 40.8325L221.233 104.529L225.471 102.086V45.7183L176.5 17.4874ZM176.5 130.317L144.987 112.151L176.337 59.7981L207.77 112.291L176.5 130.317Z" fill="black"/>
<path d="M234.64 195.543C228.203 195.543 222.937 200.826 222.937 207.402C222.937 213.979 228.203 219.261 234.64 219.261C238.586 219.261 242.086 217.284 244.215 214.225C245.261 212.72 247.326 212.351 248.828 213.4C250.329 214.448 250.697 216.518 249.651 218.023C246.345 222.775 240.859 225.902 234.64 225.902C224.49 225.902 216.31 217.593 216.31 207.402C216.31 197.212 224.49 188.902 234.64 188.902C240.859 188.902 246.345 192.03 249.651 196.782C250.697 198.287 250.329 200.356 248.828 201.405C247.326 202.454 245.261 202.084 244.215 200.58C242.086 197.52 238.586 195.543 234.64 195.543Z" fill="black"/>
<path d="M59.6391 192.223C59.6391 191.175 60.4868 190.325 61.5324 190.325H86.1454C87.191 190.325 88.0387 191.175 88.0387 192.223V195.069C88.0387 196.117 87.191 196.966 86.1454 196.966H66.2657V203.607H86.1454C87.191 203.607 88.0387 204.457 88.0387 205.505V222.582C88.0387 223.63 87.191 224.479 86.1454 224.479H61.5324C60.4868 224.479 59.6391 223.63 59.6391 222.582V219.736C59.6391 218.688 60.4868 217.838 61.5324 217.838H81.4121V210.249H61.5324C60.4868 210.249 59.6391 209.399 59.6391 208.351V192.223Z" fill="black"/>
<path d="M273.582 190.325C272.537 190.325 271.689 191.175 271.689 192.223V195.069C271.689 196.117 272.537 196.966 273.582 196.966H282.576V222.582C282.576 223.63 283.423 224.479 284.469 224.479H287.309C288.355 224.479 289.202 223.63 289.202 222.582V196.966H298.195C299.241 196.966 300.089 196.117 300.089 195.069V192.223C300.089 191.175 299.241 190.325 298.195 190.325H273.582Z" fill="black"/>
<path d="M336.256 191.282C335.526 190.02 333.709 190.02 332.979 191.282L315.493 221.53C314.762 222.795 315.673 224.378 317.131 224.378H338.794C339.378 224.378 339.742 223.745 339.45 223.239L336.543 218.21C336.374 217.917 336.061 217.737 335.724 217.737H325.344L334.618 201.695L343.891 217.737L347.298 223.665C347.552 224.106 348.021 224.378 348.529 224.378H352.104C353.563 224.378 354.473 222.795 353.742 221.53L336.256 191.282Z" fill="black"/>
<path d="M17.7442 191.272C18.4736 190.01 20.2913 190.01 21.0206 191.272L38.5069 221.52C39.2382 222.785 38.3274 224.368 36.8687 224.368H33.0184C32.6807 224.368 32.3685 224.188 32.1992 223.895L28.6336 217.727H28.6562L19.3824 201.685L10.1087 217.727H20.4885C20.8262 217.727 21.1383 217.908 21.3076 218.2L24.2146 223.229C24.5071 223.735 24.1428 224.368 23.5593 224.368H1.89613C0.437399 224.368 -0.473351 222.785 0.257916 221.52L17.7442 191.272Z" fill="black"/>
<path fill-rule="evenodd" clip-rule="evenodd" d="M133.951 190.617C139.441 190.617 143.891 195.077 143.891 200.579C143.891 206.08 139.441 210.54 133.951 210.54H121.171V222.873C121.171 223.921 120.324 224.771 119.278 224.771H116.438C115.393 224.771 114.545 223.921 114.545 222.873V192.018C114.545 191.244 115.171 190.617 115.942 190.617H133.951ZM121.171 203.899H133.951C135.781 203.899 137.265 202.412 137.265 200.579C137.265 198.745 135.781 197.258 133.951 197.258H121.171V203.899Z" fill="black"/>
<path d="M166.611 222.582C166.611 223.63 167.458 224.479 168.504 224.479H193.117C194.163 224.479 195.01 223.63 195.01 222.582V219.736C195.01 218.688 194.163 217.838 193.117 217.838H173.237V210.249H193.117C194.163 210.249 195.01 209.399 195.01 208.351V205.505C195.01 204.457 194.163 203.607 193.117 203.607H168.504C167.458 203.607 166.611 204.457 166.611 205.505V222.582Z" fill="black"/>
<path d="M166.611 192.223C166.611 191.175 167.458 190.325 168.504 190.325H193.117C194.163 190.325 195.01 191.175 195.01 192.223V195.069C195.01 196.117 194.163 196.966 193.117 196.966H168.504C167.458 196.966 166.611 196.117 166.611 195.069V192.223Z" fill="black"/>
</svg>
