<?xml version="1.0" encoding="UTF-8" standalone="no"?>
<svg
  width="170"
  height="170"
  viewBox="0 0 170 170"
  fill="none"
  version="1.1"
  id="svg20"
  sodipodi:docname="aspecta.svg"
  inkscape:version="1.2.2 (b0a84865, 2022-12-01)"
  xmlns:inkscape="http://www.inkscape.org/namespaces/inkscape"
  xmlns:sodipodi="http://sodipodi.sourceforge.net/DTD/sodipodi-0.dtd"
  xmlns="http://www.w3.org/2000/svg"
  xmlns:svg="http://www.w3.org/2000/svg"
>
  <defs id="defs24" />
  <sodipodi:namedview
    id="namedview22"
    pagecolor="#ffffff"
    bordercolor="#000000"
    borderopacity="0.25"
    inkscape:showpageshadow="2"
    inkscape:pageopacity="0.0"
    inkscape:pagecheckerboard="0"
    inkscape:deskcolor="#d1d1d1"
    showgrid="false"
    inkscape:zoom="2.1085137"
    inkscape:cx="48.849576"
    inkscape:cy="61.417671"
    inkscape:window-width="1405"
    inkscape:window-height="783"
    inkscape:window-x="127"
    inkscape:window-y="77"
    inkscape:window-maximized="0"
    inkscape:current-layer="svg20"
  />
  <rect style="fill: #ffffff" id="rect238" width="169.5" height="168.54237" x="0.95762712" y="0.95762712" />
  <path
    fill-rule="evenodd"
    clip-rule="evenodd"
    d="m 89.992797,14.591336 c -2.739,-1.579412 -6.111,-1.579409 -8.85,10e-6 l -55.626,32.06759 c -2.753,1.5866 -4.449,4.5255 -4.449,7.7069 v 64.081604 c 0,3.182 1.696,6.121 4.449,7.707 l 55.626,32.068 c 2.739,1.579 6.111,1.579 8.85,0 l 55.626003,-32.068 c 2.753,-1.586 4.449,-4.525 4.449,-7.707 V 54.365836 c 0,-3.1814 -1.696,-6.1203 -4.449,-7.7069 z m -4.425,15.4005 -48.971,28.2309 v 56.367704 l 3.995,2.303 38.059,-63.556604 c 3.06,-5.1087 10.448,-5.1076 13.507,1e-4 l 38.143003,63.696504 4.238,-2.443 V 58.222736 Z m 0,112.829604 -31.513,-18.166 31.35,-52.352904 31.433003,52.492904 z"
    fill="#000000"
    id="path2"
  />
</svg>
