<svg width="35" height="40" viewBox="0 0 35 40" fill="none" xmlns="http://www.w3.org/2000/svg">
  <path
    d="M16.6511 39.2681L0.80337 30.1085C0.446468 29.9021 0.226562 29.521 0.226562 29.1082V10.7892C0.226562 10.3764 0.446468 9.99524 0.80337 9.78883L16.6511 0.629326C17.008 0.422895 17.4478 0.422895 17.8047 0.629326L33.6524 9.78883C34.0093 9.99524 34.2292 10.3764 34.2292 10.7892V29.1082C34.2292 29.521 34.0093 29.9021 33.6524 30.1085L17.8047 39.2681C17.4478 39.4745 17.008 39.4745 16.6511 39.2681ZM3.68739 28.4419L16.6511 35.9348C17.008 36.1412 17.4478 36.1412 17.8047 35.9348L30.7684 28.4419C31.1253 28.2355 31.3452 27.8544 31.3452 27.4415V12.4565C31.3452 12.0437 31.1253 11.6625 30.7684 11.4561L17.8047 3.96327C17.4478 3.75683 17.008 3.75683 16.6511 3.96327L3.68739 11.4561C3.33049 11.6625 3.11059 12.0437 3.11059 12.4565V27.4415C3.11059 27.8544 3.33049 28.2355 3.68739 28.4419Z"
    fill="url(#paint0_linear_1323_12205)"
  />
  <path
    d="M16.65 6.61364L5.97917 12.7813C5.62225 12.9878 5.40234 13.3688 5.40234 13.7817V25.4501C5.40234 26.2751 5.84214 27.038 6.55595 27.4502L7.85378 28.2001C8.04628 28.3113 8.28637 28.1727 8.28637 27.9504V15.449C8.28637 15.0362 8.50625 14.655 8.86316 14.4486L16.65 9.94828C17.0069 9.74187 17.4467 9.74187 17.8037 9.94828L25.5905 14.4486C25.9474 14.655 26.1673 15.0362 26.1673 15.449V24.4505C26.1673 24.8633 25.9474 25.2444 25.5905 25.4508L17.8037 29.9512C17.4467 30.1576 17.0069 30.1576 16.65 29.9512L14.0544 28.4513C13.6975 28.2449 13.4776 27.8638 13.4776 27.4509V18.4495C13.4776 18.0366 13.6975 17.6555 14.0544 17.4491L16.65 15.9492C17.0069 15.7428 17.4467 15.7428 17.8037 15.9492L20.3993 17.4491C20.7562 17.6555 20.9761 18.0366 20.9761 18.4495V21.45C20.9761 21.8628 20.7562 22.2439 20.3993 22.4504L19.1015 23.2003C18.9089 23.3115 18.6688 23.1729 18.6688 22.9506V21.105V19.8036C18.6688 19.3907 18.449 19.0096 18.092 18.8032L17.5153 18.4697C17.3365 18.3665 17.1173 18.3665 16.9385 18.4697L16.2174 18.8862C15.95 19.0406 15.7848 19.3272 15.7848 19.6361V19.9486V26.1293C15.7848 26.5436 16.0069 26.9262 16.366 27.1319L16.6443 27.2907C17.0005 27.4942 17.4381 27.4935 17.7935 27.2878L23.2833 24.1148C23.6402 23.9084 23.8601 23.5273 23.8601 23.1144V16.78C23.8601 16.3672 23.6402 15.986 23.2833 15.7796L17.8037 12.6124C17.4467 12.406 17.0069 12.406 16.65 12.6124L11.1704 15.7796C10.8135 15.986 10.5936 16.3672 10.5936 16.78V29.1146C10.5936 29.5275 10.8135 29.9086 11.1704 30.115L16.65 33.2822C17.0069 33.4886 17.4467 33.4886 17.8037 33.2822L28.4746 27.1146C28.8314 26.9081 29.0514 26.527 29.0514 26.1142V13.7795C29.0514 13.3667 28.8314 12.9856 28.4746 12.7792L17.8037 6.61146C17.4467 6.40505 17.0069 6.40505 16.65 6.61146V6.61364Z"
    fill="url(#paint1_linear_1323_12205)"
  />
  <defs>
    <linearGradient
      id="paint0_linear_1323_12205"
      x1="7.47501"
      y1="1.28674"
      x2="25.1794"
      y2="38.7949"
      gradientUnits="userSpaceOnUse"
    >
      <stop stop-color="#4A47D3" />
      <stop offset="1" stop-color="#C1F6FF" />
    </linearGradient>
    <linearGradient
      id="paint1_linear_1323_12205"
      x1="10.4437"
      y1="7.01928"
      x2="22.6766"
      y2="33.0399"
      gradientUnits="userSpaceOnUse"
    >
      <stop stop-color="#4A47D3" />
      <stop offset="1" stop-color="#C1F6FF" />
    </linearGradient>
  </defs>
</svg>
