<svg width="131" height="158" viewBox="0 0 131 158" fill="none" xmlns="http://www.w3.org/2000/svg">
  <path
    d="M126.717 87.7185C126.717 96.4153 124.754 104.652 121.244 112.016L113.609 107.254L110.031 105.022C112.333 99.7175 113.609 93.8651 113.609 87.7185C113.609 81.5718 112.333 75.7195 110.031 70.4147L113.609 68.1833L121.244 63.4207C124.754 70.7853 126.717 79.0216 126.717 87.7185Z"
    fill="white"
  />
  <path
    d="M113.609 107.254L110.031 105.022L96.3083 96.4671C95.5081 95.9685 95.1176 95.0095 95.347 94.0967C95.8577 92.056 96.1308 89.92 96.1308 87.7212C96.1308 85.5225 95.8604 83.3864 95.347 81.3457C95.1176 80.4303 95.5081 79.4739 96.3083 78.9753L110.031 70.4202L121.244 63.4262L128.943 58.6255C130.934 57.3831 131.597 54.7866 130.418 52.7595C130.024 52.0811 129.617 51.4136 129.202 50.7515C128.039 48.8988 126.791 47.1033 125.464 45.3732C112.893 28.9849 93.1978 18.321 70.9954 17.9831C70.3946 17.9749 69.9112 17.4927 69.9112 16.8933V7.0712C69.9112 3.46114 66.9755 0.532227 63.357 0.532227C59.7385 0.532227 56.8028 3.46114 56.8028 7.0712V18.3046C56.8028 18.825 56.4341 19.2691 55.9234 19.3726C52.2258 20.1219 48.6319 21.1627 45.1718 22.4705C44.459 22.7402 43.6944 22.2144 43.6944 21.4515V7.0712C43.6944 3.46114 40.7586 0.532227 37.1401 0.532227C33.5217 0.532227 30.5859 3.46114 30.5859 7.0712V28.9059C30.5859 29.6197 30.2309 30.2845 29.6465 30.696C11.7753 43.2807 0.081535 64.0175 0.00233823 87.4815C-0.126015 125.974 31.8476 157.468 70.4301 157.468H122.348C124.762 157.468 126.717 155.517 126.717 153.108V118.449C126.717 116.569 125.748 114.823 124.15 113.828L121.244 112.016L113.609 107.254ZM111.424 144.39H70.4192C39.1446 144.39 13.0835 118.863 13.1135 87.664C13.1271 72.0849 19.4438 57.9798 29.6547 47.7436C29.9988 47.3976 30.5914 47.6401 30.5914 48.1278V55.0236C30.5914 58.6337 33.5271 61.5626 37.1456 61.5626C40.7641 61.5626 43.6998 58.6337 43.6998 55.0236V38.777C43.6998 37.946 44.175 37.1832 44.9233 36.8181C52.4661 33.1235 60.9483 31.0474 69.9167 31.0474C86.9522 31.0474 102.237 38.5291 112.647 50.3783C113.535 51.3891 113.303 52.953 112.161 53.6668L103.078 59.3312L90.6689 67.069C89.1314 68.028 87.1624 67.9354 85.715 66.8456C81.2882 63.5025 75.7636 61.5326 69.7747 61.5653C55.5711 61.6416 43.9101 73.1611 43.7025 87.3316C43.4895 101.954 55.309 113.877 69.9167 113.877C75.8619 113.877 81.3428 111.905 85.7396 108.575C87.1761 107.488 89.1396 107.417 90.6689 108.371L103.078 116.109L112.328 121.876C113.125 122.375 113.611 123.247 113.611 124.187V142.213C113.611 143.417 112.634 144.392 111.427 144.392L111.424 144.39ZM83.0142 87.2608V88.1762C82.9322 90.5493 82.2167 92.7617 81.0315 94.6498C79.8163 96.5897 78.1012 98.189 76.0694 99.268C74.2343 100.243 72.1396 100.796 69.9139 100.796C62.6743 100.796 56.8055 94.9413 56.8055 87.7185C56.8055 80.4957 62.6743 74.6406 69.9139 74.6406C72.1396 74.6406 74.2343 75.1936 76.0694 76.169C78.1012 77.248 79.8163 78.8473 81.0315 80.7872C82.2167 82.6753 82.9322 84.8877 83.0142 87.2608Z"
    fill="white"
  />
</svg>
