<svg width="800" height="800" viewBox="0 0 800 800" fill="none" xmlns="http://www.w3.org/2000/svg">
<rect width="800" height="800" fill="#FDEE2D"/>
<path fill-rule="evenodd" clip-rule="evenodd" d="M458.742 234.744C466.289 238.602 476.606 242.819 488.477 244.923C493.802 245.867 498.707 246.23 503.081 246.237C511.668 246.159 520.542 244.617 529.232 240.962L529.172 241.189L533.495 242.66L533.497 242.661L533.633 242.708L533.981 242.828C534.071 242.859 534.174 242.895 534.289 242.935C534.56 243.029 534.901 243.149 535.312 243.294C536.485 243.709 538.232 244.334 540.574 245.19C545.257 246.904 552.32 249.545 561.925 253.286C567.007 255.265 570.884 258.902 573.742 262.369C576.681 265.935 579.213 270.145 581.395 274.442C585.759 283.036 589.406 293.342 592.302 302.923C595.224 312.592 597.511 321.961 599.062 328.88C599.841 332.35 600.439 335.228 600.846 337.25C601.049 338.262 601.205 339.061 601.311 339.614C601.364 339.891 601.404 340.106 601.432 340.256C601.446 340.331 601.457 340.389 601.465 340.431L601.478 340.502L601.465 340.507C601.465 340.507 601.467 340.507 601.479 340.505L602.071 343.74L600.953 346.833C595.63 361.544 599.156 371.813 605.344 383.477C606.284 385.248 607.413 387.261 608.617 389.407C611.079 393.796 613.851 398.738 615.947 403.295C619.355 410.709 622.159 419.307 621.993 429.284C621.871 436.642 620.594 452.102 617.897 471.516C617.584 474.717 617.103 477.896 616.513 480.983C613.278 502.083 608.502 526.656 601.896 550.217C594.88 575.24 585.53 600.134 573.142 618.629C560.919 636.879 543.552 651.883 520.39 649.678L519.882 649.63L519.38 649.539C471.945 640.963 418.958 627.174 375.55 603.046C332.01 578.845 296.716 543.39 288.002 491.286L287.953 490.997L287.919 490.706L287.764 489.388C287.71 488.929 287.643 488.353 287.563 487.668C287.494 487.071 287.415 486.391 287.327 485.632C286.949 482.373 286.406 477.662 285.748 471.847C284.43 460.219 282.646 444.17 280.781 426.491C277.061 391.24 272.978 349.142 271.661 322.767C270.562 300.739 273.578 280.252 289.581 263.97C304.864 248.419 330.081 238.783 367.473 232.279C386.438 228.981 414.086 224.85 439.06 224.85L443.176 224.85L443.233 224.894L443.249 224.87C447.307 228.058 452.585 231.536 458.742 234.744ZM532.219 268.027C536.726 269.676 543.607 272.248 553.024 275.915C553.024 275.915 553.032 275.922 553.046 275.931C553.173 276.016 553.848 276.464 554.978 277.835C556.394 279.554 558.002 282.082 559.714 285.453C563.138 292.195 566.301 300.946 569.025 309.958C569.87 312.754 570.661 315.534 571.393 318.235C567.652 317.318 563.804 316.576 559.948 316.049C550.113 314.705 539.32 314.634 529.749 317.326C520.053 320.053 510.038 326.184 505.565 338.16C501.323 349.514 503.397 362.779 509.591 377.036C509.717 377.325 509.854 377.608 510.001 377.886C524.544 405.242 535.859 426.375 543.394 440.403C544.635 442.712 543.22 445.672 540.639 446.151L490.449 455.469C483.897 456.685 479.373 463.099 480.345 469.795C481.189 475.614 485.905 479.731 491.426 479.911L489.76 484.973C487.381 492.198 480.633 497.08 473.027 497.08L423.644 497.08C418.331 497.08 413.302 494.683 409.958 490.555L390.18 466.15C385.952 460.933 378.296 460.131 373.079 464.359C367.862 468.586 367.06 476.243 371.288 481.46L391.066 505.865C399.027 515.69 410.998 521.397 423.644 521.397L473.027 521.397C491.133 521.397 507.195 509.775 512.857 492.577L513.71 489.984L518.226 498.716C525.427 512.641 539.795 521.386 555.473 521.386L578.651 521.386C580.517 521.386 582.381 521.244 584.222 520.964C582.497 528.527 580.587 536.144 578.482 543.652C571.716 567.785 563.2 589.777 552.939 605.097C548.712 611.408 544.544 616.104 540.431 619.394C539.494 607.806 537.773 596.203 536.096 586.612C535.208 581.533 534.318 576.945 533.538 573.126L537.107 573.126C543.822 573.126 549.266 567.683 549.266 560.968C549.266 554.253 543.822 548.81 537.107 548.81L499.699 548.81C492.984 548.81 487.541 554.253 487.541 560.968C487.541 567.683 492.984 573.126 499.699 573.126L508.689 573.126L508.839 573.821C509.74 578.02 510.943 583.941 512.142 590.801C513.924 600.991 515.642 612.935 516.411 624.256C472.033 615.802 425.223 602.836 387.364 581.792C347.645 559.715 319.17 529.601 312.033 487.559L312.03 487.529C312.004 487.312 311.966 486.987 311.916 486.561C311.816 485.709 311.67 484.452 311.482 482.832C311.106 479.591 310.566 474.901 309.91 469.11C309.442 464.984 308.916 460.301 308.348 455.186C313.797 458.963 320.194 460.864 326.828 460.193C343.747 458.484 355.806 440.705 353.763 420.484C351.719 400.262 336.348 385.255 319.429 386.965C312.676 387.647 306.698 390.889 302.081 395.825C299.353 368.333 296.897 340.573 295.948 321.555C294.981 302.178 297.969 290.126 306.924 281.014C316.599 271.171 335.29 262.558 371.64 256.237C389.329 253.16 413.467 249.583 435.29 249.2C435.41 249.279 435.533 249.36 435.658 249.443C435.74 249.497 435.824 249.552 435.909 249.607C438.462 251.273 442.119 253.505 446.697 255.891C455.807 260.64 468.825 266.136 484.234 268.867C498.671 271.425 510.882 270.675 519.594 269.239C523.68 268.565 527.01 267.739 529.458 267.024C530.251 267.31 531.171 267.643 532.219 268.027ZM532.114 472.635L539.825 487.545C542.85 493.396 548.886 497.07 555.473 497.07L578.651 497.07C584.029 497.07 587.869 494.032 589.047 490.324C590.368 486.165 591.629 481.541 592.547 476.846C593.559 470.214 594.409 463.966 595.109 458.263C584.673 450.029 579.586 435.22 581.217 418.09C581.891 411.009 584.571 406.012 588.06 402.486C586.768 400.196 585.38 397.732 583.864 394.874C577.024 381.982 570.767 366.188 575.921 345.622C570.129 343.337 563.115 341.449 556.029 340.481C547.942 339.375 540.67 339.593 535.376 341.082C530.208 342.535 528.561 344.619 527.921 346.333C527.06 348.64 526.426 354.427 531.365 365.966C532.61 368.308 533.832 370.604 535.029 372.854C536.811 368.352 541.202 365.168 546.338 365.168L559.455 365.168C566.17 365.168 571.614 370.612 571.614 377.327C571.614 384.041 566.17 389.485 559.455 389.485L546.338 389.485C545.447 389.485 544.578 389.389 543.741 389.207C552.328 405.304 559.301 418.319 564.481 427.963C573.658 445.048 563.203 466.863 544.156 470.399L532.114 472.635Z" fill="#131313"/>
<path d="M387.464 377.327C387.464 370.613 392.907 365.17 399.621 365.17L426.825 365.17C433.539 365.17 438.982 370.613 438.982 377.327C438.982 384.042 433.539 389.485 426.825 389.485L399.621 389.485C392.907 389.485 387.464 384.042 387.464 377.327Z" fill="#131313"/>
<path d="M367.071 342.833C361.124 345.499 353.915 342.596 350.969 336.35C348.023 330.104 350.456 322.879 356.402 320.213C368.771 314.668 386.292 310.214 403.611 309.835C420.465 309.467 440.176 312.929 453.672 326.784C458.488 331.728 458.691 339.51 454.125 344.167C449.56 348.823 441.954 348.59 437.138 343.646C431.103 337.45 420.046 334.106 405.481 334.424C391.382 334.732 376.835 338.456 367.071 342.833Z" fill="#131313"/>
<path d="M549.735 83.02C556.598 75.004 571.951 82.9514 568.971 93.5513C565.399 106.257 561.64 119.875 557.889 133.621C551.408 141.975 539.917 148.211 525.646 152.065C514.188 155.159 502.01 156.413 491.557 156.31C508.61 133.348 528.504 107.817 549.735 83.02Z" fill="#131313"/>
<path d="M477.481 175.551C468.615 187.851 460.852 198.964 454.487 208.245C461.991 214.443 477.045 222.311 493.546 224.989C507.984 227.332 522.996 226.264 536.104 214.831C539.957 200.259 544.567 182.926 549.457 164.749C543.451 167.622 537.131 169.839 530.901 171.522C512.488 176.494 492.644 177.418 477.989 175.626C477.818 175.605 477.649 175.58 477.481 175.551Z" fill="#131313"/>
<path d="M443.164 204.7C447.141 204.7 451.019 205.876 454.316 208.066C452.847 173.443 451.758 142.355 451.326 129.615C451.228 126.733 448.368 125.227 446.17 127.094C442.406 130.291 436.52 136.092 428.594 146.26C415.657 162.856 401.827 184.387 394.212 207.853C408.457 206.066 424.106 204.7 439.049 204.7L443.164 204.7Z" fill="#131313"/>
<path fill-rule="evenodd" clip-rule="evenodd" d="M369.408 622.671C414.933 647.132 468.82 660.88 515.758 669.366L516.261 669.457C516.815 669.557 517.374 669.634 517.935 669.688L518.443 669.736C525.957 670.451 532.949 669.92 539.43 668.439C537.864 672.369 535.873 676.881 533.435 682.18C528.054 693.871 514.985 699.712 502.273 697.703C475.111 693.409 455.097 695.617 438.804 697.415C420.56 699.427 406.982 700.925 393.256 692.206C375.952 681.213 370.77 647.848 369.408 622.671ZM410.676 681.903C416.892 681.903 421.931 676.864 421.931 670.648C421.931 664.432 416.892 659.393 410.676 659.393C404.46 659.393 399.421 664.432 399.421 670.648C399.421 676.864 404.46 681.903 410.676 681.903Z" fill="#131313"/>
<path d="M266.169 477.765C265.86 475.05 265.553 472.339 265.246 469.63C239.555 474.491 214.896 482.615 196.133 493.342C179.042 503.112 168.422 514.137 164.918 525.207C162.149 533.955 163.285 544.581 173.088 557.662C177.498 563.547 186.929 570.68 196.078 576.175C243.939 604.92 301.247 606.278 335.51 601.054C302.31 575.858 275.932 541.409 268.105 494.613C268.046 494.258 267.996 493.902 267.956 493.545C267.363 488.285 266.768 483.042 266.174 477.81L266.169 477.768L266.169 477.765Z" fill="#131313"/>
<path d="M252.795 343.548C254.684 369.117 257.845 401.126 260.745 428.607C261.469 435.469 262.215 442.323 262.975 449.18C234.577 454.325 206.976 463.269 185.624 475.475C166.986 486.13 151.525 500.178 145.891 517.977C145.713 518.539 145.546 519.102 145.389 519.667C131.53 492.549 126.784 462.608 130.896 434.918C133.005 423.022 137.091 412.828 142.57 404.013C154.531 384.77 173.868 370.916 196.944 360.752C214.722 352.921 233.984 347.538 252.795 343.548Z" fill="#131313"/>
<path d="M312.444 140.815C296.333 158.922 279.031 182.948 271.202 208.998C269.225 215.575 268.42 225.714 268.293 237.25C203.099 252.276 144.065 277.625 131.94 320.01C124.687 345.362 124.506 370.207 127.153 390.615C141.975 367.814 164.539 352.43 188.913 341.694C208.762 332.952 230.598 327.017 251.492 322.701C250.428 298.758 253.687 271.751 275.218 249.843C291.343 233.437 314.467 223.44 342.974 216.696C340.705 176.319 338.959 138 338.334 123.884C338.212 121.113 335.479 119.554 333.224 121.171C328.99 124.209 322.022 130.049 312.444 140.815Z" fill="#131313"/>
</svg>
