<?xml version="1.0" encoding="UTF-8" standalone="no"?>
<svg
   width="156.369"
   height="116.275"
   viewBox="0 0 156.369 116.275"
   fill="none"
   version="1.1"
   id="svg535"
   sodipodi:docname="logo-holo.svg"
   inkscape:version="1.2.2 (b0a84865, 2022-12-01)"
   xmlns:inkscape="http://www.inkscape.org/namespaces/inkscape"
   xmlns:sodipodi="http://sodipodi.sourceforge.net/DTD/sodipodi-0.dtd"
   xmlns="http://www.w3.org/2000/svg"
   xmlns:svg="http://www.w3.org/2000/svg">
  <sodipodi:namedview
     id="namedview537"
     pagecolor="#ffffff"
     bordercolor="#000000"
     borderopacity="0.25"
     inkscape:showpageshadow="2"
     inkscape:pageopacity="0.0"
     inkscape:pagecheckerboard="0"
     inkscape:deskcolor="#d1d1d1"
     showgrid="false"
     inkscape:zoom="1.4341637"
     inkscape:cx="196.63027"
     inkscape:cy="41.487593"
     inkscape:window-width="1502"
     inkscape:window-height="705"
     inkscape:window-x="0"
     inkscape:window-y="38"
     inkscape:window-maximized="0"
     inkscape:current-layer="svg535" />
  <path
     d="m 72.1724,37.425 h 14.6994 c 2.1999,0 3.9999,-1.8 3.9999,-4 0,-2.2 -1.775,-4 -3.9999,-4 H 72.1724 c -2.2,0 -3.9999,1.8 -3.9999,4 0,2.2 1.7749,4 3.9999,4 z"
     fill="#ffffff"
     id="path357" />
  <path
     d="m 72.1724,37.425 h 14.6994 c 2.1999,0 3.9999,-1.8 3.9999,-4 0,-2.2 -1.775,-4 -3.9999,-4 H 72.1724 c -2.2,0 -3.9999,1.8 -3.9999,4 0,2.2 1.7749,4 3.9999,4 z"
     fill="url(#paint0_linear_120_29)"
     fill-opacity="0.5"
     id="path359"
     style="fill:url(#paint0_linear_120_29)" />
  <path
     d="m 72.1724,37.425 h 14.6994 c 2.1999,0 3.9999,-1.8 3.9999,-4 0,-2.2 -1.775,-4 -3.9999,-4 H 72.1724 c -2.2,0 -3.9999,1.8 -3.9999,4 0,2.2 1.7749,4 3.9999,4 z"
     fill="url(#paint1_radial_120_29)"
     fill-opacity="0.2"
     id="path361"
     style="fill:url(#paint1_radial_120_29)" />
  <path
     d="M 96.2215,61.475 H 62.7977 c -2.2249,0 -3.9998,-1.8 -3.9998,-4 0,-2.2 1.7999,-4 3.9998,-4 h 33.4238 c 2.2249,0 3.9995,1.8 3.9995,4 0,2.2 -1.7996,4 -3.9995,4 z"
     fill="#ffffff"
     id="path363" />
  <path
     d="M 96.2215,61.475 H 62.7977 c -2.2249,0 -3.9998,-1.8 -3.9998,-4 0,-2.2 1.7999,-4 3.9998,-4 h 33.4238 c 2.2249,0 3.9995,1.8 3.9995,4 0,2.2 -1.7996,4 -3.9995,4 z"
     fill="url(#paint2_linear_120_29)"
     fill-opacity="0.5"
     id="path365"
     style="fill:url(#paint2_linear_120_29)" />
  <path
     d="M 96.2215,61.475 H 62.7977 c -2.2249,0 -3.9998,-1.8 -3.9998,-4 0,-2.2 1.7999,-4 3.9998,-4 h 33.4238 c 2.2249,0 3.9995,1.8 3.9995,4 0,2.2 -1.7996,4 -3.9995,4 z"
     fill="url(#paint3_radial_120_29)"
     fill-opacity="0.2"
     id="path367"
     style="fill:url(#paint3_radial_120_29)" />
  <path
     d="M 86.8718,85.525 H 72.1724 c -2.225,0 -3.9999,-1.8 -3.9999,-4 0,-2.2 1.7999,-4 3.9999,-4 h 14.6994 c 2.2249,0 3.9999,1.8 3.9999,4 0,2.2 -1.8,4 -3.9999,4 z"
     fill="#ffffff"
     id="path369" />
  <path
     d="M 86.8718,85.525 H 72.1724 c -2.225,0 -3.9999,-1.8 -3.9999,-4 0,-2.2 1.7999,-4 3.9999,-4 h 14.6994 c 2.2249,0 3.9999,1.8 3.9999,4 0,2.2 -1.8,4 -3.9999,4 z"
     fill="url(#paint4_linear_120_29)"
     fill-opacity="0.5"
     id="path371"
     style="fill:url(#paint4_linear_120_29)" />
  <path
     d="M 86.8718,85.525 H 72.1724 c -2.225,0 -3.9999,-1.8 -3.9999,-4 0,-2.2 1.7999,-4 3.9999,-4 h 14.6994 c 2.2249,0 3.9999,1.8 3.9999,4 0,2.2 -1.8,4 -3.9999,4 z"
     fill="url(#paint5_radial_120_29)"
     fill-opacity="0.2"
     id="path373"
     style="fill:url(#paint5_radial_120_29)" />
  <path
     fill-rule="evenodd"
     clip-rule="evenodd"
     d="M 79.8927,4.53945 C 73.0026,1.6166 65.4254,0 57.4729,0 25.724,0 0,25.725 0,57.475 c 0,31.75 25.724,57.475 57.4729,57.475 6.6581,0 13.0513,-1.131 18.9978,-3.212 6.89,2.921 14.4686,4.537 22.4256,4.537 31.7487,0 57.4727,-25.725 57.4727,-57.475 0,-31.75 -25.724,-57.475 -57.4727,-57.475 -6.6603,0 -13.0554,1.13211 -19.0036,3.21445 z m -0.2778,8.72235 c 16.1816,8.1341 27.3061,24.8944 27.3061,44.2132 0,20.4374 -12.45,38.0114 -30.1667,45.538 C 60.5727,94.8791 49.4482,78.1188 49.4482,58.8 c 0,-20.4374 12.45,-38.0114 30.1667,-45.5382 z M 69.3763,9.4721 C 52.6289,19.5144 41.4235,37.845 41.4235,58.8 c 0,19.6388 9.8419,36.9724 24.8639,47.339 -2.8609,0.516 -5.8067,0.786 -8.8145,0.786 -27.274,0 -49.4482,-22.2 -49.4482,-49.45 0,-27.25 22.1742,-49.45 49.4482,-49.45 4.1025,0 8.0897,0.50174 11.9034,1.4471 z m 20.6968,0.6657 c 15.0219,10.3666 24.8729,27.6994 24.8729,47.3372 0,20.955 -11.206,39.2856 -27.9531,49.328 3.8137,0.945 7.8009,1.447 11.9034,1.447 27.2737,0 49.4477,-22.175 49.4477,-49.45 0,-27.275 -22.174,-49.45 -49.4477,-49.45 -3.0108,0 -5.9596,0.27024 -8.8232,0.7878 z"
     fill="#ffffff"
     id="path375" />
  <path
     fill-rule="evenodd"
     clip-rule="evenodd"
     d="M 79.8927,4.53945 C 73.0026,1.6166 65.4254,0 57.4729,0 25.724,0 0,25.725 0,57.475 c 0,31.75 25.724,57.475 57.4729,57.475 6.6581,0 13.0513,-1.131 18.9978,-3.212 6.89,2.921 14.4686,4.537 22.4256,4.537 31.7487,0 57.4727,-25.725 57.4727,-57.475 0,-31.75 -25.724,-57.475 -57.4727,-57.475 -6.6603,0 -13.0554,1.13211 -19.0036,3.21445 z m -0.2778,8.72235 c 16.1816,8.1341 27.3061,24.8944 27.3061,44.2132 0,20.4374 -12.45,38.0114 -30.1667,45.538 C 60.5727,94.8791 49.4482,78.1188 49.4482,58.8 c 0,-20.4374 12.45,-38.0114 30.1667,-45.5382 z M 69.3763,9.4721 C 52.6289,19.5144 41.4235,37.845 41.4235,58.8 c 0,19.6388 9.8419,36.9724 24.8639,47.339 -2.8609,0.516 -5.8067,0.786 -8.8145,0.786 -27.274,0 -49.4482,-22.2 -49.4482,-49.45 0,-27.25 22.1742,-49.45 49.4482,-49.45 4.1025,0 8.0897,0.50174 11.9034,1.4471 z m 20.6968,0.6657 c 15.0219,10.3666 24.8729,27.6994 24.8729,47.3372 0,20.955 -11.206,39.2856 -27.9531,49.328 3.8137,0.945 7.8009,1.447 11.9034,1.447 27.2737,0 49.4477,-22.175 49.4477,-49.45 0,-27.275 -22.174,-49.45 -49.4477,-49.45 -3.0108,0 -5.9596,0.27024 -8.8232,0.7878 z"
     fill="url(#paint6_linear_120_29)"
     fill-opacity="0.5"
     id="path377"
     style="fill:url(#paint6_linear_120_29)" />
  <path
     fill-rule="evenodd"
     clip-rule="evenodd"
     d="M 79.8927,4.53945 C 73.0026,1.6166 65.4254,0 57.4729,0 25.724,0 0,25.725 0,57.475 c 0,31.75 25.724,57.475 57.4729,57.475 6.6581,0 13.0513,-1.131 18.9978,-3.212 6.89,2.921 14.4686,4.537 22.4256,4.537 31.7487,0 57.4727,-25.725 57.4727,-57.475 0,-31.75 -25.724,-57.475 -57.4727,-57.475 -6.6603,0 -13.0554,1.13211 -19.0036,3.21445 z m -0.2778,8.72235 c 16.1816,8.1341 27.3061,24.8944 27.3061,44.2132 0,20.4374 -12.45,38.0114 -30.1667,45.538 C 60.5727,94.8791 49.4482,78.1188 49.4482,58.8 c 0,-20.4374 12.45,-38.0114 30.1667,-45.5382 z M 69.3763,9.4721 C 52.6289,19.5144 41.4235,37.845 41.4235,58.8 c 0,19.6388 9.8419,36.9724 24.8639,47.339 -2.8609,0.516 -5.8067,0.786 -8.8145,0.786 -27.274,0 -49.4482,-22.2 -49.4482,-49.45 0,-27.25 22.1742,-49.45 49.4482,-49.45 4.1025,0 8.0897,0.50174 11.9034,1.4471 z m 20.6968,0.6657 c 15.0219,10.3666 24.8729,27.6994 24.8729,47.3372 0,20.955 -11.206,39.2856 -27.9531,49.328 3.8137,0.945 7.8009,1.447 11.9034,1.447 27.2737,0 49.4477,-22.175 49.4477,-49.45 0,-27.275 -22.174,-49.45 -49.4477,-49.45 -3.0108,0 -5.9596,0.27024 -8.8232,0.7878 z"
     fill="url(#paint7_radial_120_29)"
     fill-opacity="0.2"
     id="path379"
     style="fill:url(#paint7_radial_120_29)" />
  <defs
     id="defs533">
    <linearGradient
       id="paint0_linear_120_29"
       x1="421.08401"
       y1="-71.385498"
       x2="421.08401"
       y2="220.03"
       gradientUnits="userSpaceOnUse">
      <stop
         offset="0.0356506"
         stop-color="white"
         stop-opacity="0"
         id="stop423" />
      <stop
         offset="0.690702"
         stop-color="#02020E"
         id="stop425" />
    </linearGradient>
    <radialGradient
       id="paint1_radial_120_29"
       cx="0"
       cy="0"
       r="1"
       gradientUnits="userSpaceOnUse"
       gradientTransform="matrix(0,-370.482,2080.05,0,421.084,251.205)">
      <stop
         stop-color="#E18835"
         id="stop428" />
      <stop
         offset="1"
         stop-color="#010102"
         stop-opacity="0"
         id="stop430" />
    </radialGradient>
    <linearGradient
       id="paint2_linear_120_29"
       x1="421.08401"
       y1="-71.385498"
       x2="421.08401"
       y2="220.03"
       gradientUnits="userSpaceOnUse">
      <stop
         offset="0.0356506"
         stop-color="white"
         stop-opacity="0"
         id="stop433" />
      <stop
         offset="0.690702"
         stop-color="#02020E"
         id="stop435" />
    </linearGradient>
    <radialGradient
       id="paint3_radial_120_29"
       cx="0"
       cy="0"
       r="1"
       gradientUnits="userSpaceOnUse"
       gradientTransform="matrix(0,-370.482,2080.05,0,421.084,251.205)">
      <stop
         stop-color="#E18835"
         id="stop438" />
      <stop
         offset="1"
         stop-color="#010102"
         stop-opacity="0"
         id="stop440" />
    </radialGradient>
    <linearGradient
       id="paint4_linear_120_29"
       x1="421.08401"
       y1="-71.385498"
       x2="421.08401"
       y2="220.03"
       gradientUnits="userSpaceOnUse">
      <stop
         offset="0.0356506"
         stop-color="white"
         stop-opacity="0"
         id="stop443" />
      <stop
         offset="0.690702"
         stop-color="#02020E"
         id="stop445" />
    </linearGradient>
    <radialGradient
       id="paint5_radial_120_29"
       cx="0"
       cy="0"
       r="1"
       gradientUnits="userSpaceOnUse"
       gradientTransform="matrix(0,-370.482,2080.05,0,421.084,251.205)">
      <stop
         stop-color="#E18835"
         id="stop448" />
      <stop
         offset="1"
         stop-color="#010102"
         stop-opacity="0"
         id="stop450" />
    </radialGradient>
    <linearGradient
       id="paint6_linear_120_29"
       x1="421.08401"
       y1="-71.385498"
       x2="421.08401"
       y2="220.03"
       gradientUnits="userSpaceOnUse">
      <stop
         offset="0.0356506"
         stop-color="white"
         stop-opacity="0"
         id="stop453" />
      <stop
         offset="0.690702"
         stop-color="#02020E"
         id="stop455" />
    </linearGradient>
    <radialGradient
       id="paint7_radial_120_29"
       cx="0"
       cy="0"
       r="1"
       gradientUnits="userSpaceOnUse"
       gradientTransform="matrix(0,-370.482,2080.05,0,421.084,251.205)">
      <stop
         stop-color="#E18835"
         id="stop458" />
      <stop
         offset="1"
         stop-color="#010102"
         stop-opacity="0"
         id="stop460" />
    </radialGradient>
    <linearGradient
       id="paint8_linear_120_29"
       x1="421.08401"
       y1="-71.385498"
       x2="421.08401"
       y2="220.03"
       gradientUnits="userSpaceOnUse">
      <stop
         offset="0.0356506"
         stop-color="white"
         stop-opacity="0"
         id="stop463" />
      <stop
         offset="0.690702"
         stop-color="#02020E"
         id="stop465" />
    </linearGradient>
    <radialGradient
       id="paint9_radial_120_29"
       cx="0"
       cy="0"
       r="1"
       gradientUnits="userSpaceOnUse"
       gradientTransform="matrix(0,-370.482,2080.05,0,421.084,251.205)">
      <stop
         stop-color="#E18835"
         id="stop468" />
      <stop
         offset="1"
         stop-color="#010102"
         stop-opacity="0"
         id="stop470" />
    </radialGradient>
    <linearGradient
       id="paint10_linear_120_29"
       x1="421.08401"
       y1="-71.385498"
       x2="421.08401"
       y2="220.03"
       gradientUnits="userSpaceOnUse">
      <stop
         offset="0.0356506"
         stop-color="white"
         stop-opacity="0"
         id="stop473" />
      <stop
         offset="0.690702"
         stop-color="#02020E"
         id="stop475" />
    </linearGradient>
    <radialGradient
       id="paint11_radial_120_29"
       cx="0"
       cy="0"
       r="1"
       gradientUnits="userSpaceOnUse"
       gradientTransform="matrix(0,-370.482,2080.05,0,421.084,251.205)">
      <stop
         stop-color="#E18835"
         id="stop478" />
      <stop
         offset="1"
         stop-color="#010102"
         stop-opacity="0"
         id="stop480" />
    </radialGradient>
    <linearGradient
       id="paint12_linear_120_29"
       x1="421.08401"
       y1="-71.385498"
       x2="421.08401"
       y2="220.03"
       gradientUnits="userSpaceOnUse">
      <stop
         offset="0.0356506"
         stop-color="white"
         stop-opacity="0"
         id="stop483" />
      <stop
         offset="0.690702"
         stop-color="#02020E"
         id="stop485" />
    </linearGradient>
    <radialGradient
       id="paint13_radial_120_29"
       cx="0"
       cy="0"
       r="1"
       gradientUnits="userSpaceOnUse"
       gradientTransform="matrix(0,-370.482,2080.05,0,421.084,251.205)">
      <stop
         stop-color="#E18835"
         id="stop488" />
      <stop
         offset="1"
         stop-color="#010102"
         stop-opacity="0"
         id="stop490" />
    </radialGradient>
    <linearGradient
       id="paint14_linear_120_29"
       x1="421.08401"
       y1="-71.385498"
       x2="421.08401"
       y2="220.03"
       gradientUnits="userSpaceOnUse">
      <stop
         offset="0.0356506"
         stop-color="white"
         stop-opacity="0"
         id="stop493" />
      <stop
         offset="0.690702"
         stop-color="#02020E"
         id="stop495" />
    </linearGradient>
    <radialGradient
       id="paint15_radial_120_29"
       cx="0"
       cy="0"
       r="1"
       gradientUnits="userSpaceOnUse"
       gradientTransform="matrix(0,-370.482,2080.05,0,421.084,251.205)">
      <stop
         stop-color="#E18835"
         id="stop498" />
      <stop
         offset="1"
         stop-color="#010102"
         stop-opacity="0"
         id="stop500" />
    </radialGradient>
    <linearGradient
       id="paint16_linear_120_29"
       x1="421.08401"
       y1="-71.385498"
       x2="421.08401"
       y2="220.03"
       gradientUnits="userSpaceOnUse">
      <stop
         offset="0.0356506"
         stop-color="white"
         stop-opacity="0"
         id="stop503" />
      <stop
         offset="0.690702"
         stop-color="#02020E"
         id="stop505" />
    </linearGradient>
    <radialGradient
       id="paint17_radial_120_29"
       cx="0"
       cy="0"
       r="1"
       gradientUnits="userSpaceOnUse"
       gradientTransform="matrix(0,-370.482,2080.05,0,421.084,251.205)">
      <stop
         stop-color="#E18835"
         id="stop508" />
      <stop
         offset="1"
         stop-color="#010102"
         stop-opacity="0"
         id="stop510" />
    </radialGradient>
    <linearGradient
       id="paint18_linear_120_29"
       x1="421.08401"
       y1="-71.385498"
       x2="421.08401"
       y2="220.03"
       gradientUnits="userSpaceOnUse">
      <stop
         offset="0.0356506"
         stop-color="white"
         stop-opacity="0"
         id="stop513" />
      <stop
         offset="0.690702"
         stop-color="#02020E"
         id="stop515" />
    </linearGradient>
    <radialGradient
       id="paint19_radial_120_29"
       cx="0"
       cy="0"
       r="1"
       gradientUnits="userSpaceOnUse"
       gradientTransform="matrix(0,-370.482,2080.05,0,421.084,251.205)">
      <stop
         stop-color="#E18835"
         id="stop518" />
      <stop
         offset="1"
         stop-color="#010102"
         stop-opacity="0"
         id="stop520" />
    </radialGradient>
    <linearGradient
       id="paint20_linear_120_29"
       x1="421.08401"
       y1="-71.385498"
       x2="421.08401"
       y2="220.03"
       gradientUnits="userSpaceOnUse">
      <stop
         offset="0.0356506"
         stop-color="white"
         stop-opacity="0"
         id="stop523" />
      <stop
         offset="0.690702"
         stop-color="#02020E"
         id="stop525" />
    </linearGradient>
    <radialGradient
       id="paint21_radial_120_29"
       cx="0"
       cy="0"
       r="1"
       gradientUnits="userSpaceOnUse"
       gradientTransform="matrix(0,-370.482,2080.05,0,421.084,251.205)">
      <stop
         stop-color="#E18835"
         id="stop528" />
      <stop
         offset="1"
         stop-color="#010102"
         stop-opacity="0"
         id="stop530" />
    </radialGradient>
  </defs>
</svg>
