<svg width="48" height="48" viewBox="0 0 48 48" fill="none" xmlns="http://www.w3.org/2000/svg">
  <g clip-path="url(#clip0_1457_30433)">
    <path
      d="M24 48C37.26 48 48 37.26 48 24C48 10.74 37.26 0 24 0C10.74 0 0 10.74 0 24C0 37.26 10.74 48 24 48Z"
      fill="url(#paint0_radial_1457_30433)"
    />
    <path
      d="M36.3597 15.26C36.2797 14.42 35.8397 13.64 35.1597 13.12C34.4797 12.62 33.5997 12.42 32.7597 12.6C32.3797 12.68 31.9797 12.88 31.1997 13.26C30.5597 13.58 30.2397 13.74 29.9197 13.88C28.5997 14.4 27.1597 14.5 25.7797 14.18C25.4397 14.1 25.0997 13.98 24.4197 13.76L23.3197 13.4C20.7797 12.56 19.5197 12.14 18.2597 12.36C17.0597 12.58 15.9797 13.22 15.2397 14.18C14.4397 15.18 14.2197 16.52 13.7797 19.14L11.7997 31.08C11.6597 31.96 11.5797 32.36 11.6197 32.74C11.6997 33.58 12.1397 34.36 12.8197 34.88C13.4997 35.38 14.3797 35.58 15.1997 35.4C15.5797 35.32 15.9797 35.12 16.7997 34.7C17.4197 34.4 17.7197 34.24 18.0397 34.12C19.3597 33.6 20.7997 33.5 22.1797 33.82C22.5197 33.9 22.8597 34.02 23.5397 34.24L24.6397 34.6C26.7197 35.28 27.9397 35.7 29.0197 35.7C29.2597 35.7 29.4797 35.7 29.7197 35.64C30.9197 35.42 31.9997 34.78 32.7397 33.82C33.5397 32.82 33.7597 31.5 34.1997 28.86L36.1797 16.94C36.3197 16.06 36.3997 15.64 36.3597 15.26Z"
      fill="white"
    />
  </g>
  <defs>
    <radialGradient
      id="paint0_radial_1457_30433"
      cx="0"
      cy="0"
      r="1"
      gradientUnits="userSpaceOnUse"
      gradientTransform="translate(24) rotate(90) scale(48)"
    >
      <stop stop-color="#99EEFF" />
      <stop offset="0.526042" stop-color="#BB33FF" />
      <stop offset="0.864583" stop-color="#2200CC" />
      <stop offset="1" stop-color="#00AACC" />
    </radialGradient>
    <clipPath id="clip0_1457_30433">
      <rect width="48" height="48" fill="white" />
    </clipPath>
  </defs>
</svg>
