<svg width="240" height="240" viewBox="0 0 240 240" fill="none" xmlns="http://www.w3.org/2000/svg">
  <path
    d="M199.548 128.551C199.847 125.742 200 122.889 200 120C200 75.8172 164.183 40 120 40C75.8172 40 40 75.8172 40 120C40 122.905 40.1549 125.774 40.4568 128.599L102 134.94V93C102 83.0589 110.059 75 120 75C129.941 75 138 83.0589 138 93V134.889L199.548 128.551Z"
    fill="white"
  />
  <path
    d="M196.91 142.096L138 138.316V145.089L192.816 153.18C194.442 149.618 195.814 145.915 196.91 142.096Z"
    fill="white"
  />
  <path
    d="M186.477 164.522L138 148.755V155.493L180.292 172.583C182.518 170.033 184.585 167.341 186.477 164.522Z"
    fill="white"
  />
  <path
    d="M170.817 181.79L137.498 160.236C136.949 162.513 135.967 164.62 134.645 166.467L162.771 187.618C165.576 185.841 168.263 183.893 170.817 181.79Z"
    fill="white"
  />
  <path
    d="M150.798 193.857L131.129 170.148C129.451 171.47 127.533 172.499 125.45 173.16L140.806 197.268C144.233 196.347 147.569 195.205 150.798 193.857Z"
    fill="white"
  />
  <path
    d="M128.343 199.57L121.285 173.955C120.86 173.985 120.432 174 120 174C119.42 174 118.846 173.973 118.28 173.919L111.224 199.524C114.106 199.839 117.034 200 120 200C122.817 200 125.601 199.854 128.343 199.57Z"
    fill="white"
  />
  <path
    d="M98.8144 197.165L114.182 173.039C112.131 172.339 110.246 171.279 108.603 169.934L88.8722 193.718C92.0845 195.076 95.404 196.231 98.8144 197.165Z"
    fill="white"
  />
  <path
    d="M76.9875 187.465L105.2 166.249C103.908 164.387 102.959 162.269 102.443 159.986L68.9877 181.629C71.5269 183.733 74.1983 185.683 76.9875 187.465Z"
    fill="white"
  />
  <path
    d="M59.5917 172.45L102 155.314V148.61L53.4436 164.403C55.3244 167.216 57.3789 169.904 59.5917 172.45Z"
    fill="white"
  />
  <path
    d="M47.1557 153.119L102 145.024V138.284L43.0821 142.067C44.1725 145.874 45.538 149.566 47.1557 153.119Z"
    fill="white"
  />
</svg>
