<svg width="48" height="48" viewBox="0 0 48 48" fill="none" xmlns="http://www.w3.org/2000/svg">
  <path
    d="M16.5771 45.7601L18.0819 37.784L20.2419 38.1885L19.9803 39.5793L20.0619 39.5961C20.2584 39.1716 20.5911 38.8245 21.0075 38.6099C21.3982 38.419 21.8413 38.3626 22.2675 38.4495C22.3874 38.4728 22.506 38.5023 22.6227 38.538C22.7346 38.5714 22.8444 38.6114 22.9515 38.6577L22.5699 40.6254C22.4367 40.5583 22.2977 40.5031 22.1547 40.4602C21.9915 40.4051 21.8248 40.3611 21.6555 40.3286C21.3525 40.2655 21.0383 40.282 20.7435 40.3765C20.4638 40.4666 20.2146 40.6324 20.0235 40.8552C19.8238 41.0895 19.6912 41.3731 19.6395 41.6763L18.7875 46.1886L16.5771 45.7601Z"
    fill="#F35B11"
  />
  <path
    d="M26.7943 46.4136C26.3304 46.523 25.8486 46.5328 25.3807 46.4423C24.9608 46.3591 24.5746 46.1553 24.2695 45.8558C23.9836 45.534 23.7777 45.1497 23.6685 44.7338C23.5593 44.3179 23.5497 43.8823 23.6407 43.462C23.7347 43.1357 23.9087 42.8379 24.1471 42.5955C24.4002 42.344 24.6929 42.1354 25.0135 41.9779C25.3612 41.801 25.7233 41.6536 26.0959 41.5374C26.5471 41.389 26.9095 41.2621 27.1831 41.1568C27.395 41.0896 27.5905 40.9787 27.7567 40.8313C27.8103 40.7762 27.8487 40.7082 27.868 40.634C27.8874 40.5597 27.887 40.4817 27.8671 40.4076V40.3764C27.8436 40.2328 27.7884 40.0962 27.7054 39.9765C27.6223 39.8568 27.5136 39.7571 27.3871 39.6846C27.0974 39.5438 26.7657 39.5148 26.4559 39.6033C26.1161 39.6582 25.8035 39.8221 25.5655 40.07C25.3759 40.2782 25.2618 40.5437 25.2415 40.8241L23.1655 41.1042C23.1571 40.6183 23.2745 40.1384 23.5063 39.711C23.7458 39.2771 24.0897 38.9094 24.5071 38.641C24.9972 38.3238 25.5439 38.1036 26.1175 37.9922C26.5459 37.8978 26.9845 37.8568 27.4231 37.8702C27.8293 37.8799 28.2306 37.9609 28.6087 38.1095C28.9691 38.2552 29.2887 38.486 29.5399 38.7822C29.8137 39.1164 29.9986 39.514 30.0775 39.9384L31.2439 45.2885L29.1511 45.7409L28.9111 44.6398L28.8511 44.6541C28.7759 44.9296 28.6498 45.1886 28.4791 45.4178C28.2956 45.6612 28.0666 45.8669 27.8047 46.0234C27.4925 46.2098 27.1508 46.3417 26.7943 46.4136ZM27.0967 44.7595C27.3959 44.7015 27.6762 44.5707 27.9127 44.3788C28.1276 44.208 28.2932 43.9833 28.3927 43.7277C28.4845 43.4737 28.5012 43.1986 28.4407 42.9354L28.2583 42.0928C28.181 42.1644 28.0947 42.2256 28.0015 42.2747C27.8786 42.3432 27.752 42.4048 27.6223 42.459C27.4807 42.5213 27.3367 42.5787 27.1927 42.6338L26.8039 42.7798C26.5772 42.8617 26.3619 42.9719 26.1631 43.1078C26.0021 43.2163 25.8722 43.3648 25.7863 43.5386C25.7079 43.7122 25.691 43.9072 25.7383 44.0916C25.76 44.2258 25.8154 44.3524 25.8993 44.4595C25.9833 44.5666 26.093 44.6509 26.2183 44.7044C26.5007 44.8171 26.812 44.8364 27.1063 44.7595H27.0967Z"
    fill="#F35B11"
  />
  <path
    d="M33.8741 38.3202L36.9941 41.8414L35.2973 43.328L29.9141 37.2334L31.5293 35.8187L32.4773 36.8935L32.5469 36.8312C32.3716 36.3717 32.3497 35.8679 32.4845 35.395C32.6408 34.8755 32.9482 34.414 33.3677 34.0688C33.7477 33.7179 34.2165 33.4771 34.7237 33.3722C35.2077 33.2798 35.7082 33.3306 36.1637 33.5182C36.6832 33.7391 37.143 34.0795 37.5053 34.5117L40.9253 38.392L39.2309 39.8785L36.0773 36.2879C35.8179 35.9523 35.4388 35.7294 35.0189 35.6655C34.822 35.6486 34.6238 35.6743 34.4379 35.7408C34.2519 35.8073 34.0825 35.9131 33.9413 36.0509C33.7248 36.2301 33.5593 36.4629 33.4613 36.7259C33.3728 36.9779 33.3619 37.2505 33.4301 37.5087C33.512 37.8102 33.6641 38.0883 33.8741 38.3202Z"
    fill="#F35B11"
  />
  <path
    d="M47.6545 32.1442C47.4636 32.7508 47.1653 33.3183 46.7737 33.8199C46.4664 34.2129 46.071 34.5285 45.6193 34.7415C45.228 34.919 44.7968 34.9908 44.3689 34.9498L44.7673 32.8887C44.941 32.8705 45.1096 32.8193 45.2641 32.7379C45.451 32.6333 45.6143 32.4915 45.7441 32.3214C45.9174 32.0976 46.049 31.8446 46.1329 31.5745C46.2871 31.1709 46.3065 30.7284 46.1881 30.313C46.0697 29.938 45.7577 29.6651 45.2521 29.4943L43.8409 29.0156L43.8121 29.1065C44.0038 29.2851 44.1615 29.4968 44.2777 29.7313C44.4107 30.0053 44.4867 30.3033 44.5009 30.6074C44.5139 30.9862 44.4545 31.364 44.3257 31.7205C44.1466 32.2735 43.8236 32.7691 43.3897 33.1568C42.935 33.5541 42.3701 33.8045 41.7697 33.8749C41.0042 33.9523 40.2311 33.8515 39.5113 33.5805C38.7503 33.3532 38.051 32.9561 37.4665 32.4195C37.0089 31.9962 36.6852 31.4487 36.5353 30.8444C36.4029 30.2803 36.4329 29.6903 36.6217 29.1424C36.7359 28.7658 36.9364 28.4207 37.2073 28.1347C37.427 27.9073 37.693 27.7293 37.9873 27.6128C38.2354 27.5141 38.4951 27.4473 38.7601 27.4141L38.7889 27.3327L37.4929 26.8971L38.2129 24.781L45.9985 27.3974C46.5776 27.5719 47.0834 27.931 47.4385 28.4195C47.7804 28.9122 47.9706 29.4938 47.9857 30.0928C48.003 30.7911 47.8907 31.4866 47.6545 32.1442ZM42.9457 30.5141C43.0592 30.2068 43.0718 29.8715 42.9817 29.5566C42.8774 29.2414 42.684 28.9629 42.4249 28.7546C42.0994 28.4934 41.7272 28.296 41.3281 28.173C40.9297 28.0293 40.5084 27.9595 40.0849 27.9671C39.744 27.9718 39.4112 28.0721 39.1249 28.2567C38.8509 28.447 38.6489 28.7235 38.5513 29.0419C38.4341 29.3578 38.429 29.7042 38.5369 30.0233C38.657 30.3438 38.8649 30.6241 39.1369 30.8324C39.4651 31.0878 39.8366 31.2824 40.2337 31.407C40.6234 31.548 41.036 31.6154 41.4505 31.6056C41.7829 31.5996 42.1064 31.4973 42.3817 31.3112C42.6516 31.1138 42.8496 30.8339 42.9457 30.5141Z"
    fill="#F35B11"
  />
  <path
    d="M45.6238 19.1795C45.7847 19.9127 45.7508 20.6752 45.5254 21.3913C45.3083 22.0392 44.9021 22.6077 44.359 23.0239C43.7372 23.4681 43.026 23.7722 42.2747 23.9152C41.5234 24.0582 40.7499 24.0367 40.0078 23.8522C39.3464 23.665 38.7526 23.2928 38.2966 22.7797C37.8212 22.2277 37.5066 21.5563 37.387 20.8384C37.2866 20.3375 37.2769 19.8227 37.3582 19.3183C37.4366 18.8395 37.6175 18.3831 37.8886 17.9802C38.1789 17.5573 38.5592 17.2034 39.0022 16.9437C39.5361 16.634 40.1214 16.4223 40.7302 16.3189L41.3398 16.2016L42.6262 22.9353L41.251 23.1963L40.363 18.5451C40.0659 18.5959 39.7871 18.7229 39.5542 18.9138C39.3342 19.0937 39.1681 19.3305 39.0742 19.5984C38.9792 19.8849 38.9627 20.1915 39.0262 20.4865C39.0795 20.7995 39.2181 21.0919 39.427 21.3315C39.625 21.5531 39.8784 21.7184 40.1614 21.8103C40.4531 21.9061 40.7644 21.9266 41.0662 21.8701L42.3718 21.6307C42.7287 21.573 43.0662 21.4301 43.3558 21.2142C43.6103 21.0241 43.8017 20.7623 43.9054 20.4626C44.0122 20.1389 44.0304 19.7926 43.9582 19.4596C43.9153 19.2291 43.8342 19.0075 43.7182 18.8037C43.6169 18.6209 43.4768 18.4625 43.3078 18.3393C43.1378 18.2162 42.9414 18.1342 42.7342 18.0999L42.4774 16.0293C42.9801 16.0322 43.473 16.1685 43.9054 16.4242C44.3484 16.6909 44.7217 17.0584 44.995 17.4967C45.3102 18.0125 45.5236 18.5837 45.6238 19.1795Z"
    fill="#F35B11"
  />
  <path
    d="M12.5255 34.1431C11.0487 32.6724 9.90032 30.9069 9.15574 28.9624C8.41117 27.0179 8.08721 24.9384 8.20512 22.8602C8.32304 20.7821 8.88016 18.7523 9.83994 16.904C10.7997 15.0557 12.1405 13.4307 13.7742 12.1356C15.408 10.8405 17.2978 9.90462 19.3197 9.38929C21.3416 8.87396 23.4499 8.79085 25.5063 9.14542C27.5627 9.49998 29.5207 10.2842 31.2518 11.4467C32.9829 12.6091 34.4481 14.1235 35.5511 15.8905L42.5111 11.5577C40.6381 8.56887 38.1 6.05058 35.0936 4.19824C32.0871 2.3459 28.6932 1.20931 25.1752 0.876633C21.6572 0.543961 18.1097 1.02416 14.8078 2.27997C11.5059 3.53578 8.53849 5.53344 6.13575 8.11796C3.73302 10.7025 1.95956 13.8044 0.952978 17.183C-0.0536049 20.5616 -0.266253 24.1261 0.331533 27.6C0.929318 31.0738 2.32146 34.3636 4.39997 37.2141C6.47847 40.0645 9.18744 42.3991 12.3167 44.0366L16.1255 36.7954C14.7971 36.0993 13.5831 35.2049 12.5255 34.1431Z"
    fill="#F35B11"
  />
</svg>
