<svg width="49" height="48" viewBox="0 0 49 48" fill="none" xmlns="http://www.w3.org/2000/svg">
  <path
    fill-rule="evenodd"
    clip-rule="evenodd"
    d="M4.53612 35.0492H10.039V31.1503H6.50522V6.02567H27.078C32.647 6.02567 36.5388 9.13557 38.7334 13.4589C39.9528 15.9271 40.678 18.6099 40.8682 21.3564C41.0927 24.1588 40.8051 26.9787 40.0196 29.6782C38.4947 34.7708 35.0406 38.9416 29.7365 39.8698C27.6869 40.1213 25.6196 40.1946 23.5575 40.0887C22.4502 40.0489 21.3032 40.0489 20.753 40.0489V43.9678H23.4978C25.8016 44.0903 28.1119 44.0014 30.3996 43.7025C37.394 42.4892 41.8428 37.2042 43.7655 30.7788C44.7057 27.6252 45.0606 24.3262 44.8129 21.0447C44.5815 17.7815 43.7167 14.5946 42.2671 11.6619C39.4361 6.06545 34.4107 2.08691 27.1176 2.08691H2.58691V35.0492H4.53612ZM26.1032 11.1108H12.1802L12.1603 15.0562H12.1802V31.1294H12.1603V35.0352H12.1802V40.0812L2.79882 40.0282L2.81208 43.9338L14.1426 43.9736L16.0985 43.9538V35.0465C20.2911 35.0544 24.2746 35.0473 25.1615 35.002H25.3604L25.3761 35.0012C28.0876 34.8747 35.6236 34.523 35.6236 23.2718C35.5971 11.7739 26.1361 11.1108 26.1032 11.1108ZM16.0985 31.1294H24.9626H25.1682C26.892 31.0499 31.7252 30.8245 31.7121 23.305C31.7121 15.9646 26.5738 15.1358 25.8842 15.0562H16.0985V31.1294Z"
    fill="#FEFEFE"
  />
</svg>
