<svg width="48" height="48" viewBox="0 0 48 48" fill="none" xmlns="http://www.w3.org/2000/svg">
  <g id="Issuers_logo">
    <path
      id="Vector"
      fill-rule="evenodd"
      clip-rule="evenodd"
      d="M4.03612 35.0492H9.53898V31.1504H6.00522V6.02573H26.578C32.147 6.02573 36.0388 9.13563 38.2334 13.459C39.4528 15.9271 40.178 18.6099 40.3682 21.3564C40.5927 24.1589 40.3051 26.9788 39.5196 29.6782C37.9947 34.7708 34.5406 38.9416 29.2365 39.8699C27.1869 40.1214 25.1196 40.1946 23.0575 40.0888C21.9502 40.049 20.8032 40.049 20.253 40.049V43.9678H22.9978C25.3016 44.0903 27.6119 44.0014 29.8996 43.7026C36.894 42.4892 41.3428 37.2042 43.2655 30.7789C44.2057 27.6253 44.5606 24.3262 44.3129 21.0448C44.0815 17.7815 43.2167 14.5946 41.7671 11.662C38.9361 6.06551 33.9107 2.08698 26.6176 2.08698H2.08691V35.0492H4.03612ZM25.6032 11.1109H11.6802L11.6603 15.0562H11.6802V31.1295H11.6603V35.0352H11.6802V40.0813L2.29882 40.0283L2.31208 43.9338L13.6426 43.9737L15.5985 43.9539V35.0465C19.7911 35.0544 23.7746 35.0473 24.6615 35.0021H24.8604L24.8761 35.0012C27.5876 34.8748 35.1236 34.5231 35.1236 23.2719C35.0971 11.7739 25.6361 11.1109 25.6032 11.1109ZM15.5985 31.1295H24.4626H24.6682C26.392 31.05 31.2252 30.8246 31.2121 23.3051C31.2121 15.9647 26.0738 15.1358 25.3842 15.0562H15.5985V31.1295Z"
      fill="#0D0D12"
    />
  </g>
</svg>
