<?xml version="1.0" encoding="UTF-8"?>
<svg id="Layer_1" data-name="Layer 1" xmlns="http://www.w3.org/2000/svg" version="1.1" viewBox="0 0 183 183">
  <defs>
    <style>
      .cls-1 {
        fill: none;
      }

      .cls-1,
      .cls-2 {
        stroke-width: 0px;
      }

      .cls-2 {
        fill: #fd4c00;
      }
    </style>
  </defs>
  <path class="cls-1" d="M115.5,181h22.5v-22.5c0,12.4-10.1,22.5-22.5,22.5Z" />
  <path class="cls-1" d="M115.5,1c12.4,0,22.5,10.1,22.5,22.5V1h-22.5Z" />
  <g>
    <path class="cls-1" d="M1.5,159v22.5h22.5c-12.4,0-22.5-10.1-22.5-22.5Z" />
    <path class="cls-1" d="M24,1.5H1.5v22.5C1.5,11.6,11.6,1.5,24,1.5Z" />
    <path
      class="cls-2"
      d="M159,1.5H24C11.6,1.5,1.5,11.6,1.5,24v135c0,12.4,10.1,22.5,22.5,22.5h135c12.4,0,22.5-10.1,22.5-22.5V24c0-12.4-10.1-22.5-22.5-22.5ZM51,145.5v6.8c0,3.7-3,6.8-6.8,6.8h-13.5c-3.7,0-6.8-3-6.8-6.8v-13.5c0-3.7,3-6.8,6.8-6.8h6.8c6.2,0,10.3-2.8,12.2-4.4,0,0,15.9-15.5,17.7-17.7,1.2-1.4,3.6-3.5,3.6-18.6s9.1-20.2,20.2-20.2,20.2,9.1,20.2,20.2-9.5,20.2-20.2,20.2-14.4.4-17.9,3.8h0l-16.9,16.9s-5.5,5-5.5,13.2h.1ZM159,145.5c0,7.5-6.1,13.5-13.5,13.5h-81v-13.5c0-7.5,6-13.5,13.5-13.5h54V51H51c-7.5,0-13.5-6-13.5-13.5v-13.5h108c7.5,0,13.5,6.1,13.5,13.5v108Z"
    />
  </g>
</svg>
