<svg width="695" height="694" viewBox="0 0 695 694" fill="none" xmlns="http://www.w3.org/2000/svg">
  <path
    d="M220.272 693.746C143.435 693.746 105.017 693.746 75.6694 678.793C49.8544 665.64 28.8661 644.651 15.7127 618.836C0.759293 589.489 0.759292 551.07 0.759288 474.233L0.759277 219.767C0.759274 142.93 0.759273 104.512 15.7127 75.164C28.8661 49.349 49.8544 28.3608 75.6694 15.2073C105.017 0.253922 143.435 0.253921 220.272 0.253917L474.739 0.253906C551.576 0.253903 589.994 0.253901 619.342 15.2073C645.157 28.3607 666.145 49.349 679.298 75.164C694.252 104.512 694.252 142.93 694.252 219.767V474.233C694.252 551.07 694.252 589.488 679.298 618.836C666.145 644.651 645.157 665.64 619.342 678.793C589.994 693.746 551.576 693.746 474.739 693.746H220.272Z"
    fill="#93F558"
  />
  <path
    d="M368.416 567.541C426.445 567.541 482.097 544.489 523.13 503.456C564.162 462.424 587.214 406.771 587.214 348.742C587.214 290.714 564.162 235.061 523.13 194.029C482.097 152.996 426.445 129.944 368.416 129.944L368.416 348.742L368.416 567.541Z"
    fill="#131313"
  />
  <rect x="185.032" y="302.062" width="86.7233" height="265.479" fill="#131313" />
  <circle cx="227.967" cy="186.567" r="56.6226" fill="#131313" />
</svg>
