<svg width="114" height="114" viewBox="0 0 114 114" fill="none" xmlns="http://www.w3.org/2000/svg">
  <g clip-path="url(#clip0_452_298)">
    <rect width="114" height="114" rx="12" fill="#121212" />
    <path
      d="M12.8868 41.7725L23.2543 39.699C23.6356 41.987 24.6366 43.7745 26.2573 45.0615C27.9256 46.3008 30.1183 46.9205 32.8353 46.9205C35.2663 46.9205 37.2444 46.3723 38.7698 45.276C40.3428 44.132 41.1293 42.7258 41.1293 41.0575C41.1293 39.7705 40.6288 38.698 39.6278 37.84C38.6268 36.9343 37.3159 36.2193 35.6953 35.695C34.1223 35.1707 32.3824 34.6702 30.4758 34.1935C28.5691 33.7168 26.6386 33.121 24.6843 32.406C22.7776 31.691 21.0139 30.833 19.3933 29.832C17.8203 28.831 16.5333 27.4248 15.5323 25.6135C14.5313 23.7545 14.0308 21.5618 14.0308 19.0355C14.0308 14.8408 15.7944 11.3373 19.3218 8.525C22.8968 5.665 27.2583 4.235 32.4063 4.235C37.6019 4.235 41.8919 5.522 45.2763 8.096C48.6606 10.67 50.6626 14.0305 51.2823 18.1775L40.9148 20.251C40.5334 18.0583 39.5563 16.3185 37.9833 15.0315C36.4579 13.6968 34.4798 13.0295 32.0488 13.0295C29.8561 13.0295 28.0686 13.5538 26.6863 14.6025C25.3039 15.6035 24.6128 16.8905 24.6128 18.4635C24.6128 19.7028 25.1133 20.7515 26.1143 21.6095C27.1153 22.4198 28.4023 23.0872 29.9753 23.6115C31.5959 24.0882 33.3596 24.5648 35.2663 25.0415C37.1729 25.5182 39.0796 26.1378 40.9863 26.9005C42.9406 27.6155 44.7043 28.4973 46.2773 29.546C47.8979 30.5947 49.2088 32.0723 50.2098 33.979C51.2108 35.8857 51.7113 38.1498 51.7113 40.7715C51.7113 45.0138 49.8523 48.565 46.1343 51.425C42.4639 54.285 37.9356 55.715 32.5493 55.715C27.1629 55.715 22.7061 54.4518 19.1788 51.9255C15.6514 49.3992 13.5541 46.0148 12.8868 41.7725Z"
      fill="white"
    />
    <path
      d="M60.5113 96.5298L70.8788 94.4563C71.2601 96.7443 72.2611 98.5318 73.8818 99.8188C75.5501 101.058 77.7428 101.678 80.4598 101.678C82.8908 101.678 84.8689 101.13 86.3943 100.033C87.9673 98.8893 88.7538 97.4832 88.7538 95.8148C88.7538 94.5278 88.2533 93.4553 87.2523 92.5973C86.2513 91.6917 84.9404 90.9767 83.3198 90.4523C81.7468 89.928 80.0069 89.4275 78.1003 88.9508C76.1936 88.4742 74.2631 87.8783 72.3088 87.1633C70.4021 86.4483 68.6384 85.5903 67.0178 84.5893C65.4448 83.5883 64.1578 82.1822 63.1568 80.3708C62.1558 78.5118 61.6553 76.3192 61.6553 73.7928C61.6553 69.5982 63.4189 66.0947 66.9463 63.2823C70.5213 60.4223 74.8828 58.9923 80.0308 58.9923C85.2264 58.9923 89.5164 60.2793 92.9008 62.8533C96.2851 65.4273 98.2871 68.7878 98.9068 72.9348L88.5393 75.0083C88.1579 72.8157 87.1808 71.0758 85.6078 69.7888C84.0824 68.4542 82.1043 67.7868 79.6733 67.7868C77.4806 67.7868 75.6931 68.3112 74.3108 69.3598C72.9284 70.3608 72.2373 71.6478 72.2373 73.2208C72.2373 74.4602 72.7378 75.5088 73.7388 76.3668C74.7398 77.1772 76.0268 77.8445 77.5998 78.3688C79.2204 78.8455 80.9841 79.3222 82.8908 79.7988C84.7974 80.2755 86.7041 80.8952 88.6108 81.6578C90.5651 82.3728 92.3288 83.2547 93.9018 84.3033C95.5224 85.352 96.8333 86.8297 97.8343 88.7363C98.8353 90.643 99.3358 92.9072 99.3358 95.5288C99.3358 99.7712 97.4768 103.322 93.7588 106.182C90.0884 109.042 85.5601 110.472 80.1738 110.472C74.7874 110.472 70.3306 109.209 66.8033 106.683C63.2759 104.156 61.1786 100.772 60.5113 96.5298Z"
      fill="white"
    />
    <path
      d="M62.5903 48.42C57.6436 43.5667 55.1703 37.5933 55.1703 30.5C55.1703 23.4067 57.6436 17.4333 62.5903 12.58C67.537 7.72666 73.6503 5.3 80.9303 5.3C88.2103 5.3 94.3236 7.72666 99.2703 12.58C104.217 17.4333 106.69 23.4067 106.69 30.5C106.69 37.5933 104.217 43.5667 99.2703 48.42C94.3236 53.2733 88.2103 55.7 80.9303 55.7C73.6503 55.7 67.537 53.2733 62.5903 48.42ZM69.9403 19.09C67.0003 22.17 65.5303 25.9733 65.5303 30.5C65.5303 35.0267 67.0003 38.83 69.9403 41.91C72.927 44.99 76.5903 46.53 80.9303 46.53C85.317 46.53 88.9803 44.99 91.9203 41.91C94.8603 38.83 96.3303 35.0267 96.3303 30.5C96.3303 25.9733 94.8603 22.17 91.9203 19.09C88.9803 16.01 85.317 14.47 80.9303 14.47C76.5903 14.47 72.927 16.01 69.9403 19.09Z"
      fill="white"
    />
    <path
      d="M35.5721 105.887L49.5021 59.7573H59.6521L43.9721 108.757H26.5421L10.9321 59.7573H21.5721L35.5721 105.887Z"
      fill="white"
    />
  </g>
  <defs>
    <clipPath id="clip0_452_298">
      <rect width="114" height="114" rx="12" fill="white" />
    </clipPath>
  </defs>
</svg>
