<svg width="48" height="30" viewBox="0 0 48 30" fill="none" xmlns="http://www.w3.org/2000/svg">
  <g id="&#233;&#161;&#181;&#233;&#157;&#162;-1">
    <g id="DASHBOARD">
      <g id="logo1">
        <path
          id="&#229;&#189;&#162;&#231;&#138;&#182;&#231;&#187;&#147;&#229;&#144;&#136;"
          fill-rule="evenodd"
          clip-rule="evenodd"
          d="M48.0001 5.40001C48.0001 8.05103 45.8511 10.2 43.2001 10.2C40.5491 10.2 38.4001 8.05103 38.4001 5.40001C38.4001 2.74899 40.5491 0.600006 43.2001 0.600006C45.8511 0.600006 48.0001 2.74899 48.0001 5.40001ZM27.4138 21.2663C28.2707 22.1288 28.8001 23.317 28.8001 24.6289C28.8001 27.2639 26.664 29.4 24.029 29.4C21.3939 29.4 19.2578 27.2639 19.2578 24.6289C19.2578 23.322 19.7833 22.1377 20.6345 21.2761C22.2362 19.6831 23.2129 17.4472 23.2129 15.0099C23.2129 12.6 22.2301 10.3417 20.6599 8.75319H20.663C19.0701 7.15151 16.835 6.17384 14.3976 6.17384C11.9875 6.17384 9.75131 7.1567 8.16279 8.7269C7.29807 9.60088 6.09783 10.1423 4.77132 10.1423C2.13606 10.1423 0 8.00623 0 5.37115C0 2.73607 2.13606 0.600006 4.77132 0.600006C6.0708 0.600006 7.249 1.11958 8.10946 1.96226C9.70409 3.57616 11.9509 4.56754 14.3988 4.56754C16.8337 4.56754 19.0699 3.58912 20.6623 1.99022C21.5252 1.13106 22.715 0.600006 24.029 0.600006C26.664 0.600006 28.8001 2.73607 28.8001 5.37115C28.8001 6.66916 28.2816 7.84625 27.4406 8.70653L27.4243 8.72134C25.8104 10.3156 24.8192 12.5631 24.8192 15.011C24.8192 17.4459 25.8149 19.6739 27.4138 21.2663Z"
          fill="url(#paint0_linear_1457_35491)"
        />
      </g>
    </g>
  </g>
  <defs>
    <linearGradient
      id="paint0_linear_1457_35491"
      x1="5814.94"
      y1="1245.17"
      x2="-1014.93"
      y2="1245.17"
      gradientUnits="userSpaceOnUse"
    >
      <stop stop-color="#3AC0A1" />
      <stop offset="1" stop-color="#9EE19D" />
    </linearGradient>
  </defs>
</svg>
