<svg width="270" height="51" viewBox="0 0 270 51" fill="none" xmlns="http://www.w3.org/2000/svg">
<path d="M1.346 1.39697H30.257V6.70997L10.523 30.17H31.154V36.725H0.518V31.412L20.252 7.95197H1.346V1.39697ZM35.0374 19.13C35.0374 15.496 35.7504 12.322 37.1764 9.60798C38.6484 6.84798 40.6724 4.73197 43.2484 3.25997C45.8704 1.74197 48.8604 0.982975 52.2184 0.982975C55.6224 0.982975 58.6124 1.67297 61.1884 3.05297C63.8104 4.43297 65.8574 6.38797 67.3294 8.91797C68.8474 11.448 69.6294 14.415 69.6754 17.819C69.6754 18.739 69.6064 19.682 69.4684 20.648H42.8344V21.062C43.0184 24.144 43.9844 26.582 45.7324 28.376C47.4804 30.17 49.8034 31.067 52.7014 31.067C55.0014 31.067 56.9334 30.538 58.4974 29.48C60.0614 28.376 61.0964 26.835 61.6024 24.857H69.0544C68.4104 28.445 66.6624 31.389 63.8104 33.689C61.0044 35.989 57.4854 37.139 53.2534 37.139C49.5734 37.139 46.3534 36.403 43.5934 34.931C40.8794 33.413 38.7634 31.297 37.2454 28.583C35.7734 25.869 35.0374 22.718 35.0374 19.13ZM62.0854 15.197C61.7634 12.621 60.7284 10.62 58.9804 9.19397C57.2784 7.72197 55.1164 6.98597 52.4944 6.98597C50.0564 6.98597 47.9404 7.74497 46.1464 9.26297C44.3984 10.735 43.3864 12.713 43.1104 15.197H62.0854ZM95.227 1.39697V8.36597H91.915C88.833 8.36597 86.602 9.37797 85.222 11.402C83.842 13.38 83.152 15.91 83.152 18.992V36.725H75.7V1.39697H82.324L83.152 6.70997C84.164 5.05397 85.475 3.76597 87.085 2.84597C88.695 1.87997 90.857 1.39697 93.571 1.39697H95.227ZM116.656 37.139C113.114 37.139 109.963 36.403 107.203 34.931C104.489 33.413 102.373 31.297 100.855 28.583C99.3828 25.823 98.6468 22.649 98.6468 19.061C98.6468 15.519 99.3828 12.391 100.855 9.67697C102.373 6.91697 104.489 4.77797 107.203 3.25997C109.963 1.74197 113.114 0.982975 116.656 0.982975C120.198 0.982975 123.326 1.74197 126.04 3.25997C128.8 4.77797 130.916 6.91697 132.388 9.67697C133.906 12.391 134.665 15.519 134.665 19.061C134.665 22.649 133.906 25.823 132.388 28.583C130.916 31.297 128.8 33.413 126.04 34.931C123.326 36.403 120.198 37.139 116.656 37.139ZM116.656 30.791C119.784 30.791 122.291 29.71 124.177 27.548C126.109 25.34 127.075 22.511 127.075 19.061C127.075 15.611 126.109 12.805 124.177 10.643C122.291 8.43497 119.784 7.33097 116.656 7.33097C113.528 7.33097 111.021 8.43497 109.135 10.643C107.249 12.805 106.306 15.611 106.306 19.061C106.306 22.511 107.249 25.34 109.135 27.548C111.021 29.71 113.528 30.791 116.656 30.791ZM159.287 0.982975C163.473 0.982975 166.877 2.27097 169.499 4.84697C172.167 7.42297 173.501 11.563 173.501 17.267V36.725H165.98V17.681C165.98 14.323 165.267 11.77 163.841 10.022C162.415 8.27397 160.322 7.39997 157.562 7.39997C154.618 7.39997 152.295 8.43497 150.593 10.505C148.937 12.529 148.109 15.335 148.109 18.923V36.725H140.657V1.39697H147.143L147.971 6.01997C150.639 2.66197 154.411 0.982975 159.287 0.982975ZM184.694 1.39697L194.561 28.652L204.152 1.39697H212.087L196.079 42.245C195.251 44.361 194.492 45.971 193.802 47.075C193.112 48.225 192.261 49.076 191.249 49.628C190.237 50.226 188.88 50.525 187.178 50.525H179.174V43.97H184.418C185.844 43.97 186.833 43.74 187.385 43.28C187.937 42.866 188.512 41.9 189.11 40.382L190.559 37.001L176.759 1.39697H184.694ZM256.635 0.982975C260.499 0.982975 263.65 2.24797 266.088 4.77797C268.526 7.26197 269.745 11.264 269.745 16.784V36.725H262.293V16.853C262.293 13.771 261.672 11.425 260.43 9.81497C259.188 8.20497 257.348 7.39997 254.91 7.39997C252.334 7.39997 250.287 8.31997 248.769 10.16C247.297 11.954 246.561 14.438 246.561 17.612V36.725H239.04V16.853C239.04 13.725 238.396 11.379 237.108 9.81497C235.866 8.20497 234.026 7.39997 231.588 7.39997C229.058 7.39997 227.034 8.34297 225.516 10.229C224.044 12.115 223.308 14.645 223.308 17.819V36.725H215.856V1.39697H222.342L223.17 6.01997C225.7 2.70797 229.15 1.02897 233.52 0.982975C236.004 0.982975 238.189 1.51197 240.075 2.56997C241.961 3.62797 243.41 5.23797 244.422 7.39997C245.664 5.37597 247.297 3.81197 249.321 2.70797C251.345 1.55797 253.783 0.982975 256.635 0.982975Z" fill="#EDDAFF"/>
</svg>
