<?xml version="1.0" encoding="UTF-8" standalone="no"?>
<svg
   version="1.1"
   width="48"
   height="47.734035"
   id="svg2983"
   sodipodi:docname="zeronym-black.svg"
   inkscape:version="1.2.2 (b0a84865, 2022-12-01)"
   xmlns:inkscape="http://www.inkscape.org/namespaces/inkscape"
   xmlns:sodipodi="http://sodipodi.sourceforge.net/DTD/sodipodi-0.dtd"
   xmlns="http://www.w3.org/2000/svg"
   xmlns:svg="http://www.w3.org/2000/svg">
  <defs
     id="defs2987" />
  <sodipodi:namedview
     id="namedview2985"
     pagecolor="#ffffff"
     bordercolor="#000000"
     borderopacity="0.25"
     inkscape:showpageshadow="2"
     inkscape:pageopacity="0.0"
     inkscape:pagecheckerboard="0"
     inkscape:deskcolor="#d1d1d1"
     showgrid="false"
     inkscape:zoom="0.97119342"
     inkscape:cx="121.5"
     inkscape:cy="126.64831"
     inkscape:window-width="1568"
     inkscape:window-height="790"
     inkscape:window-x="44"
     inkscape:window-y="120"
     inkscape:window-maximized="0"
     inkscape:current-layer="svg2983" />
  <path
     d="m 34.666064,5.0182859 c -0.256986,0.5681583 -0.53229,0.9724 -0.974248,1.4109007 -0.171713,0.1714524 -0.171713,0.1714524 -0.346895,0.3463684 -0.181838,0.1779348 -0.181838,0.1779348 -0.36735,0.3594642 -0.185245,0.182288 -0.185245,0.182288 -0.374233,0.3682585 -0.355149,0.3477138 -0.712106,0.693467 -1.06955,1.0388186 C 31.368242,8.704109 31.202696,8.8661217 31.032134,9.0330439 30.89889,9.1577078 30.765646,9.2823718 30.628364,9.4108135 30.516823,9.5155413 30.405281,9.6202691 30.29036,9.7281705 29.96765,9.912467 29.96765,9.912467 29.611292,9.8956433 29.011807,9.6442465 28.495892,9.2854681 27.961035,8.9213953 24.300684,6.5090447 20.092049,4.7090538 15.676641,4.4309842 15.548444,4.4206376 15.420247,4.410291 15.288165,4.3996308 12.551375,4.281311 9.7150179,5.0669351 7.5576533,6.7710145 5.5963274,8.6333577 4.623982,11.090534 4.4781428,13.777341 c -0.07886,4.147958 0.8974343,8.958968 3.5521049,12.27063 1.3229659,1.250804 2.8025903,1.720696 4.5997653,1.777199 3.564294,-0.11116 5.779051,-2.349799 8.143841,-4.743102 0.250257,-0.251065 0.500647,-0.501996 0.75116,-0.752806 0.535796,-0.536982 1.070662,-1.074868 1.604807,-1.613493 0.844091,-0.851131 1.690343,-1.700093 2.5369,-2.548771 1.641686,-1.646395 3.281142,-3.295 4.920399,-4.943812 2.092061,-2.103999 4.185253,-4.206869 6.280198,-6.3079954 0.842032,-0.844658 1.683026,-1.6903324 2.523226,-2.5368125 0.520884,-0.5244156 1.04256,-1.0480384 1.56445,-1.5714527 0.242632,-0.2436812 0.484921,-0.4877027 0.726852,-0.7320791 0.328923,-0.3321619 0.659012,-0.6631183 0.98943,-0.9937923 0.144821,-0.14713326 0.144821,-0.14713326 0.292569,-0.29723895 0.662846,-0.65971021 0.662846,-0.65971021 1.099046,-0.65971021 -0.104799,0.49378777 -0.210884,0.98722876 -0.318122,1.48048976 -0.03375,0.156035 -0.0675,0.31207 -0.10228,0.4728334 -0.201224,0.9090814 -0.423598,1.8075517 -0.6762,2.703796 -0.872849,3.1019183 -1.485498,5.665391 0.117766,8.655054 0.316096,0.563418 0.636305,1.123785 0.961535,1.681944 1.462975,2.521627 2.420487,5.091619 3.149577,7.910651 0.05309,0.198683 0.05309,0.198683 0.107252,0.40138 1.317747,5.136071 0.805462,10.898754 -1.852142,15.497157 -2.549628,4.195547 -6.4159,6.989414 -11.139042,8.242011 -7.186907,1.729909 -14.343109,-0.757858 -20.592267,-4.17229 0.09643,-0.836278 0.573626,-1.228282 1.157015,-1.80167 0.09532,-0.09449 0.190638,-0.188975 0.288845,-0.286326 0.30384,-0.300561 0.609662,-0.599013 0.915583,-0.897454 0.206735,-0.203788 0.413337,-0.407711 0.619802,-0.611773 0.505608,-0.499143 1.013012,-0.996414 1.521402,-1.492725 0.875123,0.332233 1.61794,0.786505 2.398149,1.296958 4.51251,2.873542 10.204252,4.999405 15.624673,3.847285 2.530539,-0.737079 4.687536,-2.076568 5.994607,-4.409351 1.778553,-3.720713 1.533972,-7.793952 0.281607,-11.638114 -1.339488,-3.806469 -1.339488,-3.806469 -4.328483,-6.317413 -1.833126,-0.727218 -3.847739,-0.597423 -5.665478,0.108282 -1.960891,0.901164 -3.47469,2.482993 -4.965601,4.00283 -0.203704,0.205303 -0.407556,0.410458 -0.611548,0.615474 -0.531376,0.534691 -1.061043,1.071039 -1.590248,1.607878 -0.84818,0.859868 -1.698919,1.717203 -2.549788,2.574409 -0.293746,0.296439 -0.586709,0.593633 -0.879553,0.890963 -0.895548,0.904997 -1.800603,1.774935 -2.767381,2.603045 -0.59627,0.531279 -1.126152,1.120152 -1.664377,1.709184 -2.180178,2.348027 -4.4547,4.603804 -6.720227,6.868917 -0.636433,0.636413 -1.2714878,1.274184 -1.9062448,1.912269 C 8.3796587,44.074028 7.886719,44.567376 7.3935195,45.060472 7.1585698,45.295652 6.9239374,45.531151 6.68963,45.766971 6.3655962,46.092909 6.0403632,46.4176 5.7147838,46.741992 5.6186006,46.839276 5.5224174,46.936559 5.4233196,47.03679 4.758378,47.695545 4.758378,47.695545 4.3221408,47.695545 4.42786,47.214212 4.5339543,46.732965 4.6402626,46.251762 4.6740152,46.098377 4.7077679,45.944991 4.7425433,45.786958 4.9596736,44.806767 5.1855139,43.829092 5.4187432,42.8526 5.472085,42.627467 5.5254268,42.402334 5.580385,42.170378 5.6862608,41.724569 5.7933496,41.279046 5.9017569,40.833846 6.4481432,38.52286 6.3303112,36.662067 5.1510927,34.546257 4.8867059,34.127298 4.6199778,33.709809 4.3512,33.293653 0.85018063,27.809994 -0.87609772,20.332165 0.44168606,13.912696 1.5953309,9.2494482 4.489006,5.1049809 8.6244319,2.6086665 16.284387,-1.676554 27.718092,-0.5504353 34.666064,5.0182859 Z"
     fill="#000000"
     id="path2981"
     style="stroke-width:0.195767" />
</svg>
