<?xml version="1.0" encoding="UTF-8" standalone="no"?>
<svg
  version="1.1"
  width="48"
  height="48.045265"
  id="svg12070"
  sodipodi:docname="zeronym-white.svg"
  inkscape:version="1.2.2 (b0a84865, 2022-12-01)"
  xmlns:inkscape="http://www.inkscape.org/namespaces/inkscape"
  xmlns:sodipodi="http://sodipodi.sourceforge.net/DTD/sodipodi-0.dtd"
  xmlns="http://www.w3.org/2000/svg"
  xmlns:svg="http://www.w3.org/2000/svg"
>
  <defs id="defs12074" />
  <sodipodi:namedview
    id="namedview12072"
    pagecolor="#ffffff"
    bordercolor="#000000"
    borderopacity="0.25"
    inkscape:showpageshadow="2"
    inkscape:pageopacity="0.0"
    inkscape:pagecheckerboard="0"
    inkscape:deskcolor="#d1d1d1"
    showgrid="false"
    inkscape:zoom="2.9135802"
    inkscape:cx="43.245763"
    inkscape:cy="42.730932"
    inkscape:window-width="1404"
    inkscape:window-height="709"
    inkscape:window-x="0"
    inkscape:window-y="38"
    inkscape:window-maximized="0"
    inkscape:current-layer="svg12070"
  />
  <path
    d="M 34.826371,5.1573966 C 34.29747,5.8167602 33.762275,6.4710775 33.224551,7.1232666 32.778545,7.6706385 32.778545,7.6706385 32.323528,8.2290684 31.231515,9.3361083 30.50062,9.9629637 29.001571,10.399717 27.745599,9.8104106 27.745599,9.8104106 26.380411,8.8343016 22.074191,6.0691879 17.22724,4.5401365 12.091449,5.4054056 9.6417384,6.1199046 8.0267431,7.3933942 6.3940667,9.3075666 4.4623698,13.984307 5.1048283,18.001566 6.7353636,22.704607 c 0.9647278,2.261273 1.520224,3.294329 3.6268484,4.58703 3.074776,0.439254 4.482337,0.291251 7.071751,-1.47882 2.443731,-1.920517 4.561384,-4.215782 6.734845,-6.430166 0.817662,-0.824401 1.635327,-1.648798 2.453184,-2.473005 1.426717,-1.439405 2.849543,-2.882646 4.272639,-4.325629 1.707588,-1.731326 3.415846,-3.4619489 5.128661,-5.188104 1.064557,-1.0733658 2.126464,-2.1493667 3.185509,-3.2281707 0.478423,-0.4822706 0.956845,-0.9645413 1.449765,-1.4614261 0.421475,-0.4275757 0.84295,-0.8551513 1.277197,-1.2956838 1.045328,-0.9130758 1.045328,-0.9130758 2.210288,-0.9130758 -0.132901,0.5413651 -0.265802,1.0827302 -0.40273,1.6405003 -0.25116,1.0801022 -0.25116,1.0801022 -0.507395,2.1820247 -0.168942,0.7095562 -0.337884,1.4191124 -0.511945,2.1501703 -0.563399,3.7783221 0.164895,6.4387531 1.968145,9.7542651 3.275308,6.051674 4.09074,12.99681 2.568828,19.740611 -2.127358,5.222526 -6.149174,8.925534 -11.269623,11.130829 -5.970198,1.981598 -13.024815,0.599884 -18.63936,-1.74744 -1.295349,-0.699678 -2.342222,-1.407794 -3.49488,-2.32992 0.905762,-2.223234 2.350863,-3.606691 4.07736,-5.24232 2.542723,0.97797 4.922599,2.170184 7.337883,3.424345 3.825844,1.785394 9.125233,2.160095 13.133104,0.816837 2.344742,-1.472141 3.624718,-3.397901 4.307167,-6.038679 0.70965,-4.29965 -0.283132,-8.240922 -2.061434,-12.182023 -1.452202,-1.745577 -2.075101,-2.259137 -4.29579,-2.875995 -2.889592,-0.04982 -4.571257,0.791382 -6.73976,2.718003 -1.270826,1.245887 -2.511951,2.515105 -3.74488,3.798492 -4.787446,4.933825 -4.787446,4.933825 -7.303753,7.092149 -2.882891,2.474606 -5.533042,5.171895 -8.204776,7.870306 -0.5068261,0.509454 -1.013652,1.018908 -1.5358362,1.543799 -1.2368478,1.243644 -2.4723044,2.488635 -3.7064841,3.734926 -0.58248,-1.74744 -0.58248,-1.74744 -0.036405,-3.85893 C 6.2771086,39.187918 6.1120409,36.48327 3.7365017,32.206312 3.3715871,31.604879 3.0066725,31.003445 2.6306998,30.383787 -0.18188717,24.994055 -0.76512023,17.162137 1.0061267,11.309842 3.124568,6.8621189 7.0766385,3.0871398 11.527171,1.0800366 c 7.867201,-2.6708511 16.564303,-0.038411 23.2992,4.07736 z"
    fill="#ffffff"
    id="path12068"
    style="stroke-width: 0.58248"
  />
</svg>
