<svg width="16" height="10" viewBox="0 0 16 10" fill="none" xmlns="http://www.w3.org/2000/svg">
  <path
    fill-rule="evenodd"
    clip-rule="evenodd"
    d="M11.0146 2.60766C11.6705 2.07283 12.4021 1.86935 13.1039 1.92079C13.8524 1.97566 14.545 2.31862 15.0624 2.81675C15.5797 3.31492 15.9351 3.98125 15.992 4.70036C16.0494 5.42603 15.8008 6.18607 15.1454 6.85307C15.0855 6.91454 15.0243 6.97513 14.9617 7.035C11.9891 9.89718 8.04042 9.90476 8.00002 9.90476H7.99982C7.97963 9.90476 4.01846 9.90461 1.03814 7.03471L1.0375 7.03398C0.975974 6.97441 0.915383 6.91439 0.8557 6.85409L0.855223 6.85351C0.199538 6.18708 -0.0492793 5.42722 0.00794417 4.70156C0.064646 3.98256 0.419804 3.31616 0.936976 2.81782C1.4541 2.3195 2.14671 1.97628 2.89537 1.92117C3.59705 1.86952 4.32888 2.07276 4.98504 2.60733C5.0556 1.78283 5.42319 1.14113 5.95678 0.699975C6.52587 0.229455 7.2675 0 7.99984 0C8.73219 0 9.4738 0.229455 10.0429 0.699975C10.5765 1.14119 10.9441 1.783 11.0146 2.60766ZM8.13592 9.61461L8.13579 9.61096H8.13603L8.13592 9.61461ZM7.86377 9.61461L7.86366 9.61096H7.8639L7.86377 9.61461ZM10.2332 5.64023C10.1518 5.64023 10.1236 5.75334 10.1755 5.81325C10.2673 5.91936 10.3226 6.05589 10.3226 6.20484C10.3226 6.54282 10.0381 6.8168 9.68715 6.8168C9.33614 6.8168 9.0516 6.54282 9.0516 6.20484C9.0516 6.18676 9.0271 6.17777 9.01603 6.19242C8.9158 6.32499 8.84813 6.47381 8.82032 6.63007C8.80468 6.71805 8.7304 6.79102 8.63707 6.79102H8.58553C8.46372 6.79102 8.36324 6.69586 8.38121 6.58065C8.50445 5.79104 9.31259 5.21835 10.2332 5.21835C11.1537 5.21835 11.9618 5.79104 12.085 6.58065C12.1029 6.69586 12.0025 6.79102 11.8807 6.79102C11.7588 6.79102 11.6624 6.69538 11.6359 6.58167C11.5155 6.0641 10.9569 5.64023 10.2332 5.64023ZM4.58977 6.20484C4.58977 6.18099 4.55767 6.16819 4.54256 6.18717C4.43541 6.3218 4.36241 6.47427 4.3315 6.63496C4.31326 6.72985 4.23308 6.80879 4.13216 6.80879H4.09434C3.97253 6.80879 3.87205 6.71368 3.89 6.59846C4.01318 5.80843 4.82142 5.23616 5.74191 5.23616C6.66239 5.23616 7.47063 5.80843 7.5938 6.59846C7.61178 6.71368 7.51128 6.80879 7.38947 6.80879C7.26768 6.80879 7.17121 6.71324 7.14476 6.5995C7.02434 6.08161 6.46583 5.65805 5.74191 5.65805C5.6761 5.65805 5.65202 5.74702 5.69607 5.79376C5.79842 5.90239 5.86078 6.04661 5.86078 6.20484C5.86078 6.54282 5.57626 6.8168 5.22528 6.8168C4.87429 6.8168 4.58977 6.54282 4.58977 6.20484ZM8.70681 7.6807C8.7929 7.59826 8.92595 7.5582 9.03284 7.61399C9.13973 7.66992 9.18028 7.79956 9.10325 7.88987C8.85236 8.18366 8.44615 8.36996 7.99814 8.36996C7.55036 8.36996 7.14326 8.1857 6.89204 7.88958C6.81528 7.79912 6.85634 7.66949 6.96344 7.61399C7.07054 7.5585 7.20337 7.59913 7.28934 7.68158C7.45493 7.84063 7.70622 7.94813 7.99814 7.94813C8.28929 7.94813 8.54085 7.83947 8.70681 7.6807Z"
    fill="#9096B2"
  />
</svg>
