<svg xmlns="http://www.w3.org/2000/svg" width="84" height="44" fill="none">
  <path fill="#EAEAF3" d="M.617 0H25.11V24.75H.617z" />
  <path fill="#9096B2" d="M15.313 4.95H20.212V14.850000000000001H15.313z" />
  <path fill="#9096B2" fill-rule="evenodd"
    d="m5.516 14.85 4.898 4.95h4.899v-4.95L10.414 9.9v4.95H5.516Z" clip-rule="evenodd" />
  <path fill="#9096B2" d="M5.516 4.95H10.415V9.9H5.516z" />
  <path fill="#9096B2"
    d="m34.8 5.414 3.277 10.425h.126l3.283-10.425h3.178l-4.674 13.72h-3.694l-4.68-13.72H34.8ZM49.73 19.336c-1.046 0-1.946-.214-2.7-.643a4.383 4.383 0 0 1-1.735-1.836c-.406-.795-.61-1.735-.61-2.82 0-1.059.204-1.988.61-2.788.406-.799.977-1.422 1.714-1.869.742-.446 1.611-.67 2.609-.67.67 0 1.295.11 1.873.329a4.15 4.15 0 0 1 1.523.971c.437.433.777.978 1.02 1.635.242.652.364 1.416.364 2.291v.784H45.81V12.95h5.932c0-.41-.088-.775-.265-1.092a1.908 1.908 0 0 0-.735-.743 2.075 2.075 0 0 0-1.079-.275c-.428 0-.808.1-1.139.301a2.102 2.102 0 0 0-.768.798c-.185.33-.28.699-.284 1.105v1.682c0 .509.092.949.278 1.32.19.37.457.656.8.857.345.201.753.301 1.226.301.313 0 .6-.044.86-.133.26-.09.484-.224.669-.402a1.75 1.75 0 0 0 .424-.657l2.608.174a3.62 3.62 0 0 1-.814 1.662c-.406.469-.931.835-1.576 1.098-.64.26-1.38.389-2.218.389ZM56.238 19.135V8.845h2.734v1.795h.106c.186-.639.497-1.121.934-1.447.437-.33.94-.496 1.51-.496a4.216 4.216 0 0 1 .886.1v2.533a3.638 3.638 0 0 0-.55-.107 4.873 4.873 0 0 0-.641-.047c-.415 0-.786.091-1.112.274a2.01 2.01 0 0 0-.768.75 2.188 2.188 0 0 0-.279 1.113v5.822h-2.82ZM66.475 19.33c-.649 0-1.227-.115-1.735-.342a2.802 2.802 0 0 1-1.204-1.026c-.292-.455-.437-1.022-.437-1.701 0-.572.103-1.052.31-1.44a2.54 2.54 0 0 1 .848-.939 4.086 4.086 0 0 1 1.218-.536c.46-.12.94-.205 1.444-.254.591-.063 1.068-.12 1.43-.174.361-.058.624-.143.787-.255.164-.112.245-.277.245-.496v-.04c0-.424-.132-.753-.397-.985-.26-.232-.631-.348-1.112-.348-.508 0-.912.114-1.212.342-.3.223-.498.504-.596.844l-2.608-.215a3.604 3.604 0 0 1 .781-1.621 3.75 3.75 0 0 1 1.503-1.059c.618-.25 1.333-.375 2.145-.375.565 0 1.106.067 1.622.201.52.134.982.342 1.384.623.406.282.726.643.96 1.086.234.437.35.962.35 1.574v6.94h-2.674v-1.426h-.08a2.901 2.901 0 0 1-.655.85 3.023 3.023 0 0 1-.986.57 4.034 4.034 0 0 1-1.331.201Zm.808-1.97c.415 0 .78-.083 1.099-.248.317-.17.567-.398.748-.684.18-.286.271-.61.271-.971v-1.092a1.5 1.5 0 0 1-.364.16c-.15.045-.32.088-.51.128-.19.036-.38.07-.569.1l-.516.074c-.331.05-.62.127-.868.235-.247.107-.439.252-.576.435a1.07 1.07 0 0 0-.205.67c0 .389.14.686.417.891.283.201.64.302 1.073.302ZM76.747 8.844l1.867 3.598 1.913-3.598h2.893l-2.946 5.146 3.025 5.145h-2.88l-2.005-3.558-1.973 3.558h-2.913l3.019-5.145-2.913-5.146h2.913ZM1.848 40.25v-7h.806v2.584h.069c.059-.091.14-.207.246-.349.107-.143.26-.27.458-.383.2-.113.471-.17.813-.17.442 0 .832.11 1.17.331.336.221.6.535.789.94.189.406.283.884.283 1.436 0 .556-.094 1.038-.283 1.445-.19.406-.451.72-.786.944a2.055 2.055 0 0 1-1.16.331c-.336 0-.606-.056-.81-.167a1.502 1.502 0 0 1-.467-.386 5.187 5.187 0 0 1-.253-.363h-.096v.807h-.78Zm.793-2.625c0 .397.058.746.174 1.05.116.3.286.536.51.707.223.169.496.253.82.253.337 0 .618-.09.844-.267a1.63 1.63 0 0 0 .512-.724c.117-.306.175-.645.175-1.019 0-.37-.057-.702-.171-.998a1.543 1.543 0 0 0-.51-.708c-.225-.175-.509-.263-.85-.263-.329 0-.604.083-.828.25a1.497 1.497 0 0 0-.505.69c-.114.294-.171.637-.171 1.029Zm5.407 4.594a1.766 1.766 0 0 1-.588-.096l.205-.71c.196.05.37.068.52.054a.623.623 0 0 0 .4-.202c.118-.118.226-.31.324-.578l.15-.41L7.12 35h.874l1.45 4.184h.054L10.947 35h.874l-2.228 6.016c-.1.27-.225.495-.373.673-.148.18-.32.313-.516.4-.194.087-.412.13-.656.13Zm13.287-6.782h-.848a1.762 1.762 0 0 0-.714-1.107 1.916 1.916 0 0 0-.584-.287 2.334 2.334 0 0 0-.67-.096c-.424 0-.808.107-1.152.322-.342.214-.614.53-.817.946-.2.417-.3.929-.3 1.535 0 .606.1 1.118.3 1.535.203.417.475.732.817.946.344.215.728.322 1.152.322.232 0 .456-.032.67-.096a1.96 1.96 0 0 0 .584-.284 1.803 1.803 0 0 0 .715-1.11h.847c-.064.357-.18.677-.348.96a2.624 2.624 0 0 1-1.474 1.169c-.31.102-.641.154-.994.154a2.933 2.933 0 0 1-1.593-.438c-.465-.291-.83-.706-1.097-1.244s-.4-1.176-.4-1.914.133-1.376.4-1.914.632-.953 1.097-1.244a2.933 2.933 0 0 1 1.593-.438c.353 0 .684.052.994.154.313.103.594.253.845.451.25.196.46.435.629.718.168.28.284.6.348.96Zm3.393 4.922a2.29 2.29 0 0 1-1.247-.338 2.3 2.3 0 0 1-.834-.947c-.198-.405-.297-.88-.297-1.422 0-.547.099-1.024.297-1.432.2-.408.478-.724.834-.95a2.29 2.29 0 0 1 1.247-.338c.474 0 .89.112 1.244.338.358.226.636.542.834.95.201.408.301.886.301 1.432 0 .543-.1 1.017-.3 1.422a2.267 2.267 0 0 1-.834.947c-.356.226-.77.338-1.245.338Zm0-.724c.36 0 .657-.093.89-.277.232-.185.404-.427.515-.728.112-.3.168-.627.168-.978 0-.35-.056-.678-.168-.98a1.654 1.654 0 0 0-.516-.735c-.232-.187-.529-.28-.889-.28s-.656.093-.888.28a1.654 1.654 0 0 0-.516.734c-.112.303-.168.63-.168.981s.056.677.168.978c.111.3.283.543.516.728.232.184.528.277.888.277Zm4.417-2.543v3.158h-.806V35h.779v.82h.068a1.5 1.5 0 0 1 .56-.642c.252-.164.575-.246.972-.246.355 0 .666.073.933.218.266.144.474.363.622.657.148.291.222.66.222 1.107v3.336h-.807v-3.281c0-.413-.107-.734-.321-.964-.214-.233-.508-.349-.882-.349-.257 0-.488.056-.69.168-.2.111-.36.274-.475.489a1.614 1.614 0 0 0-.175.779Zm8.543-.916-.725.205a1.348 1.348 0 0 0-.202-.352.979.979 0 0 0-.355-.287 1.291 1.291 0 0 0-.578-.113c-.321 0-.589.074-.803.222-.212.146-.318.332-.318.557 0 .2.073.36.219.475.146.116.374.213.683.29l.78.192c.47.114.819.288 1.05.523.23.233.344.532.344.9 0 .3-.086.569-.26.806-.17.237-.41.424-.717.56a2.622 2.622 0 0 1-1.073.205c-.536 0-.98-.116-1.33-.348-.351-.233-.573-.572-.666-1.019l.765-.191c.073.282.21.494.414.636.205.14.473.211.803.211.376 0 .674-.08.895-.239.224-.162.335-.355.335-.58a.61.61 0 0 0-.191-.459c-.128-.125-.324-.219-.588-.28l-.875-.205c-.48-.114-.834-.29-1.06-.53-.223-.242-.334-.543-.334-.906 0-.296.083-.558.249-.786.169-.228.398-.407.687-.536.292-.13.622-.195.991-.195.52 0 .928.114 1.224.341.298.228.51.53.636.903Zm3.51 4.183c-.505 0-.941-.111-1.308-.335a2.25 2.25 0 0 1-.845-.943c-.196-.406-.294-.877-.294-1.415s.098-1.012.294-1.422a2.32 2.32 0 0 1 .828-.964c.355-.232.77-.348 1.244-.348.273 0 .543.045.81.136.266.092.509.24.728.445.218.203.393.471.523.806.13.335.195.748.195 1.238v.341h-4.047v-.697h3.226c0-.296-.059-.56-.178-.793a1.34 1.34 0 0 0-.498-.55 1.398 1.398 0 0 0-.76-.202c-.32 0-.599.08-.833.24a1.574 1.574 0 0 0-.537.615 1.808 1.808 0 0 0-.188.813v.465c0 .396.069.733.205 1.008.14.274.332.482.578.626.246.141.532.212.858.212.212 0 .403-.03.574-.09a1.23 1.23 0 0 0 .448-.273c.125-.123.222-.275.29-.457l.78.218a1.73 1.73 0 0 1-.414.697 2.016 2.016 0 0 1-.718.465c-.285.11-.605.164-.96.164Zm4.208-3.267v3.158H44.6V35h.779v.82h.068a1.5 1.5 0 0 1 .56-.642c.252-.164.575-.246.971-.246.356 0 .667.073.934.218.266.144.474.363.622.657.148.291.222.66.222 1.107v3.336h-.807v-3.281c0-.413-.107-.734-.321-.964-.214-.233-.508-.349-.882-.349-.257 0-.488.056-.69.168-.2.111-.36.274-.475.489a1.614 1.614 0 0 0-.175.779Zm8.543-.916-.725.205a1.345 1.345 0 0 0-.202-.352.978.978 0 0 0-.355-.287 1.291 1.291 0 0 0-.578-.113c-.321 0-.589.074-.803.222-.212.146-.318.332-.318.557 0 .2.073.36.219.475.146.116.374.213.684.29l.779.192c.47.114.819.288 1.05.523.23.233.344.532.344.9 0 .3-.086.569-.26.806-.17.237-.41.424-.717.56a2.622 2.622 0 0 1-1.074.205c-.535 0-.978-.116-1.33-.348-.35-.233-.572-.572-.666-1.019l.766-.191c.073.282.21.494.414.636.205.14.473.211.803.211.376 0 .674-.08.895-.239.224-.162.335-.355.335-.58a.61.61 0 0 0-.191-.459c-.128-.125-.324-.219-.588-.28l-.875-.205c-.48-.114-.834-.29-1.06-.53-.223-.242-.335-.543-.335-.906 0-.296.084-.558.25-.786.169-.228.398-.407.687-.536.292-.13.622-.195.991-.195.52 0 .928.114 1.224.341.298.228.51.53.636.903Zm1.83 6.043a1.765 1.765 0 0 1-.589-.096l.205-.71c.196.05.37.068.52.054a.623.623 0 0 0 .4-.202c.118-.118.226-.31.324-.578l.15-.41L54.85 35h.874l1.45 4.184h.054L58.677 35h.874l-2.228 6.016c-.1.27-.224.495-.373.673-.148.18-.32.313-.516.4-.193.087-.412.13-.656.13Zm8.556-6.043-.725.205a1.345 1.345 0 0 0-.201-.352.979.979 0 0 0-.356-.287 1.29 1.29 0 0 0-.577-.113c-.322 0-.59.074-.804.222-.212.146-.317.332-.317.557 0 .2.072.36.218.475.146.116.374.213.684.29l.78.192c.468.114.818.288 1.048.523.23.233.346.532.346.9 0 .3-.087.569-.26.806-.171.237-.41.424-.718.56a2.622 2.622 0 0 1-1.073.205c-.536 0-.979-.116-1.33-.348-.35-.233-.573-.572-.666-1.019l.765-.191c.073.282.211.494.414.636.205.14.473.211.803.211.376 0 .675-.08.896-.239.223-.162.335-.355.335-.58a.61.61 0 0 0-.192-.459c-.127-.125-.323-.219-.588-.28l-.875-.205c-.48-.114-.834-.29-1.06-.53-.222-.242-.334-.543-.334-.906 0-.296.083-.558.25-.786.168-.228.397-.407.686-.536.292-.13.622-.195.992-.195.52 0 .927.114 1.223.341.299.228.51.53.636.903Z" />
</svg>