<svg width="35" height="18" viewBox="0 0 35 18" fill="none" xmlns="http://www.w3.org/2000/svg">
  <rect x="0.912598" y="0.25" width="34" height="17" rx="4" fill="#EAEAF3" />
  <path
    d="M5.5447 12.25V4.97727H8.45663C8.99167 4.97727 9.43793 5.05658 9.79541 5.2152C10.1529 5.37382 10.4216 5.59399 10.6015 5.87571C10.7814 6.15507 10.8714 6.47704 10.8714 6.84162C10.8714 7.12571 10.8146 7.37547 10.701 7.59091C10.5873 7.80398 10.4311 7.97917 10.2322 8.11648C10.0357 8.25142 9.8108 8.3473 9.55748 8.40412V8.47514C9.83447 8.48698 10.0937 8.5651 10.3352 8.70952C10.579 8.85393 10.7767 9.05634 10.9282 9.31676C11.0797 9.57481 11.1555 9.88258 11.1555 10.2401C11.1555 10.6259 11.0596 10.9704 10.8679 11.2734C10.6785 11.5741 10.3979 11.812 10.0262 11.9872C9.65455 12.1624 9.19645 12.25 8.65194 12.25H5.5447ZM7.08234 10.9929H8.33589C8.7644 10.9929 9.0769 10.9112 9.27339 10.7479C9.46989 10.5821 9.56814 10.362 9.56814 10.0874C9.56814 9.88613 9.51961 9.70857 9.42254 9.55469C9.32548 9.4008 9.18698 9.28007 9.00706 9.19247C8.8295 9.10488 8.61762 9.06108 8.3714 9.06108H7.08234V10.9929ZM7.08234 8.0206H8.22226C8.43296 8.0206 8.61998 7.9839 8.78334 7.91051C8.94906 7.83475 9.07926 7.72822 9.17396 7.59091C9.27103 7.4536 9.31956 7.28906 9.31956 7.0973C9.31956 6.83452 9.22604 6.62263 9.03902 6.46165C8.85436 6.30066 8.59158 6.22017 8.25067 6.22017H7.08234V8.0206ZM11.956 12.25V4.97727H16.8566V6.24503H13.4937V7.97798H16.6045V9.24574H13.4937V10.9822H16.8708V12.25H11.956ZM17.6021 6.24503V4.97727H23.5751V6.24503H21.3485V12.25H19.8286V6.24503H17.6021ZM24.7236 12.25H23.0759L25.5866 4.97727H27.5681L30.0752 12.25H28.4275L26.6057 6.6392H26.5489L24.7236 12.25ZM24.6207 9.39134H28.5127V10.5916H24.6207V9.39134Z"
    fill="#656B87"
  />
</svg>
