<svg width="37" height="18" viewBox="0 0 37 18" fill="none" xmlns="http://www.w3.org/2000/svg">
  <rect x="0.17334" width="36" height="18" rx="4" fill="#EAEAF3" />
  <path
    d="M4.86865 13V5H8.07178C8.66032 5 9.1512 5.08724 9.54443 5.26172C9.93766 5.4362 10.2332 5.67839 10.4312 5.98828C10.6291 6.29557 10.728 6.64974 10.728 7.05078C10.728 7.36328 10.6655 7.63802 10.5405 7.875C10.4155 8.10937 10.2437 8.30208 10.0249 8.45312C9.80876 8.60156 9.56136 8.70703 9.28272 8.76953V8.84766C9.5874 8.86068 9.87256 8.94661 10.1382 9.10547C10.4064 9.26432 10.6239 9.48698 10.7905 9.77344C10.9572 10.0573 11.0405 10.3958 11.0405 10.7891C11.0405 11.2135 10.9351 11.5924 10.7241 11.9258C10.5158 12.2565 10.2072 12.5182 9.79834 12.7109C9.38949 12.9036 8.88558 13 8.28662 13H4.86865ZM6.56006 11.6172H7.93897C8.41032 11.6172 8.75407 11.5273 8.97022 11.3477C9.18636 11.1654 9.29443 10.9232 9.29443 10.6211C9.29443 10.3997 9.24105 10.2044 9.13428 10.0352C9.02751 9.86589 8.87516 9.73307 8.67725 9.63672C8.48193 9.54036 8.24886 9.49219 7.97803 9.49219H6.56006V11.6172ZM6.56006 8.34766H7.81396C8.04574 8.34766 8.25146 8.30729 8.43115 8.22656C8.61344 8.14323 8.75667 8.02604 8.86084 7.875C8.96761 7.72396 9.021 7.54297 9.021 7.33203C9.021 7.04297 8.91813 6.8099 8.7124 6.63281C8.50928 6.45573 8.22021 6.36719 7.84522 6.36719H6.56006V8.34766ZM11.9211 13V5H17.3117V6.39453H13.6125V8.30078H17.0344V9.69531H13.6125V11.6055H17.3274V13H11.9211ZM18.1318 6.39453V5H24.7021V6.39453H22.2529V13H20.581V6.39453H18.1318ZM25.9655 13H24.153L26.9147 5H29.0944L31.8522 13H30.0397L28.0358 6.82812H27.9733L25.9655 13ZM25.8522 9.85547H30.1335V11.1758H25.8522V9.85547Z"
    fill="#3D3D51"
  />
</svg>
