<svg width="35" height="18" viewBox="0 0 35 18" fill="none" xmlns="http://www.w3.org/2000/svg">
  <rect x="0.868896" y="0.25" width="34" height="17" rx="4" fill="#3D3D51" />
  <path
    d="M5.501 12.25V4.97727H8.41293C8.94797 4.97727 9.39423 5.05658 9.75171 5.2152C10.1092 5.37382 10.3779 5.59399 10.5578 5.87571C10.7377 6.15507 10.8277 6.47704 10.8277 6.84162C10.8277 7.12571 10.7709 7.37547 10.6572 7.59091C10.5436 7.80398 10.3874 7.97917 10.1885 8.11648C9.992 8.25142 9.7671 8.3473 9.51378 8.40412V8.47514C9.79077 8.48698 10.05 8.5651 10.2915 8.70952C10.5353 8.85393 10.733 9.05634 10.8845 9.31676C11.036 9.57481 11.1118 9.88258 11.1118 10.2401C11.1118 10.6259 11.0159 10.9704 10.8242 11.2734C10.6348 11.5741 10.3542 11.812 9.98253 11.9872C9.61085 12.1624 9.15275 12.25 8.60824 12.25H5.501ZM7.03864 10.9929H8.29219C8.7207 10.9929 9.0332 10.9112 9.22969 10.7479C9.42619 10.5821 9.52444 10.362 9.52444 10.0874C9.52444 9.88613 9.4759 9.70857 9.37884 9.55469C9.28178 9.4008 9.14328 9.28007 8.96336 9.19247C8.7858 9.10488 8.57392 9.06108 8.3277 9.06108H7.03864V10.9929ZM7.03864 8.0206H8.17856C8.38926 8.0206 8.57628 7.9839 8.73964 7.91051C8.90536 7.83475 9.03556 7.72822 9.13026 7.59091C9.22732 7.4536 9.27586 7.28906 9.27586 7.0973C9.27586 6.83452 9.18234 6.62263 8.99532 6.46165C8.81066 6.30066 8.54787 6.22017 8.20696 6.22017H7.03864V8.0206ZM11.9123 12.25V4.97727H16.8129V6.24503H13.45V7.97798H16.5608V9.24574H13.45V10.9822H16.8271V12.25H11.9123ZM17.5584 6.24503V4.97727H23.5314V6.24503H21.3048V12.25H19.7849V6.24503H17.5584ZM24.6799 12.25H23.0322L25.5429 4.97727H27.5244L30.0315 12.25H28.3838L26.562 6.6392H26.5052L24.6799 12.25ZM24.577 9.39134H28.469V10.5916H24.577V9.39134Z"
    fill="#A4A8C2"
  />
</svg>
