<svg xmlns="http://www.w3.org/2000/svg" width="88" height="24" fill="none">
  <path
    fill="#9096B2"
    fill-rule="evenodd"
    d="M82.22 15.303V6.467h-1.773v2.53l-1.904.292-.086.013c-.86.13-1.507.227-1.996.663-.512.443-.768 1.049-.768 1.818v1.026c0 .769.256 1.375.768 1.818.505.45 1.2.676 2.082.676h3.677Zm-1.773-1.515v-3.272l-1.786.288-.014.003-.02.003-.025.004-.018.003-.028.005h-.006c-.333.057-.579.098-.764.273a.913.913 0 0 0-.297.535v1.33a.91.91 0 0 0 .297.536c.206.194.497.292.875.29h1.786v.002Z"
    clip-rule="evenodd"
  />
  <path
    fill="#9096B2"
    d="M67.418 15.385c-.78 0-1.387-.206-1.82-.618-.427-.42-.64-1.002-.64-1.748v-2.552h-1.087V8.952h.059c.331 0 .583-.082.757-.245.181-.163.272-.408.272-.734v-.7h1.773v1.679h1.514v1.515h-1.514v2.435c0 .327.09.572.272.735.181.155.457.233.828.233.11 0 .248-.012.414-.035v1.49a5.45 5.45 0 0 1-.828.06Zm-4.137-4.923h-.967c-.59 0-.885 0-1.11.114-.198.1-.359.258-.46.453-.115.222-.115.513-.115 1.094v3.188h-1.773v-2.588c0-1.322 0-1.983.26-2.487.23-.444.596-.805 1.047-1.032.512-.257 1.182-.257 2.523-.257h.595v1.515Z"
  />
  <path
    fill="#9096B2"
    fill-rule="evenodd"
    d="M53.167 15.04a3.637 3.637 0 0 0 1.75.432c.63 0 1.21-.143 1.738-.43a3.27 3.27 0 0 0 1.253-1.19c.31-.513.47-1.102.461-1.701 0-.63-.154-1.197-.46-1.702a3.27 3.27 0 0 0-1.254-1.188 3.576 3.576 0 0 0-1.739-.432c-.63 0-1.213.144-1.75.432a3.27 3.27 0 0 0-1.253 1.188 3.208 3.208 0 0 0-.46 1.702c0 .63.153 1.196.46 1.7.304.503.737.913 1.254 1.19Zm2.59-1.362c-.255.15-.546.226-.84.22-.316 0-.6-.073-.85-.22a1.577 1.577 0 0 1-.58-.618 1.981 1.981 0 0 1-.202-.91c0-.333.067-.632.2-.896a1.59 1.59 0 0 1 1.43-.85c.317-.001.597.076.841.232.244.147.433.353.567.618.142.264.213.563.213.897 0 .342-.07.645-.213.909-.133.264-.323.47-.567.618Zm-11.35 4.105V8.947h3.677c.883 0 1.577.225 2.081.676.513.443.77 1.05.77 1.819v1.025c0 .769-.257 1.375-.77 1.818-.488.436-1.135.534-1.994.663l-.087.013-1.904.29v2.532h-1.773Zm1.773-4.05v-3.27h1.785c.38 0 .67.097.876.29.158.139.263.328.297.536v1.33a.913.913 0 0 1-.297.536c-.185.175-.43.216-.764.272h-.005l-.018.004-.066.01-.022.005-1.786.288v-.001Zm-8.818 4.05V8.947h3.677c.883 0 1.577.225 2.081.676.513.443.77 1.05.77 1.819v1.025c0 .769-.257 1.375-.77 1.818-.488.436-1.135.534-1.994.663l-.087.013-1.904.29v2.532h-1.773Zm1.773-4.05v-3.27h1.785c.378 0 .67.097.875.29a.914.914 0 0 1 .298.536v1.33a.911.911 0 0 1-.298.536c-.185.175-.43.216-.764.272h-.006l-.018.004-.064.01-.023.005-1.785.288v-.001Zm33.002 1.739c-.662 0-1.249-.147-1.762-.443a3.143 3.143 0 0 1-1.194-1.2c-.278-.52-.42-1.101-.414-1.69 0-.621.142-1.185.426-1.69a3.11 3.11 0 0 1 1.17-1.188 3.247 3.247 0 0 1 1.656-.432c.662 0 1.233.136 1.714.408a2.74 2.74 0 0 1 1.1 1.13c.252.475.378 1.007.378 1.597 0 .288-.028.513-.083.676h-4.52c.02.163.061.315.122.455a1.4 1.4 0 0 0 .544.64c.252.148.548.222.887.222.307 0 .575-.062.804-.186a1.36 1.36 0 0 0 .532-.513l1.418.664c-.197.466-.547.843-1.052 1.13-.496.28-1.072.42-1.726.42Zm-1.419-4.358c-.029.08-.052.161-.069.244h2.683a1.433 1.433 0 0 0-.06-.28 1.152 1.152 0 0 0-.46-.617 1.342 1.342 0 0 0-.793-.233c-.308 0-.576.078-.804.233-.23.16-.404.388-.497.653Z"
    clip-rule="evenodd"
  />
  <path
    fill="#9096B2"
    d="M27.803 15.463c-.71.024-1.332-.12-1.868-.43-.536-.312-.907-.743-1.111-1.295l1.276-.652c.182.342.414.602.698.78.292.18.61.265.958.257.244-.008.433-.062.567-.163a.496.496 0 0 0 .19-.431.476.476 0 0 0-.178-.35c-.11-.093-.272-.16-.485-.198l-1.1-.21c-.527-.124-.941-.353-1.24-.687a1.82 1.82 0 0 1-.474-1.19c-.014-.365.08-.725.272-1.036.197-.311.477-.556.84-.735.362-.178.784-.275 1.265-.29.63-.024 1.186.104 1.667.384.48.262.856.682 1.064 1.188l-1.29.653a1.273 1.273 0 0 0-.543-.606 1.518 1.518 0 0 0-.85-.221c-.23.007-.407.062-.533.163a.425.425 0 0 0-.177.384.466.466 0 0 0 .177.338c.118.086.3.16.544.222l1.029.21c.544.14.96.369 1.253.687.3.319.457.707.473 1.165.008.397-.087.746-.284 1.05-.19.302-.47.543-.84.722-.37.179-.803.276-1.3.29Zm8.923-.161h-3.063c-.882 0-1.576-.225-2.08-.676-.513-.442-.77-1.048-.77-1.818V8.94h1.774v3.776c0 .326.099.587.296.78.197.195.457.292.78.292h1.29V8.94h1.773v6.362ZM16.106 3.446c.09-.31-.367-.543-.571-.308a40.16 40.16 0 0 0-1.73 2.148c.31.003.673-.033 1.014-.124.424-.113.766-.296.959-.54.11-.404.223-.803.33-1.176h-.001Zm-3.404 3.363c.19-.272.42-.598.684-.96l.015.004c.527.055 1.06.014 1.574-.12.185-.05.373-.115.552-.2-.146.534-.283 1.042-.397 1.469-.39.335-.837.366-1.266.298-.491-.08-.94-.31-1.162-.491Zm-.337-.104c.119 0 .234.034.332.099-.033-.767-.063-1.533-.09-2.3-.002-.085-.087-.13-.152-.074-.193.17-.368.358-.523.562-.385.486-.796 1.117-1.023 1.805.424-.052.89-.092 1.334-.092h.122Zm-2.742 3.859a.372.372 0 0 0 .479.19c.362-.152.75-.235 1.143-.246.433-.01.762.089.94.27.144.145.37.152.506.016a.362.362 0 0 0-.013-.51c-.402-.406-.988-.508-1.49-.497a3.862 3.862 0 0 0-1.403.304.346.346 0 0 0-.162.473Zm1.447.846a.36.36 0 0 0-.361.356.36.36 0 0 0 .36.356h.81c.2 0 .36-.16.36-.356a.36.36 0 0 0-.36-.357h-.81Z"
  />
  <path
    fill="#9096B2"
    fill-rule="evenodd"
    d="M13.713 7.884a3.228 3.228 0 0 1-.884-.298 3.008 3.008 0 0 1-.461-.29h-.125c-.743 0-1.565.12-2.13.217-1.111.19-1.861.474-2.316.93-.476.477-.566 1.077-.533 1.723.04.774.16 2.008.27 3.04.063.58.128 1.157.196 1.735l.019.157v.009c.26 1.527 1.31 2.567 2.605 3.276 1.29.707 2.867 1.112 4.278 1.363l.015.003h.015c.69.066 1.206-.374 1.57-.91.368-.541.646-1.271.854-2.005.197-.69.339-1.41.435-2.03.018-.092.031-.184.04-.277.08-.57.12-1.022.123-1.238 0-.265-.062-.525-.18-.762-.062-.133-.145-.278-.218-.407-.036-.063-.07-.122-.097-.174-.184-.342-.29-.643-.13-1.074l.033-.09-.018-.098-.001-.005a11.227 11.227 0 0 0-.272-1.094 5.246 5.246 0 0 0-.324-.835 1.932 1.932 0 0 0-.228-.354.88.88 0 0 0-.351-.267 33.372 33.372 0 0 0-.792-.293l-.012-.004-.018-.006-.01-.003-.01-.004-.004-.001-.13-.043.003-.007a2.07 2.07 0 0 1-.778.155c-.13 0-.276-.011-.434-.04Zm1.92.909c-.233-.09-.466-.177-.701-.261a2.58 2.58 0 0 1-.294.065 3.17 3.17 0 0 1-1.051-.011c-.512-.092-1-.284-1.438-.565l-.007-.004-.01-.008c-.65.012-1.368.117-1.894.207-1.081.185-1.637.438-1.925.726-.266.267-.355.62-.326 1.189.028.557.1 1.37.182 2.177a.821.821 0 0 1 .516-.26c.503-.05.96.39 1.02.983.06.593-.297 1.114-.8 1.164a.824.824 0 0 1-.55-.147l.094.81.013.11.003.03c.212 1.232 1.06 2.115 2.24 2.762 1.127.617 2.519.997 3.839 1.245a9.505 9.505 0 0 0-.127-.98c-.03-.167-.062-.333-.098-.5l-.005-.02h-.267a.36.36 0 0 1-.362-.356.36.36 0 0 1 .362-.356h1.112c.2 0 .362.16.362.357a.36.36 0 0 1-.362.356h-.106c.024.112.05.246.076.395.05.282.1.622.13.96.122-.095.246-.233.37-.418.306-.45.56-1.094.76-1.801.064-.22.12-.444.17-.665-.053.008-.11.012-.164.012h-.69a1.25 1.25 0 0 1-1.107-.665l-.134-.256-.026.076a1.246 1.246 0 0 1-1.184.845h-1.47c-.376 0-.731-.167-.968-.455l-.59-.715a.354.354 0 0 1 .055-.502.365.365 0 0 1 .508.053l.589.715c.1.12.249.192.407.192h1.469a.522.522 0 0 0 .497-.355l.05-.15a.344.344 0 0 1-.33-.295.374.374 0 0 1 .3-.42l1.493-.274a.117.117 0 0 0 .082-.168 495.71 495.71 0 0 1-1.005-1.858c-.184-.418-.246-.807-.12-1.14.133-.35.43-.53.72-.61.284-.08.605-.077.898-.038.114.016.229.038.34.064a8.472 8.472 0 0 0-.07-.242 4.547 4.547 0 0 0-.277-.72 1.238 1.238 0 0 0-.141-.222.276.276 0 0 0-.058-.056Zm-.393 6.204-.23-.437.36-.066c.566-.103.877-.743.604-1.244l-.617-1.136c.025.005.05.008.077.008h.39c.2 0 .362-.16.362-.356a.36.36 0 0 0-.362-.357h-.39a.362.362 0 0 0-.336.226l-.11-.202c-.146-.34-.127-.508-.102-.576.02-.05.068-.111.222-.154.157-.043.374-.05.614-.018.21.029.42.084.592.15-.154.604.033 1.067.236 1.445.045.084.087.156.125.223a.72.72 0 0 0-.204.458c-.048.502.103.936.414 1.178-.021.167-.046.35-.077.544a3.569 3.569 0 0 1-.104.395c-.035.11-.15.198-.31.198h-.69a.526.526 0 0 1-.464-.28Zm-.715 5.33c-1.396-.25-3-.651-4.353-1.37.04.74.194 1.718.709 2.04.408.256.812.21 1.355.153.484-.053 1.08-.118 1.888.008.378.06.766-.112.926-.455.073-.155.132-.287.179-.403a1.94 1.94 0 0 1-.625.038l-.015-.001a.607.607 0 0 1-.05-.007l-.014-.002Zm-2.791.038c0 .182-.15.33-.335.33a.331.331 0 0 1-.335-.33c0-.182.15-.33.335-.33.185 0 .335.148.335.33Z"
    clip-rule="evenodd"
  />
  <path
    fill="#9096B2"
    d="m7.101 14.712-.028-.24c-.764.142-1.497.38-2.055.695-.508.286-.824.61-.929.934-.082.257-.048.568.243.952.132.172.412.38.684.542 1.424.843 3.128.883 4.147.73-.987-.74-1.772-1.75-2.005-3.12l-.057-.492v-.001Zm-.16-1.442c-.092-.83-.171-1.662-.238-2.495a8.635 8.635 0 0 0-1.66.505c-.687.298-1.262.704-1.618 1.268a2.51 2.51 0 0 0-.347.906 4.1 4.1 0 0 0 .43 2.485l.016-.05c.167-.522.627-.933 1.181-1.246.635-.358 1.456-.62 2.301-.77l-.066-.604Zm1.536-8.438c-.479.53-.993 1.235-1.226 1.999-.06.193-.083.49-.087.828-1.939.44-3.695 1.184-4.055 2.426a5.092 5.092 0 0 0-.143 2.07c.441-.668 1.112-1.12 1.837-1.434.59-.256 1.24-.43 1.861-.557-.03-.701.066-1.493.706-2.136.48-.48 1.168-.774 2.015-.971-.051-.907-.097-1.814-.138-2.721-.003-.082-.084-.127-.152-.08a3.95 3.95 0 0 0-.618.576Z"
  />
  <path
    fill="#9096B2"
    fill-rule="evenodd"
    d="M79.252.625H9.944c-4.688 0-7.032 0-8.488 1.435C0 3.496 0 5.806 0 10.426v3.398c0 4.62 0 6.93 1.456 8.366 1.456 1.435 3.8 1.435 8.488 1.435h68.061c1.235 0 1.992 0 2.716-.157a6.875 6.875 0 0 0 2.222-.908c.624-.395 1.159-.923 2.031-1.785l.15-.147c.87-.86 1.403-1.386 1.801-2a6.671 6.671 0 0 0 .917-2.185c.158-.712.158-1.456.158-2.67V9.248c0-1.792 0-3.223-.153-4.347-.159-1.16-.495-2.12-1.265-2.878-.77-.76-1.743-1.09-2.921-1.247-1.139-.15-2.591-.15-4.409-.15V.625Zm6.893 15.451c.113-.509.117-1.057.117-2.407V9.31c0-1.87-.002-3.186-.137-4.181-.133-.971-.378-1.509-.772-1.896-.393-.388-.938-.63-1.923-.76-1.01-.134-2.346-.136-4.242-.136H20.852v19.574h57.047c1.374 0 1.932-.004 2.45-.116a5.128 5.128 0 0 0 1.656-.678c.446-.282.843-.668 1.814-1.627.968-.956 1.357-1.347 1.642-1.786a4.975 4.975 0 0 0 .684-1.628ZM13.364 4.858c-.05.066-.075.098-.096.096a.036.036 0 0 1-.013-.004c-.019-.01-.02-.05-.023-.13l-.012-.336a.704.704 0 0 0-1.163-.514 4.43 4.43 0 0 0-.61.65c-.407.516-.864 1.21-1.121 1.991l-.063.202c-.01.031-.014.047-.026.057-.012.01-.028.013-.06.019l-.105.019c-.038.006-.057.01-.07 0-.013-.01-.014-.03-.016-.068-.062-1.111-.11-2.139-.127-2.53a.706.706 0 0 0-.754-.675.713.713 0 0 0-.368.131c-.17.12-.41.322-.719.665-.503.557-1.085 1.34-1.356 2.227a2.32 2.32 0 0 0-.08.42c-.007.05-.01.076-.024.093-.015.016-.039.023-.087.035-.802.211-1.576.484-2.224.837-.788.43-1.483 1.03-1.729 1.877a5.686 5.686 0 0 0-.16 2.313.603.603 0 0 0 .254.417c.027.018.04.028.044.04.004.012-.002.026-.013.054-.078.201-.136.41-.173.622-.141.94.023 1.944.492 2.848a.613.613 0 0 0 .43.319c.03.005.044.008.052.016s.01.021.015.049c.048.27.175.544.383.817.205.271.572.53.858.699 1.546.915 3.353.972 4.464.822l.269-.027c.052-.005.079-.008.097.007.018.015.02.04.025.093l.017.17c.027.35.08.749.187 1.12.117.41.337.923.793 1.209.593.37 1.194.305 1.688.25l.063-.007c.475-.052 1.002-.108 1.725.005.606.094 1.287-.174 1.58-.8.067-.142.13-.286.19-.431a4.92 4.92 0 0 0 .142-.411.504.504 0 0 1 .049-.13.534.534 0 0 1 .108-.098c.264-.21.477-.466.643-.71.422-.62.72-1.422.936-2.178.204-.717.35-1.458.449-2.09.019-.1.034-.203.045-.309.08-.574.122-1.05.126-1.3a2.305 2.305 0 0 0-.236-1.024c-.072-.156-.165-.318-.235-.441l-.005-.01a8.087 8.087 0 0 1-.09-.16c-.06-.1-.105-.208-.131-.322-.013-.09 0-.18.035-.264l.033-.09a.604.604 0 0 0 .027-.315l-.003-.013a11.67 11.67 0 0 0-.304-1.25 5.814 5.814 0 0 0-.365-.933 2.532 2.532 0 0 0-.3-.465 1.49 1.49 0 0 0-.603-.445l-.247-.09a5.367 5.367 0 0 1-.093-.035c-.058-.021-.087-.032-.1-.057-.012-.025-.004-.054.012-.113l.03-.115.397-1.466a.596.596 0 0 0-.016-.366c-.023-.06-.034-.09-.03-.111.004-.02.025-.041.065-.082.044-.044.086-.09.124-.14a.6.6 0 0 0 .107-.211c.112-.402.223-.8.329-1.17.145-.511-.18-.9-.478-1.056-.29-.153-.8-.212-1.15.19-.592.685-1.16 1.39-1.705 2.113Z"
    clip-rule="evenodd"
  />
</svg>
