<svg width="124" height="32" viewBox="0 0 124 32" fill="none" xmlns="http://www.w3.org/2000/svg">
  <path
    fill-rule="evenodd"
    clip-rule="evenodd"
    d="M115.987 20.4215V8.12855H113.528V11.6497L110.889 12.0544L110.769 12.0724H110.769C109.577 12.2523 108.68 12.3878 108.003 12.9947C107.293 13.611 106.938 14.4543 106.938 15.5247V16.951C106.938 18.0213 107.293 18.8646 108.003 19.481C108.703 20.108 109.665 20.4215 110.889 20.4215H115.987ZM113.529 18.3133V13.7619L111.053 14.1623L111.033 14.1658L111.005 14.1704L110.971 14.1762L110.97 14.1764L110.969 14.1766L110.969 14.1766L110.946 14.1805L110.907 14.187H110.906L110.899 14.1881C110.438 14.2658 110.097 14.3233 109.84 14.5673C109.622 14.7591 109.485 15.0071 109.428 15.3114V17.1639C109.485 17.4681 109.622 17.7161 109.84 17.9079C110.125 18.1781 110.529 18.3132 111.053 18.3131L113.529 18.3133Z"
    fill="#9096B2"
  />
  <path
    d="M95.4659 20.5354C94.384 20.5354 93.5426 20.2489 92.9416 19.676C92.3514 19.0923 92.0564 18.2815 92.0564 17.2438V13.6928H90.5483V11.5849H90.6303C91.0893 11.5849 91.439 11.4714 91.6794 11.2444C91.9307 11.0174 92.0564 10.6769 92.0564 10.2229V9.24999H94.5152V11.5849H96.6134V13.6928H94.5152V17.0816C94.5152 17.5357 94.6408 17.8762 94.8922 18.1032C95.1435 18.3194 95.526 18.4275 96.0396 18.4275C96.1926 18.4275 96.3839 18.4112 96.6134 18.3788V20.4543C96.2527 20.5083 95.8702 20.5354 95.4659 20.5354Z"
    fill="#9096B2"
  />
  <path
    d="M89.7308 13.6869H88.3901C87.5723 13.6869 87.1633 13.6871 86.8511 13.8445C86.5766 13.983 86.3535 14.2037 86.2135 14.4751C86.0543 14.7841 86.0543 15.1886 86.0543 15.9976V20.4329H83.5953V16.8314C83.5953 14.9929 83.5953 14.0736 83.9569 13.3714C84.2751 12.7536 84.7828 12.2513 85.4073 11.9364C86.1171 11.5786 87.0465 11.5786 88.9052 11.5786H89.7308V13.6869Z"
    fill="#9096B2"
  />
  <path
    fill-rule="evenodd"
    clip-rule="evenodd"
    d="M75.7082 20.0572C76.4513 20.4571 77.26 20.6571 78.1343 20.6571C79.0085 20.6571 79.8117 20.4571 80.5439 20.0572C81.276 19.6572 81.8552 19.1059 82.2814 18.4033C82.7076 17.7007 82.9207 16.9116 82.9207 16.036C82.9207 15.1604 82.7076 14.3713 82.2814 13.6686C81.8552 12.966 81.276 12.4147 80.5439 12.0147C79.8117 11.6148 79.0085 11.4148 78.1343 11.4148C77.26 11.4148 76.4513 11.6148 75.7082 12.0147C74.9761 12.4147 74.3969 12.966 73.9707 13.6686C73.5445 14.3713 73.3314 15.1604 73.3314 16.036C73.3314 16.9116 73.5445 17.7007 73.9707 18.4033C74.3969 19.1059 74.9761 19.6572 75.7082 20.0572ZM79.2981 18.1601C78.9593 18.3655 78.5714 18.4682 78.1343 18.4682C77.6971 18.4682 77.3037 18.3655 76.954 18.1601C76.6153 17.9547 76.3475 17.6682 76.1508 17.3007C75.9651 16.9332 75.8722 16.5116 75.8722 16.036C75.8722 15.5711 75.9651 15.155 76.1508 14.7874C76.3475 14.4199 76.6153 14.1335 76.954 13.9281C77.3037 13.7119 77.6971 13.6038 78.1343 13.6038C78.5714 13.6038 78.9593 13.7119 79.2981 13.9281C79.6368 14.1335 79.8991 14.4199 80.0849 14.7874C80.2816 15.155 80.38 15.5711 80.38 16.036C80.38 16.5116 80.2816 16.9332 80.0849 17.3007C79.8991 17.6682 79.6368 17.9547 79.2981 18.1601Z"
    fill="#9096B2"
  />
  <path
    fill-rule="evenodd"
    clip-rule="evenodd"
    d="M63.5641 23.8715V11.5786H68.6623C69.8864 11.5786 70.8482 11.8921 71.5476 12.519C72.2581 13.1354 72.6133 13.9787 72.6133 15.049V16.4754C72.6134 17.5457 72.2581 18.389 71.5476 19.0053C70.8707 19.6122 69.9741 19.7477 68.7825 19.9277H68.7816L68.6623 19.9457L66.0228 20.3503V23.8715H63.5641ZM66.0221 18.2381V13.6867L68.4976 13.6869C69.0219 13.6869 69.4262 13.8219 69.7107 14.0922C69.9288 14.284 70.0663 14.532 70.1233 14.8362V16.6887C70.0664 16.9929 69.9288 17.241 69.7107 17.4328C69.4543 17.6767 69.1133 17.7342 68.6516 17.812L68.6454 17.813H68.6436L68.6206 17.8169L68.5291 17.8324L68.4976 17.8378L66.0221 18.2381Z"
    fill="#9096B2"
  />
  <path
    fill-rule="evenodd"
    clip-rule="evenodd"
    d="M53.7968 23.8715V11.5786H58.895C60.1191 11.5786 61.0809 11.8921 61.7803 12.519C62.4908 13.1354 62.846 13.9787 62.846 15.049V16.4754C62.8461 17.5457 62.4909 18.389 61.7803 19.0053C61.1034 19.6122 60.2068 19.7477 59.0152 19.9277H59.0143L58.895 19.9457L56.2555 20.3503V23.8715H53.7968ZM56.2548 18.2381V13.6867L58.7303 13.6869C59.2546 13.6869 59.6589 13.8219 59.9434 14.0922C60.1615 14.284 60.299 14.532 60.356 14.8362V16.6887C60.2991 16.9929 60.1615 17.241 59.9434 17.4328C59.687 17.6767 59.3461 17.7342 58.8843 17.812L58.8781 17.813H58.8763L58.8511 17.8173L58.7626 17.8323L58.7303 17.8378L56.2548 18.2381Z"
    fill="#9096B2"
  />
  <path
    fill-rule="evenodd"
    clip-rule="evenodd"
    d="M102.008 20.6571C101.09 20.6571 100.276 20.4517 99.5656 20.041C98.8552 19.6302 98.3034 19.0735 97.91 18.3709C97.5275 17.6574 97.3363 16.8737 97.3363 16.0198C97.3363 15.155 97.533 14.3713 97.9264 13.6686C98.3198 12.966 98.8607 12.4147 99.5492 12.0147C100.238 11.6148 101.003 11.4148 101.844 11.4148C102.762 11.4148 103.554 11.604 104.221 11.9823C104.887 12.3607 105.396 12.8849 105.745 13.5551C106.095 14.2145 106.27 14.955 106.27 15.7765C106.27 16.1765 106.232 16.49 106.155 16.717H99.8866C99.9159 16.9436 99.9728 17.1544 100.057 17.3493C100.221 17.7277 100.473 18.025 100.811 18.2412C101.161 18.4465 101.571 18.5492 102.041 18.5492C102.467 18.5492 102.838 18.4628 103.155 18.2898C103.472 18.1168 103.718 17.879 103.893 17.5764L105.86 18.5006C105.587 19.1492 105.101 19.6734 104.401 20.0734C103.713 20.4626 102.915 20.6571 102.008 20.6571ZM100.041 14.5929C100.003 14.7005 99.9708 14.814 99.9452 14.9334H103.664C103.65 14.7987 103.622 14.669 103.582 14.5442C103.461 14.1767 103.248 13.8902 102.942 13.6848C102.636 13.4687 102.27 13.3606 101.844 13.3606C101.418 13.3606 101.046 13.4687 100.729 13.6848C100.423 13.8902 100.194 14.1929 100.041 14.5929Z"
    fill="#9096B2"
  />
  <path
    d="M40.5451 20.6446C39.5616 20.6771 38.6983 20.4771 37.9552 20.0447C37.2121 19.6123 36.6985 19.0124 36.4144 18.2449L38.1847 17.3369C38.436 17.8125 38.7584 18.1746 39.1518 18.4233C39.5561 18.6719 39.9987 18.7908 40.4795 18.78C40.8183 18.7692 41.0806 18.6935 41.2664 18.553C41.4521 18.4016 41.5396 18.2017 41.5286 17.953C41.5177 17.7585 41.4357 17.5963 41.2827 17.4666C41.1298 17.3369 40.9057 17.245 40.6107 17.191L39.0862 16.8991C38.3541 16.7261 37.7804 16.4073 37.3651 15.9424C36.9498 15.4776 36.7313 14.9263 36.7094 14.2886C36.6985 13.7481 36.8242 13.267 37.0864 12.8455C37.3596 12.4131 37.7476 12.0726 38.2503 11.8239C38.7529 11.5753 39.3376 11.4402 40.0042 11.4186C40.8784 11.3862 41.6488 11.5645 42.3154 11.9537C42.993 12.332 43.4847 12.8833 43.7907 13.6075L42.004 14.5156C41.851 14.1588 41.5997 13.8778 41.25 13.6724C40.9003 13.4562 40.5069 13.3535 40.0698 13.3643C39.7528 13.3751 39.507 13.4508 39.3321 13.5913C39.1573 13.721 39.0753 13.8994 39.0862 14.1264C39.0972 14.3102 39.1791 14.4669 39.3321 14.5966C39.496 14.7155 39.7474 14.8182 40.0861 14.9047L41.5122 15.1966C42.2663 15.3911 42.8454 15.71 43.2498 16.1532C43.665 16.5964 43.8836 17.1369 43.9054 17.7747C43.9164 18.326 43.7852 18.8124 43.512 19.234C43.2498 19.6556 42.8618 19.9907 42.3482 20.2393C41.8346 20.4879 41.2336 20.623 40.5451 20.6446Z"
    fill="#9096B2"
  />
  <path
    d="M52.9151 20.4206H48.6696C47.4457 20.4206 46.484 20.1071 45.7846 19.4801C45.0743 18.864 44.7192 18.0208 44.7192 16.9507V11.5674H47.178V16.8209C47.178 17.2749 47.3146 17.6371 47.5877 17.9073C47.8609 18.1776 48.2216 18.3127 48.6696 18.3127H50.4563V11.5674H52.9151L52.9151 20.4206Z"
    fill="#9096B2"
  />
  <path
    d="M24.3304 3.92544C24.4533 3.49308 23.8202 3.16892 23.5372 3.49588C22.6618 4.50731 21.8414 5.54868 21.1383 6.4853C21.5693 6.48949 22.0714 6.43833 22.5439 6.31212C23.1324 6.15493 23.6062 5.90058 23.8734 5.55984C24.0281 4.99915 24.1831 4.4437 24.3304 3.92544Z"
    fill="#9096B2"
  />
  <path
    d="M19.6097 8.60363C19.8721 8.22509 20.1922 7.77181 20.5578 7.2701C20.5606 7.27059 20.5634 7.27104 20.5663 7.27146C20.5704 7.27209 20.5746 7.27266 20.5788 7.27316C21.1831 7.34626 22.0014 7.30856 22.7606 7.10576C23.0175 7.03713 23.2781 6.94669 23.5257 6.82949C23.3241 7.57093 23.134 8.27792 22.9751 8.87229C22.4346 9.33861 21.8156 9.38217 21.2203 9.28659C20.5399 9.17736 19.9191 8.85645 19.6097 8.60363Z"
    fill="#9096B2"
  />
  <path
    d="M19.1428 8.45905C19.3068 8.45905 19.4667 8.50703 19.6026 8.59633C19.5421 7.18411 19.4972 5.91609 19.4793 5.39641C19.4753 5.27887 19.3574 5.21746 19.2667 5.2936C19.1115 5.42402 18.8688 5.6606 18.542 6.07535C18.0085 6.75229 17.4383 7.63052 17.1242 8.58764C17.7117 8.51476 18.3569 8.45905 18.9731 8.45905H19.1428Z"
    fill="#9096B2"
  />
  <path
    d="M15.3411 13.8288C15.4626 14.0835 15.7599 14.2019 16.0051 14.0932C16.4077 13.9147 17.0075 13.7628 17.5889 13.7502C18.1895 13.7372 18.6454 13.8736 18.8943 14.1264C19.0928 14.328 19.4065 14.3375 19.5947 14.1476C19.783 13.9577 19.7746 13.6402 19.576 13.4386C19.0195 12.8735 18.2067 12.7323 17.5118 12.7473C16.7976 12.7627 16.0752 12.9444 15.5651 13.1706C15.3199 13.2793 15.2196 13.574 15.3411 13.8288Z"
    fill="#9096B2"
  />
  <path
    d="M17.3472 15.0043C17.0704 15.0043 16.8459 15.2263 16.8459 15.5002C16.8459 15.774 17.0704 15.9961 17.3472 15.9961H18.469C18.7459 15.9961 18.9703 15.774 18.9703 15.5002C18.9703 15.2263 18.7459 15.0043 18.469 15.0043H17.3472Z"
    fill="#9096B2"
  />
  <path
    fill-rule="evenodd"
    clip-rule="evenodd"
    d="M21.0112 10.0996C20.5217 10.0138 20.0963 9.84178 19.7851 9.68442C19.5312 9.55359 19.3136 9.41169 19.1462 9.28168L19.1456 9.28264L19.1432 9.28084L18.9735 9.28084C17.9437 9.28084 16.8036 9.44936 16.0216 9.58389C14.4798 9.84915 13.44 10.2422 12.8098 10.8765C12.1499 11.5406 12.0255 12.3763 12.0709 13.2748C12.1251 14.3506 12.2935 16.0677 12.4469 17.5055C12.5238 18.2266 12.5974 18.8812 12.6517 19.3555C12.6789 19.5927 12.7012 19.7849 12.7168 19.9178L12.7427 20.1366L12.7446 20.1484C13.104 22.2737 14.5593 23.7198 16.3547 24.707C18.1446 25.6911 20.3295 26.2535 22.2855 26.6033L22.3062 26.607L22.3271 26.609C23.2822 26.699 23.9983 26.087 24.5024 25.3426C25.0132 24.5882 25.3987 23.5728 25.688 22.5521C25.9604 21.5911 26.1573 20.5888 26.2908 19.7282C26.315 19.6023 26.3349 19.4726 26.3478 19.342C26.459 18.5502 26.5117 17.9196 26.5167 17.6195C26.5236 17.2125 26.4079 16.8618 26.2674 16.5594C26.181 16.3735 26.0666 16.1718 25.9651 15.9928L25.9643 15.9915L25.9641 15.9911C25.9149 15.9042 25.8687 15.8228 25.8302 15.751C25.575 15.2753 25.4296 14.8564 25.6491 14.2564L25.6952 14.1302L25.6702 13.9953L25.6689 13.9881C25.6677 13.982 25.6661 13.9732 25.6639 13.9619C25.6595 13.9394 25.6531 13.9068 25.6447 13.8655C25.6279 13.783 25.6033 13.6656 25.5712 13.5241C25.5072 13.2419 25.4129 12.8597 25.2924 12.4653C25.173 12.0746 25.0226 11.6542 24.8426 11.3037C24.7527 11.1284 24.6483 10.9567 24.5271 10.8112C24.4092 10.6698 24.2493 10.5215 24.0398 10.4407C23.6437 10.2881 23.3525 10.1804 23.1594 10.1105C23.0628 10.0756 22.9908 10.0501 22.9424 10.0332L22.9264 10.0276L22.9002 10.0185L22.8875 10.0141L22.8732 10.0092L22.8675 10.0073L22.6893 9.94729L22.6917 9.93805C22.3334 10.0871 21.9675 10.15 21.6134 10.1532C21.433 10.1529 21.2308 10.1381 21.0112 10.0996ZM23.6728 11.3637C23.2845 11.2142 23.0008 11.1092 22.8149 11.042C22.7717 11.0263 22.7338 11.0127 22.701 11.0011C22.6001 11.0302 22.4628 11.0639 22.2943 11.0914C21.9351 11.15 21.4316 11.1806 20.8362 11.0762C20.2008 10.9648 19.6641 10.7407 19.2884 10.547C19.0996 10.4496 18.9488 10.3586 18.8436 10.2907L18.8332 10.284L18.818 10.2741C17.9182 10.2897 16.9229 10.4356 16.1934 10.5611C14.6946 10.8189 13.9238 11.1702 13.5249 11.5717C13.1557 11.9434 13.0324 12.435 13.0723 13.2253C13.1114 14.001 13.2127 15.1333 13.3252 16.2547C13.5156 16.0534 13.7621 15.9211 14.0406 15.8933C14.7382 15.8236 15.372 16.4357 15.4563 17.2605C15.5405 18.0853 15.0433 18.8105 14.3457 18.8802C14.0721 18.9075 13.8083 18.83 13.5836 18.6759C13.607 18.8846 13.6287 19.0756 13.648 19.2439C13.6751 19.4801 13.6973 19.6714 13.7128 19.8036C13.7206 19.8697 13.7266 19.921 13.7307 19.9557L13.7356 19.9964C14.0298 21.7112 15.204 22.9396 16.8418 23.84C18.4029 24.6984 20.3331 25.2273 22.163 25.5721C22.1313 25.1103 22.0605 24.6231 21.987 24.2075C21.9376 23.9277 21.888 23.6862 21.8508 23.5149L21.8447 23.4866H21.4739C21.197 23.4866 20.9726 23.2645 20.9726 22.9907C20.9726 22.7168 21.197 22.4947 21.4739 22.4947H23.0165C23.2933 22.4947 23.5178 22.7168 23.5178 22.9907C23.5178 23.2645 23.2934 23.4866 23.0165 23.4866H22.8693C22.9015 23.6423 22.9381 23.8295 22.9747 24.0366C23.0439 24.4278 23.1149 24.9011 23.1535 25.3738C23.3231 25.2396 23.495 25.048 23.6693 24.7906C24.0924 24.1657 24.4435 23.2687 24.7225 22.2844C24.8093 21.9781 24.8881 21.6674 24.9592 21.359C24.8833 21.3704 24.8065 21.3762 24.7295 21.3762H23.7737C23.1273 21.3762 22.5348 21.0195 22.2379 20.4515L22.0517 20.0953L22.0165 20.2011C21.783 20.9026 21.1207 21.3766 20.3741 21.3766H18.3378C17.8164 21.3766 17.3228 21.1438 16.9945 20.7431L16.1789 19.7476C16.0046 19.5348 16.0377 19.2225 16.2528 19.0501C16.4679 18.8776 16.7836 18.9104 16.9579 19.1231L17.7735 20.1186C17.9114 20.287 18.1188 20.3848 18.3378 20.3848H20.3741C20.6878 20.3848 20.966 20.1856 21.0641 19.8909L21.1328 19.6845C20.9051 19.6771 20.7107 19.5092 20.6759 19.2718C20.6358 18.9987 20.8223 18.7371 21.0925 18.6875L23.1621 18.3074C23.2685 18.2879 23.3268 18.1672 23.2757 18.073C22.965 17.5008 22.4984 16.6388 21.8987 15.523C21.8927 15.5117 21.887 15.5001 21.8818 15.4883C21.6264 14.9068 21.5409 14.3657 21.7158 13.9026C21.9003 13.4141 22.3132 13.164 22.713 13.0528C23.1077 12.943 23.5527 12.9459 23.9583 13.0007C24.1173 13.0222 24.276 13.0525 24.4302 13.0899C24.4 12.9797 24.3674 12.8663 24.3326 12.7523C24.2203 12.3847 24.0898 12.0278 23.9486 11.7528C23.878 11.6153 23.8118 11.5122 23.7533 11.4421C23.7067 11.3861 23.6789 11.3678 23.6737 11.3644L23.6732 11.364L23.6728 11.3637ZM23.1285 19.9959L22.8106 19.3877L23.3071 19.2965C24.0925 19.1523 24.5236 18.2624 24.1452 17.5656C23.9316 17.1722 23.6441 16.6413 23.29 15.9848C23.3245 15.9922 23.3603 15.9961 23.3971 15.9961H23.938C24.2149 15.9961 24.4393 15.7741 24.4393 15.5002C24.4393 15.2263 24.2149 15.0042 23.938 15.0042H23.3971C23.1853 15.0043 23.0042 15.1341 22.9307 15.3177C22.8814 15.226 22.831 15.1323 22.7797 15.0368C22.576 14.5661 22.6021 14.3301 22.6377 14.236C22.6641 14.1661 22.732 14.0811 22.9451 14.0218C23.1633 13.9611 23.4632 13.9522 23.7967 13.9973C24.0889 14.0368 24.3781 14.1138 24.6169 14.207C24.4044 15.0459 24.6624 15.6901 24.9444 16.2159C25.007 16.3325 25.0642 16.433 25.1175 16.5264C24.9736 16.6702 24.8631 16.874 24.8353 17.1629C24.7681 17.8616 24.9778 18.4656 25.4081 18.8014C25.3793 19.0341 25.3442 19.2889 25.3025 19.5594C25.2647 19.7509 25.2126 19.9396 25.1582 20.1092C25.1096 20.2604 24.9513 20.3843 24.7295 20.3843H23.7737C23.5022 20.3843 23.2533 20.2345 23.1285 19.9959Z"
    fill="#9096B2"
  />
  <path
    fill-rule="evenodd"
    clip-rule="evenodd"
    d="M22.1363 27.4122C20.2008 27.0661 17.9788 26.5053 16.1016 25.5076C16.1578 26.5345 16.3714 27.8954 17.085 28.3438C17.651 28.6994 18.2109 28.6383 18.9631 28.5563C19.635 28.4829 20.4602 28.3929 21.5803 28.568C22.1044 28.65 22.6434 28.4117 22.8652 27.9349C22.9658 27.7187 23.0479 27.5347 23.1124 27.3744C22.8452 27.4348 22.5569 27.4565 22.247 27.4273L22.2261 27.4253C22.2029 27.4231 22.1799 27.42 22.157 27.4159L22.1363 27.4122ZM18.2674 27.4645C18.2674 27.718 18.0596 27.9236 17.8033 27.9236C17.547 27.9236 17.3392 27.718 17.3392 27.4645C17.3392 27.211 17.547 27.0054 17.8033 27.0054C18.0596 27.0054 18.2674 27.211 18.2674 27.4645Z"
    fill="#9096B2"
  />
  <path
    d="M11.8446 19.5988L11.8063 19.2652C10.747 19.4634 9.73018 19.7948 8.95648 20.2323C8.25175 20.6309 7.81383 21.0805 7.66935 21.5321C7.55518 21.8889 7.60204 22.3223 8.00625 22.8559C8.18809 23.0959 8.57697 23.3868 8.95422 23.611C10.9278 24.7835 13.2909 24.8389 14.7037 24.6257C13.3347 23.5981 12.247 22.1929 11.9243 20.2842C11.9218 20.2697 11.9198 20.2552 11.9181 20.2406C11.8936 20.0261 11.8691 19.8122 11.8446 19.5988Z"
    fill="#9096B2"
  />
  <path
    d="M11.6209 17.5919C11.5014 16.471 11.371 15.1654 11.2931 14.1225C10.5174 14.2852 9.72317 14.5048 8.9901 14.8242C8.03858 15.2388 7.24121 15.8039 6.74801 16.5888C6.52206 16.9483 6.3536 17.3642 6.26663 17.8493C6.09706 18.9788 6.29277 20.2001 6.86424 21.3061C6.87071 21.2831 6.87761 21.2601 6.88495 21.2372C7.11725 20.5112 7.75481 19.9382 8.52334 19.5036C9.40376 19.0057 10.5419 18.6409 11.7129 18.4311C11.6815 18.1514 11.6508 17.8718 11.6209 17.5919Z"
    fill="#9096B2"
  />
  <path
    d="M13.7527 5.85329C13.0884 6.59186 12.3749 7.57185 12.0521 8.63436C11.9706 8.90264 11.9374 9.31619 11.9321 9.78675C9.24385 10.3996 6.80961 11.4336 6.30963 13.1624C6.01056 14.1965 6.00312 15.2099 6.11226 16.0423C6.72344 15.1123 7.65385 14.4848 8.65893 14.0469C9.47738 13.6903 10.3778 13.4482 11.2394 13.2722C11.1955 12.2956 11.3299 11.194 12.2177 10.3004C12.8826 9.63122 13.8361 9.22344 15.0116 8.94836C14.918 7.30144 14.846 5.73849 14.8203 5.16271C14.8152 5.04966 14.7025 4.98608 14.6096 5.05205C14.435 5.17594 14.1476 5.41417 13.7527 5.85329Z"
    fill="#9096B2"
  />
  <path
    fill-rule="evenodd"
    clip-rule="evenodd"
    d="M111.872 0.000140296L15.7854 0C9.28692 0 6.03766 0 4.01883 1.99699C2 3.99398 2 7.20808 2 13.6363V18.3636C2 24.7918 2 28.0059 4.01883 30.0029C6.03766 31.9999 9.28691 31.9999 15.7854 31.9999L110.143 32C111.856 32.0002 112.905 32.0003 113.909 31.7822C115.003 31.5445 116.046 31.1166 116.989 30.5182C117.855 29.9692 118.595 29.2346 119.805 28.0351L120.012 27.8298C121.219 26.634 121.958 25.9018 122.51 25.0473C123.112 24.1161 123.542 23.0869 123.781 22.0073C124 21.0165 124 19.982 124 18.2925L124 11.9968C124 9.50423 124 7.5125 123.788 5.94985C123.568 4.33449 123.102 3.0004 122.034 1.94446C120.967 0.888521 119.618 0.427374 117.985 0.210192C116.405 9.59679e-05 114.392 0.000115664 111.872 0.000140296ZM121.428 21.4976C121.584 20.7893 121.591 20.0269 121.591 18.1477V12.0852C121.591 9.48389 121.588 7.65276 121.4 6.26737C121.216 4.91626 120.876 4.16886 120.331 3.62948C119.786 3.09009 119.03 2.75357 117.664 2.57191C116.264 2.38565 114.413 2.38312 111.783 2.38311L30.908 2.38297L30.908 29.6169L109.996 29.617C111.902 29.617 112.675 29.6106 113.392 29.4546C114.208 29.2775 114.986 28.9585 115.689 28.5124C116.307 28.1199 116.858 27.5832 118.204 26.2491C119.546 24.9189 120.085 24.3747 120.48 23.7638C120.929 23.0696 121.25 22.3024 121.428 21.4976ZM20.527 5.88923C20.4582 5.98055 20.4237 6.02621 20.3948 6.02307C20.3881 6.02234 20.3821 6.0205 20.3762 6.01731C20.3506 6.00361 20.3486 5.94787 20.3446 5.8364C20.3385 5.66256 20.3313 5.46004 20.3281 5.36848C20.3165 5.02984 20.1297 4.69222 19.7863 4.52163C19.426 4.3426 19.0088 4.40718 18.7158 4.6534C18.5082 4.82789 18.2261 5.10836 17.871 5.55901C17.3062 6.27577 16.6717 7.2421 16.3152 8.32864C16.2965 8.38571 16.2553 8.51992 16.2278 8.60992C16.2147 8.65299 16.2081 8.67452 16.1921 8.68867C16.1761 8.70281 16.1537 8.70682 16.1091 8.71483C16.0666 8.72247 16.0142 8.73184 15.9632 8.7409C15.9108 8.7502 15.8846 8.75485 15.8666 8.7408C15.8486 8.72675 15.8472 8.70037 15.8442 8.64762C15.758 7.10099 15.6921 5.67092 15.6678 5.12629C15.6529 4.79423 15.471 4.47408 15.1528 4.30266C14.821 4.12392 14.4194 4.15182 14.1125 4.36967C13.8781 4.53597 13.5449 4.81836 13.1161 5.29517C12.4183 6.07094 11.6113 7.15944 11.2365 8.39306C11.1833 8.5682 11.1476 8.76861 11.1239 8.97911C11.1161 9.04851 11.1121 9.08321 11.0916 9.10678C11.0712 9.13034 11.0377 9.13917 10.9708 9.15684C9.85892 9.45033 8.78659 9.82888 7.88726 10.3211C6.79577 10.9185 5.83137 11.7548 5.49099 12.9318C5.15319 14.0998 5.14745 15.2323 5.2679 16.151C5.29915 16.3893 5.43065 16.5973 5.62134 16.7302C5.65852 16.7562 5.67711 16.7691 5.68218 16.7857C5.68725 16.8022 5.67963 16.8217 5.66439 16.8608C5.56187 17.1231 5.48203 17.4036 5.42834 17.7031C5.42695 17.7109 5.42567 17.7186 5.42451 17.7264C5.22829 19.0334 5.45598 20.4312 6.106 21.6893C6.22738 21.9242 6.45024 22.0847 6.70352 22.1326C6.74356 22.1401 6.76357 22.1439 6.77469 22.1551C6.78581 22.1662 6.78915 22.185 6.79585 22.2227C6.86273 22.5987 7.03805 22.9807 7.32583 23.3606C7.61113 23.7372 8.11988 24.0967 8.51635 24.3323C10.6589 25.6052 13.1639 25.6845 14.7054 25.4755L15.077 25.439C15.1502 25.4318 15.1868 25.4282 15.2118 25.4485C15.2367 25.4688 15.2402 25.505 15.2473 25.5775L15.2702 25.8137C15.3076 26.3004 15.382 26.8563 15.529 27.3717C15.6923 27.9443 15.997 28.6568 16.6295 29.0542C17.4511 29.5705 18.2839 29.4783 18.9695 29.4023L18.9701 29.4022C18.9992 29.399 19.028 29.3958 19.0565 29.3927C19.7151 29.3209 20.4458 29.2426 21.4478 29.3992C22.2882 29.5307 23.2326 29.1574 23.6375 28.2871C23.7404 28.066 23.8296 27.8666 23.9022 27.6863C23.9868 27.4762 24.0553 27.2626 24.0994 27.1146C24.1282 27.0178 24.1426 26.9694 24.1662 26.9344C24.1898 26.8995 24.2318 26.8658 24.3159 26.7983C24.6821 26.5047 24.9782 26.1495 25.2073 25.8111C25.7924 24.947 26.2071 23.8313 26.5052 22.7798C26.7878 21.7827 26.9904 20.7514 27.1274 19.871C27.1534 19.7339 27.1755 19.5901 27.1907 19.4423C27.3024 18.6435 27.3595 17.9812 27.3653 17.6342C27.375 17.0562 27.2091 16.5762 27.0384 16.209C26.9376 15.9921 26.8093 15.7659 26.7124 15.595L26.7052 15.5824C26.6542 15.4924 26.6129 15.4196 26.5798 15.3578C26.465 15.1438 26.4164 15.0156 26.3985 14.9112C26.384 14.8258 26.3833 14.7177 26.4471 14.5433L26.4933 14.4171C26.5445 14.2771 26.5572 14.126 26.5301 13.9795L26.5268 13.9618C26.5115 13.8796 26.4953 13.7919 26.4768 13.7007C26.459 13.613 26.4329 13.4894 26.3993 13.341C26.3325 13.0464 26.2332 12.6431 26.1048 12.223C25.9794 11.8125 25.8121 11.3384 25.5993 10.9239C25.4928 10.7165 25.3562 10.4866 25.1817 10.2773C25.0164 10.079 24.7454 9.81165 24.3471 9.6582C24.3064 9.64251 24.1705 9.59353 24.0044 9.53366L24.0042 9.53359C23.9654 9.51959 23.9191 9.50216 23.8747 9.4852C23.7952 9.45482 23.7555 9.43964 23.7378 9.40535C23.7201 9.37107 23.7312 9.32997 23.7533 9.24776C23.7684 9.19139 23.7843 9.13196 23.7961 9.08777C23.9548 8.49426 24.1446 7.78846 24.3458 7.04845C24.3924 6.87701 24.3822 6.69954 24.3226 6.53948C24.2912 6.45494 24.2754 6.41267 24.2816 6.38417C24.2878 6.35568 24.3158 6.32741 24.3718 6.27088C24.4329 6.20925 24.4906 6.14425 24.5443 6.07573C24.6128 5.98835 24.6632 5.88846 24.6927 5.78177C24.847 5.22251 25.0014 4.6692 25.1479 4.15352C25.3499 3.44281 24.8977 2.90258 24.4858 2.68494C24.0838 2.4725 23.3756 2.38961 22.8909 2.94966C22.0292 3.94521 21.2224 4.96636 20.527 5.88923Z"
    fill="#9096B2"
  />
</svg>
