<svg width="124" height="33" viewBox="0 0 124 33" fill="none" xmlns="http://www.w3.org/2000/svg">
  <path
    fill-rule="evenodd"
    clip-rule="evenodd"
    d="M24.8729 11.542C25.0592 11.6092 25.3437 11.7142 25.7331 11.8637C25.7331 11.8637 25.7335 11.864 25.734 11.8644C25.7393 11.8678 25.7672 11.8861 25.8139 11.9421C25.8725 12.0122 25.939 12.1153 26.0098 12.2528C26.1513 12.5278 26.2821 12.8847 26.3948 13.2523C26.4297 13.3663 26.4624 13.4797 26.4927 13.5899C26.338 13.5525 26.1789 13.5222 26.0194 13.5007C25.6128 13.4459 25.1665 13.443 24.7707 13.5528C24.3698 13.664 23.9557 13.9142 23.7707 14.4026C23.5953 14.8657 23.6811 15.4068 23.9372 15.9883C23.9424 16.0001 23.9481 16.0117 23.9542 16.023C24.5555 17.1388 25.0234 18.0008 25.3349 18.573C25.3862 18.6672 25.3278 18.7879 25.221 18.8074L23.1457 19.1875C22.8748 19.2371 22.6877 19.4987 22.7279 19.7718C22.7628 20.0092 22.9578 20.1771 23.1861 20.1845L23.1172 20.3909C23.0188 20.6856 22.7398 20.8848 22.4253 20.8848H20.3833C20.1637 20.8848 19.9557 20.787 19.8174 20.6186L18.9996 19.6231C18.8248 19.4104 18.5082 19.3777 18.2925 19.5501C18.0768 19.7225 18.0436 20.0348 18.2184 20.2476L19.0362 21.2431C19.3654 21.6438 19.8604 21.8766 20.3833 21.8766H22.4253C23.174 21.8766 23.8381 21.4026 24.0722 20.7011L24.1075 20.5953L24.2942 20.9515C24.592 21.5195 25.1861 21.8762 25.8344 21.8762H26.7928C26.87 21.8762 26.947 21.8704 27.0231 21.859C26.9518 22.1674 26.8729 22.4781 26.7858 22.7844C26.506 23.7687 26.1539 24.6657 25.7296 25.2906C25.5548 25.548 25.3825 25.7396 25.2124 25.8738C25.1737 25.4011 25.1025 24.9278 25.0332 24.5366C24.9964 24.3295 24.9597 24.1423 24.9274 23.9866H25.075C25.3527 23.9866 25.5777 23.7645 25.5777 23.4907C25.5777 23.2168 25.3527 22.9947 25.075 22.9947H23.5282C23.2505 22.9947 23.0254 23.2168 23.0254 23.4907C23.0254 23.7645 23.2505 23.9866 23.5282 23.9866H23.8999L23.9061 24.0149C23.9434 24.1862 23.9931 24.4277 24.0427 24.7075C24.1164 25.1231 24.1874 25.6103 24.2192 26.0721C22.3842 25.7273 20.4486 25.1984 18.8831 24.34C17.2408 23.4395 16.0633 22.2112 15.7683 20.4964L15.7634 20.4557C15.7593 20.421 15.7532 20.3697 15.7455 20.3036C15.7299 20.1714 15.7076 19.9801 15.6805 19.7439C15.6611 19.5756 15.6394 19.3846 15.6159 19.1759C15.8412 19.33 16.1057 19.4075 16.38 19.3802C17.0796 19.3105 17.5782 18.5853 17.4938 17.7605C17.4093 16.9357 16.7737 16.3236 16.0741 16.3933C15.7949 16.4211 15.5476 16.5534 15.3567 16.7547C15.244 15.6333 15.1424 14.501 15.1031 13.7253C15.0631 12.935 15.1867 12.4434 15.557 12.0717C15.957 11.6702 16.7299 11.3189 18.233 11.0611C18.9644 10.9356 19.9625 10.7897 20.8649 10.7741L20.8801 10.784L20.8905 10.7907C20.996 10.8586 21.1472 10.9496 21.3366 11.047C21.7133 11.2407 22.2515 11.4648 22.8887 11.5762C23.4857 11.6806 23.9906 11.65 24.3508 11.5914C24.5198 11.5639 24.6575 11.5302 24.7587 11.5011C24.7915 11.5127 24.8295 11.5263 24.8729 11.542ZM18.0441 14.5932C17.7982 14.7019 17.5001 14.5835 17.3783 14.3288C17.2564 14.074 17.357 13.7793 17.6029 13.6706C18.1144 13.4444 18.8389 13.2627 19.555 13.2473C20.2519 13.2323 21.0669 13.3735 21.625 13.9386C21.8241 14.1402 21.8325 14.4577 21.6437 14.6476C21.4549 14.8375 21.1404 14.828 20.9413 14.6264C20.6918 14.3737 20.2346 14.2372 19.6323 14.2502C19.0493 14.2628 18.4478 14.4147 18.0441 14.5932ZM19.39 15.5043C19.1124 15.5043 18.8873 15.7263 18.8873 16.0002C18.8873 16.274 19.1124 16.4961 19.39 16.4961H20.5149C20.7925 16.4961 21.0176 16.274 21.0176 16.0002C21.0176 15.7263 20.7925 15.5043 20.5149 15.5043H19.39Z"
    fill="#9096B2"
  />
  <path
    d="M24.8685 19.8877L25.1874 20.4959C25.3125 20.7345 25.5621 20.8843 25.8344 20.8843H26.7928C27.0152 20.8843 27.174 20.7604 27.2227 20.6092C27.2773 20.4396 27.3295 20.2509 27.3674 20.0594C27.4092 19.7889 27.4444 19.5341 27.4733 19.3014C27.0418 18.9656 26.8315 18.3616 26.8989 17.6629C26.9268 17.374 27.0376 17.1702 27.1819 17.0264C27.1284 16.933 27.0711 16.8325 27.0083 16.7159C26.7255 16.1901 26.4668 15.5459 26.6799 14.707C26.4404 14.6138 26.1504 14.5368 25.8574 14.4973C25.523 14.4522 25.2223 14.4611 25.0034 14.5218C24.7897 14.5811 24.7216 14.6661 24.6952 14.736C24.6595 14.8301 24.6333 15.0661 24.8375 15.5368C24.889 15.6323 24.9395 15.726 24.989 15.8177C25.0627 15.6341 25.2443 15.5042 25.4567 15.5042H25.9991C26.2767 15.5042 26.5018 15.7263 26.5018 16.0002C26.5018 16.2741 26.2767 16.4961 25.9991 16.4961H25.4567C25.4198 16.4961 25.3839 16.4922 25.3493 16.4848C25.7044 17.1413 25.9927 17.6722 26.2069 18.0656C26.5863 18.7624 26.154 19.6523 25.3665 19.7965L24.8685 19.8877Z"
    fill="#9096B2"
  />
  <path
    d="M19.8473 28.4236C20.1043 28.4236 20.3127 28.218 20.3127 27.9645C20.3127 27.711 20.1043 27.5054 19.8473 27.5054C19.5903 27.5054 19.3819 27.711 19.3819 27.9645C19.3819 28.218 19.5903 28.4236 19.8473 28.4236Z"
    fill="#9096B2"
  />
  <path
    fill-rule="evenodd"
    clip-rule="evenodd"
    d="M17.8238 32.4999C11.3072 32.4999 8.0489 32.4999 6.02445 30.5029C4 28.5059 4 25.2918 4 18.8636L4 14.1363C4 7.70808 4 4.49398 6.02445 2.49699C8.04891 0.5 11.3072 0.5 17.8238 0.5L111.417 0.500141C113.944 0.500117 115.963 0.500097 117.547 0.710193C119.185 0.927375 120.537 1.38852 121.608 2.44446C122.678 3.5004 123.146 4.83449 123.366 6.44985C123.579 8.01251 123.579 10.0042 123.579 12.4968L123.579 18.7925C123.579 20.482 123.579 21.5165 123.359 22.5073C123.12 23.5869 122.688 24.6161 122.085 25.5473C121.531 26.4018 120.79 27.134 119.58 28.3298L119.372 28.5351C118.159 29.7346 117.416 30.4692 116.549 31.0182C115.603 31.6166 114.557 32.0445 113.46 32.2822C112.453 32.5003 111.401 32.5002 109.683 32.5L17.8238 32.4999ZM32.9885 2.88297L32.9885 30.1169L109.536 30.117C111.447 30.117 112.222 30.1106 112.942 29.9546C113.76 29.7775 114.539 29.4585 115.244 29.0124C115.865 28.6199 116.417 28.0832 117.766 26.7491C119.112 25.4189 119.653 24.8747 120.049 24.2638C120.499 23.5696 120.821 22.8024 120.999 21.9976C121.157 21.2893 121.163 20.5269 121.163 18.6477V12.5852C121.163 9.98389 121.161 8.15276 120.972 6.76737C120.788 5.41626 120.446 4.66887 119.9 4.12948C119.353 3.59009 118.595 3.25357 117.226 3.07192C115.821 2.88565 113.965 2.88312 111.328 2.88311L32.9885 2.88297ZM25.5972 3.99588C25.881 3.66892 26.5158 3.99308 26.3926 4.42544C26.2449 4.9437 26.0895 5.49915 25.9343 6.05984C25.6664 6.40058 25.1912 6.65493 24.6011 6.81212C24.1273 6.93833 23.6238 6.98949 23.1916 6.98529C23.8967 6.04868 24.7193 5.00731 25.5972 3.99588ZM22.6095 7.7701C22.2429 8.27181 21.9219 8.72509 21.6587 9.10363C21.969 9.35645 22.5915 9.67736 23.2738 9.78659C23.8708 9.88217 24.4916 9.83861 25.0335 9.37229C25.1929 8.77792 25.3835 8.07093 25.5857 7.32949C25.3373 7.44669 25.076 7.53713 24.8184 7.60576C24.0571 7.80856 23.2365 7.84626 22.6305 7.77316C22.6234 7.77231 22.6164 7.77129 22.6095 7.7701ZM21.1905 8.95905C21.355 8.95905 21.5153 9.00703 21.6516 9.09633C21.5909 7.68411 21.5459 6.41609 21.528 5.89641C21.524 5.77887 21.4057 5.71746 21.3148 5.7936C21.1592 5.92402 20.9158 6.1606 20.588 6.57535C20.0531 7.25229 19.4813 8.13052 19.1664 9.08764C19.7554 9.01476 20.4025 8.95905 21.0204 8.95905L21.1905 8.95905ZM21.8346 10.1844C22.1467 10.3418 22.5733 10.5138 23.0642 10.5996C23.2844 10.6381 23.4871 10.6529 23.668 10.6532C24.0231 10.65 24.39 10.5871 24.7493 10.4381L24.7469 10.4473L24.9256 10.5073L24.9313 10.5092L24.9457 10.5141L24.9585 10.5185L24.9808 10.5263L25.0008 10.5332C25.0493 10.5501 25.1215 10.5756 25.2183 10.6105C25.412 10.6804 25.704 10.7881 26.1012 10.9407C26.3113 11.0215 26.4716 11.1698 26.5898 11.3112C26.7114 11.4567 26.816 11.6284 26.9063 11.8037C27.0867 12.1542 27.2375 12.5746 27.3573 12.9653C27.4781 13.3597 27.5726 13.7419 27.6368 14.0241C27.669 14.1656 27.6937 14.283 27.7106 14.3655C27.7155 14.3897 27.7197 14.411 27.7233 14.429L27.7259 14.4421L27.7298 14.4619C27.732 14.4732 27.7336 14.482 27.7348 14.4881L27.7362 14.4953L27.7367 14.4981L27.7612 14.6302L27.715 14.7564C27.4949 15.3564 27.6407 15.7753 27.8966 16.251C27.9354 16.3233 27.9821 16.4054 28.0319 16.4929C28.1337 16.6719 28.2483 16.8735 28.335 17.0594C28.4759 17.3618 28.5919 17.7125 28.585 18.1195C28.5799 18.4196 28.5271 19.0502 28.4156 19.842C28.4027 19.9726 28.3828 20.1022 28.3584 20.2282C28.2246 21.0888 28.0271 22.0911 27.754 23.0521C27.4639 24.0728 27.0772 25.0882 26.565 25.8426C26.0596 26.587 25.3415 27.199 24.3837 27.109L24.3627 27.107L24.342 27.1033C22.3805 26.7535 20.1896 26.1911 18.3947 25.207C16.5943 24.2198 15.1349 22.7737 14.7746 20.6484L14.7726 20.6366L14.7467 20.4178C14.731 20.2849 14.7086 20.0927 14.6814 19.8555C14.6269 19.3812 14.5531 18.7266 14.476 18.0055C14.3222 16.5677 14.1533 14.8506 14.0989 13.7748C14.0534 12.8763 14.1782 12.0406 14.8399 11.3765C15.4718 10.7422 16.5146 10.3491 18.0607 10.0839C18.8449 9.94936 19.9881 9.78084 21.0208 9.78084L21.191 9.78084L21.1933 9.78264L21.194 9.78168C21.3618 9.9117 21.58 10.0536 21.8346 10.1844ZM24.1924 27.9122C22.2515 27.5661 20.0233 27.0053 18.1409 26.0076C18.1972 27.0345 18.4115 28.3954 19.127 28.8438C19.6945 29.1994 20.256 29.1383 21.0104 29.0563C21.6841 28.9829 22.5117 28.8929 23.6348 29.068C24.1604 29.15 24.7008 28.9117 24.9233 28.4349C25.0242 28.2187 25.1065 28.0347 25.1712 27.8744C24.9032 27.9348 24.6141 27.9565 24.3034 27.9273L24.2824 27.9253C24.2592 27.9231 24.2361 27.92 24.2132 27.9159L24.1924 27.9122ZM13.8337 19.7652L13.872 20.0988C13.8966 20.3122 13.9212 20.5261 13.9457 20.7406C13.9474 20.7552 13.9494 20.7697 13.9519 20.7842C14.2755 22.6929 15.3663 24.0981 16.739 25.1257C15.3223 25.3389 12.9526 25.2835 10.9736 24.111C10.5953 23.8868 10.2053 23.5959 10.023 23.3559C9.61764 22.8223 9.57065 22.3889 9.68514 22.0321C9.83002 21.5805 10.2692 21.1309 10.9759 20.7323C11.7517 20.2948 12.7714 19.9634 13.8337 19.7652ZM13.6477 18.0919C13.5278 16.971 13.3971 15.6654 13.319 14.6225C12.5412 14.7852 11.7447 15.0048 11.0096 15.3242C10.0554 15.7388 9.25581 16.3039 8.76124 17.0888C8.53466 17.4483 8.36572 17.8642 8.27851 18.3493C8.10847 19.4788 8.30473 20.7001 8.87778 21.8061C8.88427 21.7831 8.8912 21.7601 8.89855 21.7372C9.1315 21.0112 9.77083 20.4382 10.5415 20.0036C11.4244 19.5057 12.5657 19.1409 13.7399 18.9311C13.7085 18.6514 13.6777 18.3718 13.6477 18.0919ZM14.0801 9.13436C14.4038 8.07185 15.1192 7.09186 15.7854 6.35329C16.1815 5.91417 16.4696 5.67594 16.6447 5.55205C16.7379 5.48608 16.8509 5.54966 16.856 5.66271C16.8818 6.23849 16.954 7.80144 17.0478 9.44836C15.8691 9.72344 14.9129 10.1312 14.2462 10.8004C13.3558 11.694 13.2211 12.7956 13.2651 13.7722C12.4011 13.9482 11.4982 14.1903 10.6775 14.5469C9.6696 14.9848 8.7366 15.6123 8.12371 16.5423C8.01427 15.7099 8.02173 14.6965 8.32163 13.6624C8.823 11.9336 11.264 10.8996 13.9598 10.2868C13.9651 9.81619 13.9983 9.40264 14.0801 9.13436Z"
    fill="#9096B2"
  />
  <path
    fill-rule="evenodd"
    clip-rule="evenodd"
    d="M88.6315 14.156H89.9692V12.0581H89.1454C87.2908 12.0581 86.3634 12.0582 85.6552 12.4142C85.0321 12.7275 84.5255 13.2273 84.208 13.8421C83.8471 14.5408 83.8471 15.4556 83.8471 17.2849V20.8686H86.3008V16.4553C86.3008 15.6503 86.3008 15.2477 86.4596 14.9403C86.5993 14.6702 86.822 14.4506 87.0958 14.3129C87.4073 14.1562 87.8155 14.156 88.6315 14.156Z"
    fill="#9096B2"
  />
  <path
    d="M95.4294 20.9703C94.3499 20.9703 93.5103 20.6853 92.9106 20.1152C92.3217 19.5344 92.0273 18.7276 92.0273 17.695V14.1616H90.5226V12.0642H90.6043C91.0623 12.0642 91.4113 11.9512 91.6512 11.7253C91.9019 11.4995 92.0273 11.1606 92.0273 10.7089V9.74083H94.4808V12.0642H96.5744V14.1616H94.4808V17.5337C94.4808 17.9855 94.6062 18.3243 94.857 18.5502C95.1078 18.7653 95.4894 18.8729 96.0019 18.8729C96.1546 18.8729 96.3454 18.8567 96.5744 18.8244V20.8896C96.2145 20.9434 95.8329 20.9703 95.4294 20.9703Z"
    fill="#9096B2"
  />
  <path
    d="M78.5178 21.0914C77.6455 21.0914 76.8386 20.8924 76.0971 20.4944C75.3665 20.0965 74.7886 19.5479 74.3633 18.8487C73.9381 18.1496 73.7255 17.3644 73.7255 16.4931C73.7255 15.6219 73.9381 14.8367 74.3633 14.1375C74.7886 13.4384 75.3665 12.8898 76.0971 12.4918C76.8386 12.0938 77.6455 11.8949 78.5178 11.8949C79.3901 11.8949 80.1916 12.0938 80.9222 12.4918C81.6528 12.8898 82.2307 13.4384 82.6559 14.1375C83.0812 14.8367 83.2938 15.6219 83.2938 16.4931C83.2938 17.3644 83.0812 18.1496 82.6559 18.8487C82.2307 19.5479 81.6528 20.0965 80.9222 20.4944C80.1916 20.8924 79.3901 21.0914 78.5178 21.0914ZM78.5178 18.9133C78.954 18.9133 79.3411 18.8111 79.6791 18.6067C80.0171 18.4024 80.2788 18.1173 80.4642 17.7516C80.6605 17.3859 80.7586 16.9664 80.7586 16.4931C80.7586 16.0306 80.6605 15.6165 80.4642 15.2508C80.2788 14.8851 80.0171 14.6 79.6791 14.3957C79.3411 14.1806 78.954 14.073 78.5178 14.073C78.0816 14.073 77.6891 14.1806 77.3402 14.3957C77.0022 14.6 76.735 14.8851 76.5387 15.2508C76.3533 15.6165 76.2607 16.0306 76.2607 16.4931C76.2607 16.9664 76.3533 17.3859 76.5387 17.7516C76.735 18.1173 77.0022 18.4024 77.3402 18.6067C77.6891 18.8111 78.0816 18.9133 78.5178 18.9133Z"
    fill="#9096B2"
  />
  <path
    fill-rule="evenodd"
    clip-rule="evenodd"
    d="M64.1427 12.0579V24.2899H66.596V20.7862L69.2297 20.3836L69.3488 20.3657H69.3496C70.5386 20.1866 71.4333 20.0518 72.1087 19.4479C72.8177 18.8346 73.1722 17.9955 73.1721 16.9304V15.5111C73.1721 14.4462 72.8176 13.607 72.1087 12.9937C71.4109 12.3698 70.4512 12.0579 69.2297 12.0579H64.1427ZM66.5953 14.1556V18.6844L69.0654 18.2861C69.1153 18.2775 69.1642 18.2695 69.2111 18.2615H69.2128L69.219 18.2604C69.6798 18.183 70.02 18.1258 70.2758 17.8831C70.4935 17.6923 70.6307 17.4454 70.6875 17.1427V15.2994C70.6306 14.9967 70.4934 14.7499 70.2758 14.559C69.992 14.2901 69.5885 14.1557 69.0654 14.1558L66.5953 14.1556Z"
    fill="#9096B2"
  />
  <path
    fill-rule="evenodd"
    clip-rule="evenodd"
    d="M54.56 12.0579V24.2899H57.0133V20.7862L59.647 20.3836L59.7662 20.3657H59.767C60.956 20.1866 61.8507 20.0518 62.5261 19.4479C63.2351 18.8346 63.5895 17.9955 63.5894 16.9304V15.5111C63.5894 14.4462 63.235 13.607 62.5261 12.9937C61.8282 12.3698 60.8685 12.0579 59.647 12.0579H54.56ZM57.0126 14.1556V18.6844L59.4827 18.2861C59.5326 18.2775 59.5816 18.2695 59.6284 18.2615H59.6302L59.6364 18.2604C60.0971 18.183 60.4374 18.1258 60.6932 17.8831C60.9108 17.6923 61.0481 17.4454 61.1048 17.1427V15.2994C61.048 14.9967 60.9108 14.7499 60.6932 14.559C60.4093 14.2901 60.0059 14.1557 59.4827 14.1558L57.0126 14.1556Z"
    fill="#9096B2"
  />
  <path
    fill-rule="evenodd"
    clip-rule="evenodd"
    d="M115.625 20.8572V8.62518H113.171V12.1289L110.538 12.5315L110.418 12.5495H110.418C109.229 12.7285 108.334 12.8634 107.658 13.4672C106.949 14.0805 106.595 14.9196 106.595 15.9847V17.404C106.595 18.469 106.95 19.3081 107.658 19.9214C108.356 20.5453 109.316 20.8572 110.538 20.8572H115.625ZM113.172 18.7595V14.2307L110.702 14.629C110.652 14.6376 110.603 14.6457 110.556 14.6536H110.554L110.548 14.6547C110.087 14.7321 109.747 14.7893 109.491 15.032C109.274 15.2229 109.136 15.4697 109.08 15.7725V17.6158C109.137 17.9185 109.274 18.1652 109.491 18.3561C109.775 18.625 110.179 18.7594 110.702 18.7593L113.172 18.7595Z"
    fill="#9096B2"
  />
  <path
    d="M101.789 21.0914C100.873 21.0914 100.061 20.8871 99.3521 20.4783C98.6433 20.0696 98.0927 19.5156 97.7001 18.8165C97.3185 18.1066 97.1277 17.3267 97.1277 16.477C97.1277 15.6165 97.3239 14.8367 97.7165 14.1375C98.109 13.4384 98.6488 12.8898 99.3357 12.4918C100.023 12.0938 100.786 11.8949 101.626 11.8949C102.542 11.8949 103.332 12.0831 103.997 12.4596C104.662 12.836 105.169 13.3577 105.518 14.0246C105.867 14.6807 106.042 15.4175 106.042 16.235C106.042 16.633 106.004 16.9449 105.927 17.1708H99.2376V15.396H104.537L103.376 16.235C103.485 15.7832 103.479 15.3745 103.359 15.0088C103.239 14.6431 103.027 14.358 102.721 14.1537C102.416 13.9385 102.051 13.831 101.626 13.831C101.2 13.831 100.83 13.9385 100.513 14.1537C100.208 14.358 99.9791 14.6592 99.8264 15.0572C99.6847 15.4552 99.6302 15.9338 99.6629 16.4931C99.6193 16.9879 99.6792 17.4235 99.8428 17.8C100.006 18.1765 100.257 18.4723 100.595 18.6874C100.944 18.8918 101.353 18.994 101.822 18.994C102.247 18.994 102.618 18.9079 102.934 18.7358C103.25 18.5637 103.496 18.3271 103.67 18.0259L105.633 18.9456C105.36 19.5909 104.875 20.1126 104.177 20.5106C103.49 20.8978 102.694 21.0914 101.789 21.0914Z"
    fill="#9096B2"
  />
  <path
    d="M41.9215 21.0791C40.9402 21.1114 40.0787 20.9124 39.3373 20.4821C38.5958 20.0519 38.0833 19.4549 37.7998 18.6912L39.5663 17.7877C39.8171 18.261 40.1387 18.6213 40.5313 18.8687C40.9347 19.1161 41.3763 19.2344 41.8561 19.2237C42.1941 19.2129 42.4558 19.1376 42.6412 18.9978C42.8266 18.8472 42.9138 18.6482 42.9029 18.4008C42.892 18.2072 42.8102 18.0459 42.6576 17.9168C42.5049 17.7877 42.2814 17.6963 41.987 17.6425L40.4658 17.3521C39.7353 17.18 39.1628 16.8627 38.7485 16.4002C38.3341 15.9377 38.116 15.3891 38.0942 14.7545C38.0833 14.2167 38.2087 13.738 38.4704 13.3185C38.743 12.8883 39.1301 12.5495 39.6317 12.3021C40.1333 12.0547 40.7166 11.9202 41.3818 11.8987C42.2541 11.8664 43.0229 12.0439 43.688 12.4311C44.364 12.8076 44.8547 13.3562 45.16 14.0768L43.3772 14.9804C43.2246 14.6254 42.9738 14.3457 42.6248 14.1414C42.2759 13.9263 41.8834 13.8241 41.4472 13.8348C41.131 13.8456 40.8856 13.9209 40.7112 14.0607C40.5367 14.1898 40.4549 14.3673 40.4658 14.5931C40.4767 14.776 40.5585 14.932 40.7112 15.061C40.8747 15.1793 41.1255 15.2815 41.4636 15.3676L42.8865 15.658C43.6389 15.8516 44.2168 16.1689 44.6203 16.6099C45.0346 17.0509 45.2527 17.5887 45.2745 18.2233C45.2854 18.7719 45.1546 19.2559 44.882 19.6754C44.6203 20.0949 44.2332 20.4283 43.7207 20.6757C43.2082 20.9231 42.6085 21.0576 41.9215 21.0791Z"
    fill="#9096B2"
  />
  <path
    d="M54.0067 20.8562H49.7704C48.5492 20.8562 47.5896 20.5442 46.8918 19.9204C46.183 19.3073 45.8286 18.4683 45.8286 17.4034V12.0469H48.282L48.282 17.2744C48.282 17.7261 48.4183 18.0865 48.6909 18.3554C48.9635 18.6243 49.3234 18.7587 49.7704 18.7587H51.5533V12.0469L54.0067 12.0469V20.8562Z"
    fill="#9096B2"
  />
</svg>
