<svg xmlns="http://www.w3.org/2000/svg" width="140" height="24" fill="none">
  <path
    fill="#000"
    d="m3.892 4.455 3.516 11.05h.135l3.522-11.05h3.41L9.46 19H5.497L.476 4.455h3.416ZM19.91 19.213c-1.122 0-2.088-.227-2.897-.682a4.669 4.669 0 0 1-1.861-1.946c-.436-.843-.653-1.84-.653-2.99 0-1.122.217-2.107.653-2.954a4.83 4.83 0 0 1 1.84-1.982c.795-.473 1.728-.71 2.798-.71.72 0 1.39.116 2.01.348.625.227 1.17.57 1.633 1.03.469.459.834 1.037 1.094 1.733.26.69.39 1.5.39 2.429v.83h-9.211v-1.874h6.364c0-.436-.095-.822-.285-1.158a2.034 2.034 0 0 0-.788-.788 2.249 2.249 0 0 0-1.158-.292c-.459 0-.866.107-1.221.32a2.24 2.24 0 0 0-.824.845c-.199.35-.3.741-.305 1.172v1.783c0 .54.099 1.006.298 1.399.203.393.49.696.86.909.369.213.806.32 1.313.32.336 0 .644-.048.924-.142.279-.095.518-.237.717-.427.199-.189.35-.421.454-.696l2.799.185a3.82 3.82 0 0 1-.874 1.761c-.436.498-.999.886-1.69 1.165-.687.275-1.48.412-2.38.412ZM26.891 19V8.09h2.933v1.904h.114c.199-.677.533-1.188 1.001-1.534a2.632 2.632 0 0 1 1.62-.525 4.578 4.578 0 0 1 .951.106v2.685a3.945 3.945 0 0 0-.59-.114c-.25-.033-.48-.05-.688-.05a2.42 2.42 0 0 0-1.193.292c-.346.19-.62.454-.824.795a2.297 2.297 0 0 0-.299 1.18V19h-3.025Zm10.982.206c-.696 0-1.316-.12-1.86-.362a2.996 2.996 0 0 1-1.294-1.087c-.312-.483-.468-1.084-.468-1.804 0-.606.111-1.115.334-1.527.222-.412.525-.743.909-.994.383-.251.819-.44 1.306-.568a9.957 9.957 0 0 1 1.549-.27 39.213 39.213 0 0 0 1.534-.185c.388-.062.67-.151.845-.27.175-.118.263-.293.263-.525v-.043c0-.45-.142-.798-.426-1.044-.28-.246-.677-.37-1.194-.37-.544 0-.977.121-1.3.363a1.667 1.667 0 0 0-.639.895l-2.798-.227a3.802 3.802 0 0 1 .838-1.72c.417-.487.954-.861 1.612-1.121.663-.266 1.43-.398 2.302-.398a6.98 6.98 0 0 1 1.74.213 4.553 4.553 0 0 1 1.484.66 3.21 3.21 0 0 1 1.03 1.151c.25.464.376 1.02.376 1.669V19h-2.869v-1.513h-.085a3.08 3.08 0 0 1-.703.902 3.255 3.255 0 0 1-1.059.604c-.411.142-.887.213-1.427.213Zm.866-2.088c.445 0 .838-.088 1.18-.263.34-.18.608-.421.802-.724.194-.303.291-.647.291-1.03v-1.158a1.62 1.62 0 0 1-.39.17c-.161.048-.344.093-.547.136a27.1 27.1 0 0 1-.611.106l-.554.078a3.746 3.746 0 0 0-.93.249 1.488 1.488 0 0 0-.618.461c-.147.19-.22.427-.22.71 0 .413.148.728.447.945.303.213.686.32 1.15.32ZM48.892 8.09l2.003 3.814 2.052-3.814h3.104l-3.16 5.455L56.136 19h-3.09l-2.151-3.771L48.778 19h-3.125l3.239-5.454-3.125-5.455h3.125ZM63.031 19V4.455h8.778v1.562h-7.017v4.915h6.563v1.562h-6.563v4.944h7.13V19h-8.891ZM76.007 8.09l2.613 4.461 2.614-4.46h1.932l-3.523 5.455L83.166 19h-1.932l-2.614-4.233L76.007 19h-1.932l3.466-5.454-3.466-5.455h1.932Zm9.55 15v-15h1.62v1.734h.199c.123-.19.293-.431.511-.725.223-.298.54-.563.952-.795.416-.237.98-.355 1.69-.355.919 0 1.728.23 2.43.689.7.46 1.247 1.11 1.64 1.953.393.843.59 1.837.59 2.983 0 1.155-.197 2.157-.59 3.004-.393.843-.938 1.496-1.634 1.96-.696.46-1.498.69-2.407.69-.701 0-1.262-.117-1.684-.349-.421-.237-.745-.504-.973-.802a10.75 10.75 0 0 1-.525-.753h-.142v5.767h-1.676Zm1.648-9.544c0 .823.121 1.55.362 2.18.242.625.595 1.115 1.059 1.47.464.35 1.032.526 1.704.526.701 0 1.286-.185 1.755-.554.473-.374.828-.876 1.065-1.506.241-.635.362-1.34.362-2.117 0-.767-.118-1.458-.355-2.073-.232-.62-.585-1.11-1.058-1.47-.469-.365-1.059-.547-1.769-.547-.682 0-1.254.172-1.718.518-.465.34-.815.82-1.052 1.435-.236.61-.355 1.323-.355 2.138Zm12.216-9.091V19h-1.676V4.455h1.676Zm7.502 14.772c-.985 0-1.849-.234-2.592-.703-.739-.469-1.317-1.124-1.733-1.967-.412-.843-.618-1.828-.618-2.955 0-1.136.206-2.128.618-2.976.416-.847.994-1.505 1.733-1.974.743-.469 1.607-.703 2.592-.703.985 0 1.847.234 2.585.703.744.469 1.321 1.127 1.733 1.974.417.848.625 1.84.625 2.976 0 1.127-.208 2.112-.625 2.955-.412.843-.989 1.498-1.733 1.967-.738.469-1.6.703-2.585.703Zm0-1.505c.748 0 1.364-.192 1.847-.576.482-.383.84-.887 1.072-1.513a5.792 5.792 0 0 0 .348-2.03c0-.73-.116-1.41-.348-2.04a3.443 3.443 0 0 0-1.072-1.526c-.483-.388-1.099-.582-1.847-.582s-1.364.194-1.847.582c-.483.388-.84.897-1.072 1.527a5.851 5.851 0 0 0-.348 2.038c0 .73.116 1.406.348 2.031.232.626.589 1.13 1.072 1.513.483.384 1.099.576 1.847.576ZM114.425 19V8.09h1.619V9.74h.114c.199-.54.558-.978 1.079-1.314a3.179 3.179 0 0 1 1.762-.505c.123 0 .277.003.461.008.185.004.325.011.419.02v1.705a5.006 5.006 0 0 0-.39-.064 3.848 3.848 0 0 0-.632-.05c-.531 0-1.004.112-1.421.335-.412.217-.739.52-.98.909a2.448 2.448 0 0 0-.355 1.314V19h-1.676Zm11.683.227c-1.051 0-1.958-.232-2.72-.696a4.662 4.662 0 0 1-1.754-1.96c-.408-.843-.611-1.823-.611-2.94 0-1.118.203-2.103.611-2.955.411-.857.984-1.524 1.718-2.003.739-.483 1.601-.724 2.586-.724a5.17 5.17 0 0 1 1.683.284c.554.19 1.058.497 1.513.923.454.422.816.98 1.086 1.676.27.696.405 1.553.405 2.571v.71h-8.409v-1.448h6.704c0-.616-.123-1.165-.369-1.648a2.779 2.779 0 0 0-1.037-1.143c-.445-.28-.97-.42-1.576-.42-.668 0-1.246.166-1.733.498a3.277 3.277 0 0 0-1.116 1.278 3.76 3.76 0 0 0-.39 1.69v.966c0 .824.142 1.523.426 2.096a3.076 3.076 0 0 0 1.2 1.3c.512.293 1.106.44 1.783.44.44 0 .838-.062 1.193-.185.36-.128.67-.317.931-.568.26-.256.461-.573.603-.952l1.62.455a3.593 3.593 0 0 1-.86 1.448 4.182 4.182 0 0 1-1.491.966c-.592.228-1.257.341-1.996.341Zm7.067-.227V8.09h1.619V9.74h.114c.199-.54.558-.978 1.079-1.314a3.179 3.179 0 0 1 1.762-.505c.123 0 .277.003.461.008.185.004.325.011.419.02v1.705a5.006 5.006 0 0 0-.39-.064 3.848 3.848 0 0 0-.632-.05c-.531 0-1.004.112-1.421.335-.412.217-.739.52-.98.909a2.448 2.448 0 0 0-.355 1.314V19h-1.676Z"
  />
</svg>
