<svg xmlns="http://www.w3.org/2000/svg" width="121" height="36" fill="none">
  <path fill="#C4FF1C" d="M.443 0H36.068999999999996V36H.443z" />
  <path fill="#0D0D12" d="M21.819 7.2H28.944V21.6H21.819z" />
  <path
    fill="#0D0D12"
    fill-rule="evenodd"
    d="m7.568 21.6 7.126 7.2h7.125v-7.2l-7.125-7.2v7.2H7.567Z"
    clip-rule="evenodd"
  />
  <path fill="#0D0D12" d="M7.568 7.2H14.693V14.4H7.568z" />
  <path
    fill="#0D0D12"
    d="m50.164 7.875 4.767 15.163h.183L59.89 7.875h4.622l-6.798 19.958H52.34L45.532 7.875h4.632ZM71.881 28.125c-1.521 0-2.83-.312-3.928-.936a6.375 6.375 0 0 1-2.523-2.67c-.591-1.156-.886-2.524-.886-4.102 0-1.54.295-2.891.886-4.054.59-1.163 1.421-2.07 2.494-2.719 1.078-.65 2.343-.975 3.794-.975.976 0 1.884.16 2.725.478a6.038 6.038 0 0 1 2.215 1.413c.635.63 1.13 1.423 1.483 2.378.353.948.53 2.06.53 3.333v1.14H66.18v-2.573h8.628c0-.598-.129-1.127-.385-1.588a2.777 2.777 0 0 0-1.07-1.082c-.449-.266-.972-.4-1.569-.4-.623 0-1.175.147-1.656.439a3.058 3.058 0 0 0-1.117 1.16 3.305 3.305 0 0 0-.414 1.607v2.447c0 .74.135 1.38.404 1.92.276.538.665.954 1.165 1.247.501.292 1.095.438 1.782.438.456 0 .873-.065 1.252-.195a2.59 2.59 0 0 0 .972-.584c.27-.26.475-.579.617-.956l3.794.254a5.267 5.267 0 0 1-1.185 2.417c-.59.682-1.354 1.215-2.292 1.598-.93.377-2.006.565-3.226.565ZM81.347 27.833V12.864h3.978v2.612h.154c.27-.929.722-1.63 1.357-2.105.636-.48 1.368-.721 2.196-.721.205 0 .427.013.664.039.238.026.447.062.626.107v3.684a5.29 5.29 0 0 0-.799-.156 7.092 7.092 0 0 0-.934-.068c-.603 0-1.143.133-1.618.4-.469.26-.84.623-1.117 1.09-.27.468-.404 1.008-.404 1.618v8.469h-4.103ZM96.237 28.115c-.943 0-1.784-.165-2.523-.497a4.076 4.076 0 0 1-1.752-1.49c-.424-.663-.636-1.488-.636-2.476 0-.832.151-1.53.453-2.095a3.692 3.692 0 0 1 1.232-1.364 5.943 5.943 0 0 1 1.772-.78 13.369 13.369 0 0 1 2.1-.37c.86-.091 1.553-.176 2.08-.254.526-.084.908-.208 1.145-.37.238-.162.357-.403.357-.721v-.059c0-.617-.193-1.094-.578-1.432-.379-.338-.918-.507-1.618-.507-.738 0-1.326.166-1.762.497a2.286 2.286 0 0 0-.867 1.228l-3.794-.312c.193-.91.572-1.695 1.136-2.358.565-.67 1.294-1.183 2.186-1.54.9-.364 1.94-.546 3.12-.546a9.36 9.36 0 0 1 2.36.293 6.138 6.138 0 0 1 2.012.906c.591.41 1.056.936 1.397 1.579.34.637.51 1.4.51 2.29v10.096h-3.89v-2.076h-.116c-.237.468-.555.88-.953 1.238a4.4 4.4 0 0 1-1.435.828c-.559.195-1.204.292-1.936.292Zm1.175-2.865c.604 0 1.136-.12 1.599-.36a2.846 2.846 0 0 0 1.088-.994c.263-.416.395-.887.395-1.413v-1.589a2.19 2.19 0 0 1-.53.234 9.562 9.562 0 0 1-.742.185c-.275.052-.552.101-.828.146l-.75.108a5.03 5.03 0 0 0-1.262.34 2.02 2.02 0 0 0-.838.634c-.199.26-.298.585-.298.975 0 .565.202.997.606 1.296.411.292.931.438 1.56.438ZM111.178 12.864l2.715 5.233 2.783-5.233h4.208l-4.285 7.485L121 27.833h-4.189l-2.918-5.175-2.869 5.175h-4.237l4.391-7.484-4.237-7.485h4.237Z"
  />
</svg>
