<svg width="90" height="29" viewBox="0 0 90 29" fill="none" xmlns="http://www.w3.org/2000/svg">
  <g clip-path="url(#clip0_1569_105223)">
    <ellipse cx="14" cy="14.5" rx="14" ry="14" fill="#9096B2" />
    <path d="M10.32 7.54004H6L10 16.82L12.24 11.86L10.32 7.54004Z" fill="#3D3D51" />
    <path d="M21.9999 7.54004H17.9999L12.1599 21.54H16.0799L21.9999 7.54004Z" fill="#3D3D51" />
  </g>
  <path
    d="M36.837 6.75171L40.5284 18.3554H40.6701L44.369 6.75171H47.9485L42.6836 22.0244H38.5224L33.25 6.75171H36.837Z"
    fill="#9096B2"
  />
  <path
    d="M53.0253 22.2482C51.847 22.2482 50.8328 22.0095 49.9827 21.5322C49.1375 21.05 48.4862 20.3689 48.0288 19.4889C47.5714 18.604 47.3427 17.5575 47.3427 16.3494C47.3427 15.1711 47.5714 14.137 48.0288 13.2471C48.4862 12.3572 49.13 11.6636 49.9603 11.1665C50.7955 10.6693 51.7749 10.4207 52.8985 10.4207C53.6542 10.4207 54.3577 10.5425 55.0089 10.7862C55.6652 11.0248 56.2369 11.3852 56.7241 11.8675C57.2163 12.3497 57.5991 12.9563 57.8726 13.6871C58.146 14.4129 58.2827 15.2631 58.2827 16.2375V17.11H48.6105V15.1413H55.2923C55.2923 14.6839 55.1929 14.2787 54.994 13.9257C54.7952 13.5727 54.5192 13.2968 54.1663 13.0979C53.8182 12.8941 53.4131 12.7922 52.9507 12.7922C52.4685 12.7922 52.0409 12.9041 51.668 13.1278C51.3001 13.3465 51.0118 13.6423 50.803 14.0152C50.5942 14.3831 50.4873 14.7933 50.4823 15.2457V17.1175C50.4823 17.6842 50.5867 18.1739 50.7955 18.5866C51.0093 18.9992 51.3101 19.3174 51.6979 19.5411C52.0856 19.7648 52.5455 19.8767 53.0775 19.8767C53.4305 19.8767 53.7536 19.827 54.0469 19.7276C54.3403 19.6281 54.5913 19.479 54.8001 19.2801C55.0089 19.0813 55.168 18.8376 55.2774 18.5493L58.2156 18.7432C58.0665 19.4492 57.7607 20.0656 57.2984 20.5926C56.841 21.1146 56.2493 21.5223 55.5235 21.8156C54.8026 22.104 53.9699 22.2482 53.0253 22.2482Z"
    fill="#9096B2"
  />
  <path
    d="M59.7259 22.0244V10.5699H62.8058V12.5685H62.9251C63.1339 11.8575 63.4844 11.3206 63.9766 10.9577C64.4688 10.5898 65.0355 10.4058 65.6769 10.4058C65.836 10.4058 66.0075 10.4158 66.1914 10.4357C66.3754 10.4555 66.537 10.4829 66.6762 10.5177V13.3366C66.527 13.2918 66.3207 13.2521 66.0572 13.2173C65.7937 13.1825 65.5526 13.1651 65.3338 13.1651C64.8665 13.1651 64.4489 13.267 64.081 13.4708C63.7181 13.6697 63.4297 13.9481 63.2159 14.306C63.0071 14.664 62.9027 15.0766 62.9027 15.544V22.0244H59.7259Z"
    fill="#9096B2"
  />
  <path
    d="M70.6269 22.2407C69.896 22.2407 69.2448 22.1139 68.673 21.8604C68.1013 21.6019 67.6489 21.2215 67.3158 20.7194C66.9877 20.2123 66.8236 19.5809 66.8236 18.8252C66.8236 18.1889 66.9404 17.6544 67.1741 17.2219C67.4078 16.7894 67.7259 16.4413 68.1286 16.1778C68.5313 15.9144 68.9887 15.7155 69.5008 15.5813C70.0178 15.447 70.5597 15.3526 71.1265 15.2979C71.7927 15.2283 72.3296 15.1636 72.7373 15.104C73.145 15.0394 73.4408 14.9449 73.6247 14.8206C73.8087 14.6963 73.9007 14.5124 73.9007 14.2688V14.224C73.9007 13.7517 73.7515 13.3863 73.4532 13.1278C73.1599 12.8693 72.7423 12.74 72.2004 12.74C71.6286 12.74 71.1737 12.8668 70.8357 13.1203C70.4976 13.3689 70.2739 13.6821 70.1645 14.0599L67.2263 13.8213C67.3754 13.1253 67.6688 12.5237 68.1063 12.0166C68.5438 11.5045 69.108 11.1118 69.7991 10.8384C70.4951 10.5599 71.3005 10.4207 72.2153 10.4207C72.8517 10.4207 73.4607 10.4953 74.0424 10.6445C74.629 10.7936 75.1485 11.0248 75.6009 11.338C76.0583 11.6512 76.4188 12.0539 76.6823 12.5461C76.9458 13.0333 77.0775 13.6175 77.0775 14.2986V22.0244H74.0647V20.436H73.9752C73.7913 20.794 73.5452 21.1097 73.2369 21.3831C72.9287 21.6516 72.5583 21.8629 72.1258 22.017C71.6933 22.1661 71.1936 22.2407 70.6269 22.2407ZM71.5367 20.0482C72.004 20.0482 72.4166 19.9563 72.7746 19.7723C73.1325 19.5834 73.4134 19.3298 73.6173 19.0117C73.8211 18.6935 73.923 18.333 73.923 17.9303V16.7148C73.8236 16.7794 73.6869 16.8391 73.5129 16.8938C73.3438 16.9435 73.1524 16.9907 72.9387 17.0354C72.7249 17.0752 72.5111 17.1125 72.2973 17.1473C72.0835 17.1771 71.8896 17.2045 71.7156 17.2293C71.3428 17.284 71.0171 17.371 70.7387 17.4903C70.4603 17.6097 70.2441 17.7712 70.0899 17.9751C69.9358 18.1739 69.8588 18.4225 69.8588 18.7208C69.8588 19.1533 70.0154 19.484 70.3286 19.7126C70.6468 19.9364 71.0495 20.0482 71.5367 20.0482Z"
    fill="#9096B2"
  />
  <path
    d="M81.567 10.5699L83.67 14.5745L85.8252 10.5699H89.084L85.7655 16.2972L89.1735 22.0244H85.9296L83.67 18.0646L81.4477 22.0244H78.1664L81.567 16.2972L78.2857 10.5699H81.567Z"
    fill="#9096B2"
  />
  <defs>
    <clipPath id="clip0_1569_105223">
      <rect width="28" height="28" fill="white" transform="translate(0 0.5)" />
    </clipPath>
  </defs>
</svg>
