<svg xmlns="http://www.w3.org/2000/svg" width="92" height="20" fill="none">
  <path
    fill="#0D0D12"
    fill-rule="evenodd"
    d="M48.68 15.14a6.373 6.373 0 0 1-2.419.452c-1.223 0-2.242-.32-3.057-.959a3.462 3.462 0 0 1-.872-1.067 5.429 5.429 0 0 1-.484-1.286 8.228 8.228 0 0 1-.159-.816h11.35v5.46h3.72V8.801c0-1.279.32-2.237.957-2.876.369-.38.831-.65 1.389-.81.165-.048.34-.085.521-.114.267-.041.552-.062.854-.062h6.38c.598 0 1.127.081 1.585.243.465.165.858.412 1.179.743.521.522.83 1.26.925 2.21H66.86c-2.41 0-4.19.364-5.343 1.091-1.134.729-1.7 1.829-1.7 3.303 0 1.473.566 2.574 1.7 3.302 1.152.727 2.933 1.091 5.343 1.091h10.82l3.721-4.447.841-1.01h.835l.84 1.01 3.721 4.447h4.254L86.045 9.92l5.715-6.844h-4.253L83.919 7.39 82.66 8.888 81.402 7.39l-3.588-4.314H73.56l5.714 6.844-4.973 5.957V8.802c0-1.811-.567-3.213-1.701-4.208-1.152-1.012-2.8-1.518-4.944-1.518h-7.974c-2.144 0-3.792.506-4.944 1.518-1.134.995-1.7 2.397-1.7 4.208v.761c-.005-1.086-.209-2.058-.612-2.918a6.63 6.63 0 0 0-1.648-2.21 6.973 6.973 0 0 0-2.445-1.412c-.939-.32-1.94-.479-3.004-.479-1.134 0-2.17.169-3.11.506a6.75 6.75 0 0 0-2.444 1.438 5.932 5.932 0 0 0-.486.505c-.172.2-.332.414-.48.64l.981-2.557h-3.72L31.683 14.66h-.265L27.034 3.076h-3.721l5.315 13.847h5.847l3.273-8.526c-.048.29-.082.589-.102.898-.015.23-.023.464-.023.705 0 1.207.195 2.272.585 3.195a6.644 6.644 0 0 0 1.7 2.344c.382.325.804.61 1.268.852.421.22.875.407 1.364.559a9.943 9.943 0 0 0 1.561.367c.602.093 1.233.139 1.894.139.567 0 1.134-.054 1.7-.16a11.306 11.306 0 0 0 1.622-.373 8.442 8.442 0 0 0 1.462-.639 6.15 6.15 0 0 0 1.196-.825l-1.063-1.598a9.508 9.508 0 0 1-2.233 1.278ZM43.895 4.567a3.516 3.516 0 0 1 1.434-.293 2.964 2.964 0 0 1 .979.165c.126.043.252.094.377.154.46.195.86.515 1.197.959.243.294.454.647.631 1.058a6.204 6.204 0 0 1 .219.593c.212.675.319 1.473.319 2.397H41.61c.005-.308.02-.602.044-.88.033-.39.084-.75.153-1.081.036-.17.076-.334.121-.49.213-.674.479-1.224.798-1.65.142-.18.294-.34.456-.479.22-.19.458-.34.714-.453ZM70.58 15.059h-3.72c-2.037 0-3.056-.843-3.056-2.53 0-1.686 1.019-2.53 3.057-2.53h3.72v5.06Z"
    clip-rule="evenodd"
  />
  <path
    fill="#6EC700"
    fill-rule="evenodd"
    d="m20.493 9.822-3.979 6.904c-.615 1.068-.923 1.602-1.333 2.01a4.334 4.334 0 0 1-1.922 1.112l-.139.035c-.096.021-.194.039-.298.053a6.763 6.763 0 0 1-.556.047c-.37.017-.82.017-1.412.017-1.231 0-1.846 0-2.405-.152a4.335 4.335 0 0 1-1.922-1.112c-.41-.407-.717-.94-1.33-2.005l-.003-.005-3.979-6.904C.6 8.754.292 8.22.145 7.66a4.361 4.361 0 0 1 0-2.224c.147-.56.455-1.094 1.07-2.162.616-1.068.924-1.602 1.334-2.01A4.335 4.335 0 0 1 4.47.152C4.824.056 5.2.02 5.738.008 6.053 0 6.422 0 6.876 0h7.956l.653.001.273.003c.182.002.346.006.497.013.393.019.695.057.982.135.726.197 1.388.58 1.922 1.112.41.408.718.942 1.334 2.01.615 1.068.923 1.602 1.07 2.162a4.347 4.347 0 0 1 0 2.224c-.147.56-.455 1.094-1.07 2.162ZM9.69 1.163h2.329l2.21 5.726 3.844 4.78-1.164 2.021-6.055-.945-6.055.946-1.164-2.021L7.48 6.89l2.21-5.727Z"
    clip-rule="evenodd"
  />
</svg>
