<svg
  xmlns="http://www.w3.org/2000/svg"
  width="171"
  height="173"
  fill-rule="evenodd"
  clip-rule="evenodd"
  image-rendering="optimizeQuality"
  shape-rendering="geometricPrecision"
  text-rendering="geometricPrecision"
>
  <path
    fill="#676455"
    d="M74.5-.5h21c41.971 7.97 66.971 32.97 75 75v23c-8.029 42.029-33.029 67.029-75 75h-21c-41.97-7.971-66.97-32.971-75-75v-23c8.03-42.03 33.03-67.03 75-75Z"
    opacity=".981"
  />
  <path
    fill="#646153"
    d="M44.5 34.5c7.008-.166 14.008 0 21 .5 6.299 1.963 11.132 5.797 14.5 11.5a531.217 531.217 0 0 0 11 24 148.104 148.104 0 0 0 13-25c2.552-4.219 6.052-7.386 10.5-9.5a66.39 66.39 0 0 1 22-1c7.369 2.035 12.035 6.702 14 14a1055.448 1055.448 0 0 1-35.5 85.5c-5.402 8.202-13.069 12.202-23 12-7.925.367-14.592-2.299-20-8-1.838-2.537-2.67-5.371-2.5-8.5a215.167 215.167 0 0 1 5-19.5c-6.916 3.417-13.083 2.417-18.5-3a424.62 424.62 0 0 1-23-50c-3.593-11.481.24-19.148 11.5-23Z"
  />
  <path
    fill="#a4af63"
    d="M66.5 47.5a217.913 217.913 0 0 0 9 22.5 475.406 475.406 0 0 0-12 27.5c-2.19 2.44-3.69 1.772-4.5-2a5231.524 5231.524 0 0 0-22.5-53 122.06 122.06 0 0 1 27-.5c.73 2.058 1.73 3.891 3 5.5Z"
  />
  <path
    fill="#a5af63"
    d="M134.5 47.5a359295.376 359295.376 0 0 1-35 82 73.134 73.134 0 0 1-17 1 16.874 16.874 0 0 1-8-1 2520.472 2520.472 0 0 0 37-88h25c-.104 2.203-.77 4.203-2 6Z"
  />
  <path
    fill="#555246"
    d="M66.5 47.5c1.517.01 2.684.677 3.5 2 5.956 9.19 8.623 19.19 8 30a104.32 104.32 0 0 0-6 14c-1.364 2.863-3.53 4.863-6.5 6-1.022-.356-1.689-1.022-2-2a475.406 475.406 0 0 1 12-27.5 217.913 217.913 0 0 1-9-22.5Z"
  />
  <path
    fill="#535045"
    d="M82.5 130.5a73.134 73.134 0 0 0 17-1c11.682-27.359 23.348-54.692 35-82 1.347-.671 2.514-.671 3.5 0 .738 3.761.405 7.428-1 11a805.725 805.725 0 0 0-30 70c-6.778 5.904-14.611 7.571-23.5 5a5.577 5.577 0 0 1-1-3Z"
  />
</svg>
