<svg xmlns="http://www.w3.org/2000/svg" width="16" height="16" fill="none">
  <path
    fill="#6EC700"
    fill-rule="evenodd"
    d="m14.326 8.639-2.61 4.52c-.403.698-.605 1.048-.874 1.315-.35.348-.785.6-1.261.728l-.091.023a2.338 2.338 0 0 1-.371.054c-.06.005-.123.009-.19.012-.242.01-.537.01-.926.01-.807 0-1.21 0-1.577-.099-.476-.129-.91-.38-1.26-.728-.27-.266-.47-.615-.873-1.312l-.002-.004-2.61-4.52C1.278 7.94 1.076 7.59.98 7.224a2.85 2.85 0 0 1 0-1.456c.097-.367.299-.716.702-1.416.404-.698.606-1.048.875-1.315.35-.349.785-.6 1.261-.729.231-.062.478-.085.831-.094.206-.005.449-.005.746-.005h5.647l.18.003c.118.001.226.004.325.008.258.012.456.037.644.088.476.13.91.38 1.261.729.269.267.471.617.875 1.315.403.7.605 1.05.702 1.416a2.846 2.846 0 0 1 0 1.456c-.097.367-.299.716-.702 1.416ZM7.24 2.969h1.528l1.45 3.75 2.52 3.13-.763 1.322-3.971-.619-3.972.619-.763-1.323 2.521-3.13L7.24 2.97Z"
    clip-rule="evenodd"
  />
</svg>
