<svg width="102" height="32" viewBox="0 0 102 32" fill="none" xmlns="http://www.w3.org/2000/svg">
  <g clip-path="url(#clip0_1658_29071)">
    <circle cx="16" cy="16" r="16" fill="#676455" />
    <path d="M11.7946 8.04572H6.85742L11.4289 18.6514L13.9889 12.9829L11.7946 8.04572Z" fill="#A5AF63" />
    <path d="M25.1422 8.04572H20.5708L13.8965 24.0457H18.3765L25.1422 8.04572Z" fill="#A5AF63" />
  </g>
  <path
    d="M42.0994 7.1449L46.3182 20.4063H46.4801L50.7074 7.1449H54.7983L48.7812 24.5994H44.0256L38 7.1449H42.0994Z"
    fill="#0D0D12"
  />
  <path
    d="M60.6003 24.8551C59.2537 24.8551 58.0946 24.5824 57.123 24.0369C56.1571 23.4858 55.4128 22.7074 54.8901 21.7017C54.3674 20.6904 54.106 19.4943 54.106 18.1136C54.106 16.7671 54.3674 15.5852 54.8901 14.5682C55.4128 13.5511 56.1486 12.7585 57.0975 12.1904C58.052 11.6222 59.1713 11.3381 60.4554 11.3381C61.3191 11.3381 62.123 11.4773 62.8674 11.7557C63.6174 12.0284 64.2708 12.4404 64.8276 12.9915C65.3901 13.5426 65.8276 14.2358 66.1401 15.071C66.4526 15.9006 66.6088 16.8722 66.6088 17.9858V18.983H55.5549V16.733H63.1912C63.1912 16.2102 63.0776 15.7472 62.8503 15.3438C62.623 14.9404 62.3077 14.625 61.9043 14.3977C61.5066 14.1648 61.0435 14.0483 60.5151 14.0483C59.9639 14.0483 59.4753 14.1761 59.0492 14.4318C58.6287 14.6818 58.2992 15.0199 58.0605 15.446C57.8219 15.8665 57.6997 16.3352 57.6941 16.8523V18.9915C57.6941 19.6392 57.8134 20.1989 58.052 20.6705C58.2963 21.1421 58.6401 21.5057 59.0833 21.7614C59.5264 22.0171 60.052 22.1449 60.66 22.1449C61.0634 22.1449 61.4327 22.0881 61.7679 21.9744C62.1032 21.8608 62.3901 21.6904 62.6287 21.4631C62.8674 21.2358 63.0492 20.9574 63.1742 20.6279L66.5321 20.8494C66.3617 21.6563 66.0122 22.3608 65.4838 22.9631C64.9611 23.5597 64.285 24.0256 63.4554 24.3608C62.6316 24.6904 61.6799 24.8551 60.6003 24.8551Z"
    fill="#0D0D12"
  />
  <path
    d="M68.2582 24.5994V11.5085H71.778V13.7926H71.9144C72.153 12.9801 72.5536 12.3665 73.1161 11.9517C73.6786 11.5313 74.3263 11.321 75.0593 11.321C75.2411 11.321 75.4371 11.3324 75.6474 11.3551C75.8576 11.3779 76.0422 11.4091 76.2013 11.4489V14.6705C76.0309 14.6193 75.7951 14.5739 75.4939 14.5341C75.1928 14.4943 74.9172 14.4744 74.6672 14.4744C74.1332 14.4744 73.6559 14.5909 73.2354 14.8239C72.8207 15.0511 72.4911 15.3693 72.2468 15.7784C72.0082 16.1875 71.8888 16.6591 71.8888 17.1932V24.5994H68.2582Z"
    fill="#0D0D12"
  />
  <path
    d="M80.7164 24.8466C79.8812 24.8466 79.1369 24.7017 78.4835 24.4119C77.8301 24.1165 77.313 23.6818 76.9323 23.108C76.5573 22.5284 76.3698 21.8068 76.3698 20.9432C76.3698 20.2159 76.5034 19.6051 76.7704 19.1108C77.0374 18.6165 77.4011 18.2188 77.8613 17.9176C78.3215 17.6165 78.8443 17.3892 79.4295 17.2358C80.0204 17.0824 80.6397 16.9744 81.2874 16.9119C82.0488 16.8324 82.6624 16.7585 83.1284 16.6904C83.5943 16.6165 83.9323 16.5085 84.1426 16.3665C84.3528 16.2244 84.4579 16.0142 84.4579 15.7358V15.6847C84.4579 15.1449 84.2874 14.7273 83.9465 14.4318C83.6113 14.1364 83.134 13.9886 82.5147 13.9886C81.8613 13.9886 81.3414 14.1335 80.9551 14.4233C80.5687 14.7074 80.313 15.0654 80.188 15.4972L76.8301 15.2244C77.0005 14.429 77.3357 13.7415 77.8357 13.1619C78.3357 12.5767 78.9806 12.1279 79.7704 11.8154C80.5659 11.4972 81.4863 11.3381 82.5318 11.3381C83.259 11.3381 83.9551 11.4233 84.6198 11.5938C85.2903 11.7642 85.884 12.0284 86.4011 12.3864C86.9238 12.7443 87.3357 13.2046 87.6369 13.7671C87.938 14.3239 88.0886 14.9915 88.0886 15.7699V24.5994H84.6454V22.7841H84.5431C84.3329 23.1932 84.0516 23.554 83.6994 23.8665C83.3471 24.1733 82.9238 24.4148 82.4295 24.5909C81.9352 24.7614 81.3641 24.8466 80.7164 24.8466ZM81.7562 22.3409C82.2903 22.3409 82.7619 22.2358 83.171 22.0256C83.5801 21.8097 83.9011 21.5199 84.134 21.1563C84.367 20.7926 84.4835 20.3807 84.4835 19.9205V18.5313C84.3698 18.6051 84.2136 18.6733 84.0147 18.7358C83.8215 18.7926 83.6028 18.8466 83.3585 18.8977C83.1141 18.9432 82.8698 18.9858 82.6255 19.0256C82.3812 19.0597 82.1596 19.0909 81.9607 19.1193C81.5346 19.1818 81.1624 19.2813 80.8443 19.4176C80.5261 19.554 80.2789 19.7386 80.1028 19.9716C79.9266 20.1989 79.8386 20.483 79.8386 20.8239C79.8386 21.3182 80.0176 21.696 80.3755 21.9574C80.7391 22.2131 81.1994 22.3409 81.7562 22.3409Z"
    fill="#0D0D12"
  />
  <path
    d="M93.2194 11.5085L95.6228 16.0852L98.0859 11.5085H101.81L98.0177 18.054L101.913 24.5994H98.2052L95.6228 20.0739L93.0831 24.5994H89.3331L93.2194 18.054L89.4694 11.5085H93.2194Z"
    fill="#0D0D12"
  />
  <defs>
    <clipPath id="clip0_1658_29071">
      <rect width="32" height="32" fill="white" />
    </clipPath>
  </defs>
</svg>
