<svg width="102" height="33" viewBox="0 0 102 33" fill="none" xmlns="http://www.w3.org/2000/svg">
  <g clip-path="url(#clip0_1569_99240)">
    <circle cx="16.0439" cy="16.25" r="16" fill="#9096B2" />
    <path d="M11.838 8.29565H6.90088L11.4723 18.9014L14.0323 13.2328L11.838 8.29565Z" fill="#EAEAF3" />
    <path d="M25.1866 8.29565H20.6152L13.9409 24.2957H18.4209L25.1866 8.29565Z" fill="#EAEAF3" />
  </g>
  <path
    d="M42.1434 7.39478L46.3621 20.6561H46.5241L50.7513 7.39478H54.8422L48.8252 24.8493H44.0695L38.0439 7.39478H42.1434Z"
    fill="#9096B2"
  />
  <path
    d="M60.6443 25.105C59.2977 25.105 58.1386 24.8323 57.167 24.2868C56.2011 23.7357 55.4568 22.9573 54.934 21.9516C54.4113 20.9402 54.1499 19.7442 54.1499 18.3635C54.1499 17.0169 54.4113 15.8351 54.934 14.8181C55.4568 13.801 56.1926 13.0084 57.1414 12.4402C58.096 11.872 59.2153 11.588 60.4994 11.588C61.363 11.588 62.167 11.7272 62.9113 12.0056C63.6613 12.2783 64.3147 12.6902 64.8715 13.2414C65.434 13.7925 65.8715 14.4857 66.184 15.3209C66.4965 16.1505 66.6528 17.122 66.6528 18.2357V19.2328H55.5988V16.9828H63.2352C63.2352 16.4601 63.1215 15.997 62.8943 15.5936C62.667 15.1902 62.3516 14.8749 61.9482 14.6476C61.5505 14.4147 61.0874 14.2982 60.559 14.2982C60.0079 14.2982 59.5193 14.426 59.0931 14.6817C58.6727 14.9317 58.3431 15.2698 58.1045 15.6959C57.8658 16.1164 57.7437 16.5851 57.738 17.1022V19.2414C57.738 19.8891 57.8573 20.4488 58.096 20.9203C58.3403 21.3919 58.684 21.7556 59.1272 22.0113C59.5704 22.2669 60.096 22.3948 60.7039 22.3948C61.1073 22.3948 61.4766 22.338 61.8119 22.2243C62.1471 22.1107 62.434 21.9402 62.6727 21.713C62.9113 21.4857 63.0931 21.2073 63.2181 20.8777L66.5761 21.0993C66.4056 21.9061 66.0562 22.6107 65.5278 23.213C65.0051 23.8095 64.3289 24.2755 63.4994 24.6107C62.6755 24.9402 61.7238 25.105 60.6443 25.105Z"
    fill="#9096B2"
  />
  <path
    d="M68.3021 24.8493V11.7584H71.822V14.0425H71.9583C72.197 13.23 72.5976 12.6164 73.1601 12.2016C73.7226 11.7811 74.3703 11.5709 75.1032 11.5709C75.2851 11.5709 75.4811 11.5823 75.6913 11.605C75.9015 11.6277 76.0862 11.659 76.2453 11.6988V14.9203C76.0748 14.8692 75.839 14.8238 75.5379 14.784C75.2368 14.7442 74.9612 14.7243 74.7112 14.7243C74.1771 14.7243 73.6998 14.8408 73.2794 15.0738C72.8646 15.301 72.5351 15.6192 72.2907 16.0283C72.0521 16.4374 71.9328 16.909 71.9328 17.4431V24.8493H68.3021Z"
    fill="#9096B2"
  />
  <path
    d="M80.7604 25.0965C79.9251 25.0965 79.1808 24.9516 78.5274 24.6618C77.874 24.3664 77.357 23.9317 76.9763 23.3578C76.6013 22.7783 76.4138 22.0567 76.4138 21.1931C76.4138 20.4658 76.5473 19.855 76.8143 19.3607C77.0814 18.8664 77.445 18.4686 77.9053 18.1675C78.3655 17.8664 78.8882 17.6391 79.4734 17.4857C80.0643 17.3323 80.6837 17.2243 81.3314 17.1618C82.0928 17.0823 82.7064 17.0084 83.1723 16.9402C83.6382 16.8664 83.9763 16.7584 84.1865 16.6164C84.3967 16.4743 84.5018 16.2641 84.5018 15.9857V15.9345C84.5018 15.3948 84.3314 14.9772 83.9905 14.6817C83.6553 14.3863 83.178 14.2385 82.5587 14.2385C81.9053 14.2385 81.3854 14.3834 80.999 14.6732C80.6126 14.9573 80.357 15.3152 80.232 15.747L76.874 15.4743C77.0445 14.6789 77.3797 13.9914 77.8797 13.4118C78.3797 12.8266 79.0246 12.3777 79.8143 12.0652C80.6098 11.747 81.5303 11.588 82.5757 11.588C83.303 11.588 83.999 11.6732 84.6638 11.8436C85.3342 12.0141 85.928 12.2783 86.445 12.6363C86.9678 12.9942 87.3797 13.4544 87.6808 14.0169C87.982 14.5738 88.1325 15.2414 88.1325 16.0198V24.8493H84.6893V23.034H84.5871C84.3768 23.4431 84.0956 23.8039 83.7433 24.1164C83.391 24.4232 82.9678 24.6647 82.4734 24.8408C81.9791 25.0113 81.4081 25.0965 80.7604 25.0965ZM81.8001 22.5908C82.3342 22.5908 82.8058 22.4857 83.2149 22.2755C83.624 22.0595 83.945 21.7698 84.178 21.4061C84.4109 21.0425 84.5274 20.6306 84.5274 20.1703V18.7811C84.4138 18.855 84.2575 18.9232 84.0587 18.9857C83.8655 19.0425 83.6467 19.0965 83.4024 19.1476C83.1581 19.1931 82.9138 19.2357 82.6695 19.2755C82.4251 19.3095 82.2035 19.3408 82.0047 19.3692C81.5785 19.4317 81.2064 19.5311 80.8882 19.6675C80.57 19.8039 80.3229 19.9885 80.1467 20.2215C79.9706 20.4488 79.8825 20.7328 79.8825 21.0738C79.8825 21.5681 80.0615 21.9459 80.4195 22.2073C80.7831 22.463 81.2433 22.5908 81.8001 22.5908Z"
    fill="#9096B2"
  />
  <path
    d="M93.2634 11.7584L95.6668 16.3351L98.1299 11.7584H101.854L98.0617 18.3039L101.957 24.8493H98.2492L95.6668 20.3238L93.127 24.8493H89.377L93.2634 18.3039L89.5134 11.7584H93.2634Z"
    fill="#9096B2"
  />
  <defs>
    <clipPath id="clip0_1569_99240">
      <rect width="32" height="32" fill="white" transform="translate(0.0439453 0.25)" />
    </clipPath>
  </defs>
</svg>
